<?xml version="1.0" encoding="UTF-8" standalone="no"?><svg xmlns="http://www.w3.org/2000/svg" xmlns:xlink="http://www.w3.org/1999/xlink" contentScriptType="application/ecmascript" contentStyleType="text/css" height="722px" preserveAspectRatio="none" style="width:1236px;height:722px;" version="1.1" viewBox="0 0 1236 722" width="1236px" zoomAndPan="magnify"><defs><filter height="300%" id="fvns38kvtvm9w" width="300%" x="-1" y="-1"><feGaussianBlur result="blurOut" stdDeviation="2.0"/><feColorMatrix in="blurOut" result="blurOut2" type="matrix" values="0 0 0 0 0 0 0 0 0 0 0 0 0 0 0 0 0 0 .4 0"/><feOffset dx="4.0" dy="4.0" in="blurOut2" result="blurOut3"/><feBlend in="SourceGraphic" in2="blurOut3" mode="normal"/></filter></defs><g><!--MD5=[cf2e9fab6bcdfe5ca02b2607bfaaecaa]
class Die--><rect codeLine="1" fill="#FEFECE" filter="url(#fvns38kvtvm9w)" height="99.2188" id="Die" style="stroke: #A80036; stroke-width: 1.5;" width="277" x="191" y="312"/><ellipse cx="315.25" cy="328" fill="#ADD1B2" rx="11" ry="11" style="stroke: #A80036; stroke-width: 1.0;"/><path d="M317.5938,323.6719 C316.6563,323.2344 316.0625,323.0938 315.1875,323.0938 C312.5625,323.0938 310.5625,325.1719 310.5625,327.8906 L310.5625,329.0156 C310.5625,331.5938 312.6719,333.4844 315.5625,333.4844 C316.7813,333.4844 317.9375,333.1875 318.6875,332.6406 C319.2656,332.2344 319.5938,331.7813 319.5938,331.3906 C319.5938,330.9375 319.2031,330.5469 318.7344,330.5469 C318.5156,330.5469 318.3125,330.625 318.125,330.8125 C317.6719,331.2969 317.6719,331.2969 317.4844,331.3906 C317.0625,331.6563 316.375,331.7813 315.6094,331.7813 C313.5625,331.7813 312.2656,330.6875 312.2656,328.9844 L312.2656,327.8906 C312.2656,326.1094 313.5156,324.7969 315.25,324.7969 C315.8281,324.7969 316.4375,324.9531 316.9063,325.2031 C317.3906,325.4844 317.5625,325.7031 317.6563,326.1094 C317.7188,326.5156 317.75,326.6406 317.8906,326.7656 C318.0313,326.9063 318.2656,327.0156 318.4844,327.0156 C318.75,327.0156 319.0156,326.875 319.1875,326.6563 C319.2969,326.5 319.3281,326.3125 319.3281,325.8906 L319.3281,324.4688 C319.3281,324.0313 319.3125,323.9063 319.2188,323.75 C319.0625,323.4844 318.7813,323.3438 318.4844,323.3438 C318.1875,323.3438 317.9844,323.4375 317.7656,323.75 L317.5938,323.6719 Z "/><text fill="#000000" font-family="sans-serif" font-size="12" lengthAdjust="spacingAndGlyphs" textLength="20" x="335.75" y="332.1543">Die</text><line style="stroke: #A80036; stroke-width: 1.5;" x1="192" x2="467" y1="344" y2="344"/><text fill="#000000" font-family="sans-serif" font-size="11" lengthAdjust="spacingAndGlyphs" textLength="265" x="197" y="358.2104">history : ConcurrentHashMap&lt;Direction, Long&gt;</text><text fill="#000000" font-family="sans-serif" font-size="11" lengthAdjust="spacingAndGlyphs" textLength="100" x="197" y="371.0151">random : Random</text><line style="stroke: #A80036; stroke-width: 1.5;" x1="192" x2="467" y1="377.6094" y2="377.6094"/><text fill="#000000" font-family="sans-serif" font-size="11" lengthAdjust="spacingAndGlyphs" textLength="62" x="197" y="391.8198">printStats()</text><text fill="#000000" font-family="sans-serif" font-size="11" lengthAdjust="spacingAndGlyphs" textLength="87" x="197" y="404.6245">roll() : Direction</text><!--MD5=[02f7077ed79257124e28b791f351f1d7]
class Direction--><rect codeLine="8" fill="#FEFECE" filter="url(#fvns38kvtvm9w)" height="99.2188" id="Direction" style="stroke: #A80036; stroke-width: 1.5;" width="86" x="158.5" y="604"/><ellipse cx="173.5" cy="620" fill="#EB937F" rx="11" ry="11" style="stroke: #A80036; stroke-width: 1.0;"/><path d="M172.2969,620.875 L173.75,620.875 L173.75,620.9844 C173.75,621.3906 173.7813,621.5469 173.8594,621.7031 C174.0156,621.9531 174.2969,622.1094 174.5938,622.1094 C174.8438,622.1094 175.1094,621.9688 175.2656,621.75 C175.3906,621.5938 175.4219,621.4375 175.4219,620.9844 L175.4219,619.0625 C175.4219,618.9063 175.4219,618.8594 175.4063,618.7031 C175.3438,618.2344 175.0313,617.9219 174.5781,617.9219 C174.3281,617.9219 174.0625,618.0625 173.8906,618.2813 C173.7813,618.4531 173.75,618.6094 173.75,619.0625 L173.75,619.1875 L172.2969,619.1875 L172.2969,616.7813 L176.2813,616.7813 L176.2813,617.6406 C176.2813,618.0469 176.3125,618.2188 176.3906,618.375 C176.5625,618.625 176.8438,618.7813 177.125,618.7813 C177.3906,618.7813 177.6563,618.6406 177.8281,618.4219 C177.9375,618.25 177.9688,618.1094 177.9688,617.6406 L177.9688,615.0938 L170.3438,615.0938 C169.9063,615.0938 169.7813,615.1094 169.625,615.2031 C169.375,615.3594 169.2188,615.6563 169.2188,615.9375 C169.2188,616.2188 169.3594,616.4688 169.5781,616.6406 C169.7344,616.75 169.9219,616.7813 170.3438,616.7813 L170.5938,616.7813 L170.5938,623.2969 L170.3438,623.2969 C169.9375,623.2969 169.7813,623.3125 169.625,623.4219 C169.375,623.5938 169.2188,623.8594 169.2188,624.1563 C169.2188,624.4219 169.3594,624.6719 169.5781,624.8281 C169.7188,624.9531 169.9531,625 170.3438,625 L178.3438,625 L178.3438,622.4219 C178.3438,621.9844 178.3125,621.8438 178.2344,621.6875 C178.0625,621.4375 177.7813,621.2813 177.5,621.2813 C177.2344,621.2813 176.9688,621.3906 176.7969,621.6406 C176.6875,621.7969 176.6563,621.9375 176.6563,622.4219 L176.6563,623.2969 L172.2969,623.2969 L172.2969,620.875 Z "/><text fill="#000000" font-family="sans-serif" font-size="12" lengthAdjust="spacingAndGlyphs" textLength="54" x="187.5" y="624.1543">Direction</text><line style="stroke: #A80036; stroke-width: 1.5;" x1="159.5" x2="243.5" y1="636" y2="636"/><text fill="#000000" font-family="sans-serif" font-size="11" lengthAdjust="spacingAndGlyphs" textLength="39" x="164.5" y="650.2104">NORTH</text><text fill="#000000" font-family="sans-serif" font-size="11" lengthAdjust="spacingAndGlyphs" textLength="30" x="164.5" y="663.0151">EAST</text><text fill="#000000" font-family="sans-serif" font-size="11" lengthAdjust="spacingAndGlyphs" textLength="40" x="164.5" y="675.8198">SOUTH</text><text fill="#000000" font-family="sans-serif" font-size="11" lengthAdjust="spacingAndGlyphs" textLength="33" x="164.5" y="688.6245">WEST</text><line style="stroke: #A80036; stroke-width: 1.5;" x1="159.5" x2="243.5" y1="695.2188" y2="695.2188"/><!--MD5=[1f24f7b92150e3316908f7910ce81742]
class Grid--><rect codeLine="15" fill="#FEFECE" filter="url(#fvns38kvtvm9w)" height="112.0234" id="Grid" style="stroke: #A80036; stroke-width: 1.5;" width="269" x="7" y="170"/><ellipse cx="124.75" cy="186" fill="#ADD1B2" rx="11" ry="11" style="stroke: #A80036; stroke-width: 1.0;"/><path d="M127.0938,181.6719 C126.1563,181.2344 125.5625,181.0938 124.6875,181.0938 C122.0625,181.0938 120.0625,183.1719 120.0625,185.8906 L120.0625,187.0156 C120.0625,189.5938 122.1719,191.4844 125.0625,191.4844 C126.2813,191.4844 127.4375,191.1875 128.1875,190.6406 C128.7656,190.2344 129.0938,189.7813 129.0938,189.3906 C129.0938,188.9375 128.7031,188.5469 128.2344,188.5469 C128.0156,188.5469 127.8125,188.625 127.625,188.8125 C127.1719,189.2969 127.1719,189.2969 126.9844,189.3906 C126.5625,189.6563 125.875,189.7813 125.1094,189.7813 C123.0625,189.7813 121.7656,188.6875 121.7656,186.9844 L121.7656,185.8906 C121.7656,184.1094 123.0156,182.7969 124.75,182.7969 C125.3281,182.7969 125.9375,182.9531 126.4063,183.2031 C126.8906,183.4844 127.0625,183.7031 127.1563,184.1094 C127.2188,184.5156 127.25,184.6406 127.3906,184.7656 C127.5313,184.9063 127.7656,185.0156 127.9844,185.0156 C128.25,185.0156 128.5156,184.875 128.6875,184.6563 C128.7969,184.5 128.8281,184.3125 128.8281,183.8906 L128.8281,182.4688 C128.8281,182.0313 128.8125,181.9063 128.7188,181.75 C128.5625,181.4844 128.2813,181.3438 127.9844,181.3438 C127.6875,181.3438 127.4844,181.4375 127.2656,181.75 L127.0938,181.6719 Z "/><text fill="#000000" font-family="sans-serif" font-size="12" lengthAdjust="spacingAndGlyphs" textLength="25" x="145.25" y="190.1543">Grid</text><line style="stroke: #A80036; stroke-width: 1.5;" x1="8" x2="275" y1="202" y2="202"/><text fill="#000000" font-family="sans-serif" font-size="11" lengthAdjust="spacingAndGlyphs" textLength="94" x="13" y="216.2104">dimension : long</text><text fill="#000000" font-family="sans-serif" font-size="11" lengthAdjust="spacingAndGlyphs" textLength="257" x="13" y="229.0151">items : ConcurrentHashMap&lt;GridItem, Point&gt;</text><line style="stroke: #A80036; stroke-width: 1.5;" x1="8" x2="275" y1="235.6094" y2="235.6094"/><text fill="#000000" font-family="sans-serif" font-size="11" lengthAdjust="spacingAndGlyphs" textLength="187" x="13" y="249.8198">getItemLocation(GridItem) : Point</text><text fill="#000000" font-family="sans-serif" font-size="11" lengthAdjust="spacingAndGlyphs" textLength="212" x="13" y="262.6245">moveItem(GridItem, Direction) : Point</text><text fill="#000000" font-family="sans-serif" font-size="11" lengthAdjust="spacingAndGlyphs" textLength="148" x="13" y="275.4292">placeItem(GridItem, Point)</text><!--MD5=[0e127dbef936c8010d47ae8e790c2d7e]
class GridException--><rect codeLine="23" fill="#FEFECE" filter="url(#fvns38kvtvm9w)" height="48" id="GridException" style="stroke: #A80036; stroke-width: 1.5;" width="116" x="771.5" y="26"/><ellipse cx="786.5" cy="42" fill="#ADD1B2" rx="11" ry="11" style="stroke: #A80036; stroke-width: 1.0;"/><path d="M788.8438,37.6719 C787.9063,37.2344 787.3125,37.0938 786.4375,37.0938 C783.8125,37.0938 781.8125,39.1719 781.8125,41.8906 L781.8125,43.0156 C781.8125,45.5938 783.9219,47.4844 786.8125,47.4844 C788.0313,47.4844 789.1875,47.1875 789.9375,46.6406 C790.5156,46.2344 790.8438,45.7813 790.8438,45.3906 C790.8438,44.9375 790.4531,44.5469 789.9844,44.5469 C789.7656,44.5469 789.5625,44.625 789.375,44.8125 C788.9219,45.2969 788.9219,45.2969 788.7344,45.3906 C788.3125,45.6563 787.625,45.7813 786.8594,45.7813 C784.8125,45.7813 783.5156,44.6875 783.5156,42.9844 L783.5156,41.8906 C783.5156,40.1094 784.7656,38.7969 786.5,38.7969 C787.0781,38.7969 787.6875,38.9531 788.1563,39.2031 C788.6406,39.4844 788.8125,39.7031 788.9063,40.1094 C788.9688,40.5156 789,40.6406 789.1406,40.7656 C789.2813,40.9063 789.5156,41.0156 789.7344,41.0156 C790,41.0156 790.2656,40.875 790.4375,40.6563 C790.5469,40.5 790.5781,40.3125 790.5781,39.8906 L790.5781,38.4688 C790.5781,38.0313 790.5625,37.9063 790.4688,37.75 C790.3125,37.4844 790.0313,37.3438 789.7344,37.3438 C789.4375,37.3438 789.2344,37.4375 789.0156,37.75 L788.8438,37.6719 Z "/><text fill="#000000" font-family="sans-serif" font-size="12" lengthAdjust="spacingAndGlyphs" textLength="84" x="800.5" y="46.1543">GridException</text><line style="stroke: #A80036; stroke-width: 1.5;" x1="772.5" x2="886.5" y1="58" y2="58"/><line style="stroke: #A80036; stroke-width: 1.5;" x1="772.5" x2="886.5" y1="66" y2="66"/><!--MD5=[879279837df7859fbe306ab9e1a6e8b8]
class GridItem--><rect codeLine="25" fill="#FEFECE" filter="url(#fvns38kvtvm9w)" height="48" id="GridItem" style="stroke: #A80036; stroke-width: 1.5;" width="85" x="99" y="26"/><ellipse cx="114" cy="42" fill="#B4A7E5" rx="11" ry="11" style="stroke: #A80036; stroke-width: 1.0;"/><path d="M114.9531,38.7813 L116.6719,38.7813 C117.0625,38.7813 117.25,38.75 117.375,38.6719 C117.6406,38.5156 117.7813,38.2344 117.7813,37.9375 C117.7813,37.6719 117.6719,37.4063 117.4375,37.2344 C117.2656,37.125 117.125,37.0938 116.6719,37.0938 L111.5313,37.0938 C111.0938,37.0938 110.9688,37.1094 110.8125,37.2031 C110.5625,37.3594 110.4063,37.6563 110.4063,37.9375 C110.4063,38.2188 110.5469,38.4688 110.7656,38.6406 C110.9219,38.75 111.1094,38.7813 111.5313,38.7813 L113.25,38.7813 L113.25,45.2969 L111.5313,45.2969 C111.0938,45.2969 110.9688,45.3125 110.8125,45.4219 C110.5625,45.5781 110.4063,45.8594 110.4063,46.1563 C110.4063,46.4063 110.5469,46.6719 110.7656,46.8281 C110.9219,46.9531 111.125,47 111.5313,47 L116.6719,47 C117.4219,47 117.7813,46.7188 117.7813,46.1563 C117.7813,45.875 117.6719,45.625 117.4375,45.4531 C117.2656,45.3281 117.125,45.2969 116.6719,45.2969 L114.9531,45.2969 L114.9531,38.7813 Z "/><text fill="#000000" font-family="sans-serif" font-size="12" font-style="italic" lengthAdjust="spacingAndGlyphs" textLength="53" x="128" y="46.1543">GridItem</text><line style="stroke: #A80036; stroke-width: 1.5;" x1="100" x2="183" y1="58" y2="58"/><line style="stroke: #A80036; stroke-width: 1.5;" x1="100" x2="183" y1="66" y2="66"/><!--MD5=[23214962e35d4762770e8ee6c878b897]
class InvalidDimensionException--><rect codeLine="27" fill="#FEFECE" filter="url(#fvns38kvtvm9w)" height="48" id="InvalidDimensionException" style="stroke: #A80036; stroke-width: 1.5;" width="192" x="629.5" y="202"/><ellipse cx="644.5" cy="218" fill="#ADD1B2" rx="11" ry="11" style="stroke: #A80036; stroke-width: 1.0;"/><path d="M646.8438,213.6719 C645.9063,213.2344 645.3125,213.0938 644.4375,213.0938 C641.8125,213.0938 639.8125,215.1719 639.8125,217.8906 L639.8125,219.0156 C639.8125,221.5938 641.9219,223.4844 644.8125,223.4844 C646.0313,223.4844 647.1875,223.1875 647.9375,222.6406 C648.5156,222.2344 648.8438,221.7813 648.8438,221.3906 C648.8438,220.9375 648.4531,220.5469 647.9844,220.5469 C647.7656,220.5469 647.5625,220.625 647.375,220.8125 C646.9219,221.2969 646.9219,221.2969 646.7344,221.3906 C646.3125,221.6563 645.625,221.7813 644.8594,221.7813 C642.8125,221.7813 641.5156,220.6875 641.5156,218.9844 L641.5156,217.8906 C641.5156,216.1094 642.7656,214.7969 644.5,214.7969 C645.0781,214.7969 645.6875,214.9531 646.1563,215.2031 C646.6406,215.4844 646.8125,215.7031 646.9063,216.1094 C646.9688,216.5156 647,216.6406 647.1406,216.7656 C647.2813,216.9063 647.5156,217.0156 647.7344,217.0156 C648,217.0156 648.2656,216.875 648.4375,216.6563 C648.5469,216.5 648.5781,216.3125 648.5781,215.8906 L648.5781,214.4688 C648.5781,214.0313 648.5625,213.9063 648.4688,213.75 C648.3125,213.4844 648.0313,213.3438 647.7344,213.3438 C647.4375,213.3438 647.2344,213.4375 647.0156,213.75 L646.8438,213.6719 Z "/><text fill="#000000" font-family="sans-serif" font-size="12" lengthAdjust="spacingAndGlyphs" textLength="160" x="658.5" y="222.1543">InvalidDimensionException</text><line style="stroke: #A80036; stroke-width: 1.5;" x1="630.5" x2="820.5" y1="234" y2="234"/><line style="stroke: #A80036; stroke-width: 1.5;" x1="630.5" x2="820.5" y1="242" y2="242"/><!--MD5=[a8f128e6aecd92ab0fa36ad1b65150ae]
class ItemExistsException--><rect codeLine="29" fill="#FEFECE" filter="url(#fvns38kvtvm9w)" height="48" id="ItemExistsException" style="stroke: #A80036; stroke-width: 1.5;" width="152" x="856.5" y="202"/><ellipse cx="871.5" cy="218" fill="#ADD1B2" rx="11" ry="11" style="stroke: #A80036; stroke-width: 1.0;"/><path d="M873.8438,213.6719 C872.9063,213.2344 872.3125,213.0938 871.4375,213.0938 C868.8125,213.0938 866.8125,215.1719 866.8125,217.8906 L866.8125,219.0156 C866.8125,221.5938 868.9219,223.4844 871.8125,223.4844 C873.0313,223.4844 874.1875,223.1875 874.9375,222.6406 C875.5156,222.2344 875.8438,221.7813 875.8438,221.3906 C875.8438,220.9375 875.4531,220.5469 874.9844,220.5469 C874.7656,220.5469 874.5625,220.625 874.375,220.8125 C873.9219,221.2969 873.9219,221.2969 873.7344,221.3906 C873.3125,221.6563 872.625,221.7813 871.8594,221.7813 C869.8125,221.7813 868.5156,220.6875 868.5156,218.9844 L868.5156,217.8906 C868.5156,216.1094 869.7656,214.7969 871.5,214.7969 C872.0781,214.7969 872.6875,214.9531 873.1563,215.2031 C873.6406,215.4844 873.8125,215.7031 873.9063,216.1094 C873.9688,216.5156 874,216.6406 874.1406,216.7656 C874.2813,216.9063 874.5156,217.0156 874.7344,217.0156 C875,217.0156 875.2656,216.875 875.4375,216.6563 C875.5469,216.5 875.5781,216.3125 875.5781,215.8906 L875.5781,214.4688 C875.5781,214.0313 875.5625,213.9063 875.4688,213.75 C875.3125,213.4844 875.0313,213.3438 874.7344,213.3438 C874.4375,213.3438 874.2344,213.4375 874.0156,213.75 L873.8438,213.6719 Z "/><text fill="#000000" font-family="sans-serif" font-size="12" lengthAdjust="spacingAndGlyphs" textLength="120" x="885.5" y="222.1543">ItemExistsException</text><line style="stroke: #A80036; stroke-width: 1.5;" x1="857.5" x2="1007.5" y1="234" y2="234"/><line style="stroke: #A80036; stroke-width: 1.5;" x1="857.5" x2="1007.5" y1="242" y2="242"/><!--MD5=[e280e42c4df000beccca2ef91b2ec66d]
class ItemNotFoundException--><rect codeLine="31" fill="#FEFECE" filter="url(#fvns38kvtvm9w)" height="48" id="ItemNotFoundException" style="stroke: #A80036; stroke-width: 1.5;" width="174" x="1043.5" y="202"/><ellipse cx="1058.5" cy="218" fill="#ADD1B2" rx="11" ry="11" style="stroke: #A80036; stroke-width: 1.0;"/><path d="M1060.8438,213.6719 C1059.9063,213.2344 1059.3125,213.0938 1058.4375,213.0938 C1055.8125,213.0938 1053.8125,215.1719 1053.8125,217.8906 L1053.8125,219.0156 C1053.8125,221.5938 1055.9219,223.4844 1058.8125,223.4844 C1060.0313,223.4844 1061.1875,223.1875 1061.9375,222.6406 C1062.5156,222.2344 1062.8438,221.7813 1062.8438,221.3906 C1062.8438,220.9375 1062.4531,220.5469 1061.9844,220.5469 C1061.7656,220.5469 1061.5625,220.625 1061.375,220.8125 C1060.9219,221.2969 1060.9219,221.2969 1060.7344,221.3906 C1060.3125,221.6563 1059.625,221.7813 1058.8594,221.7813 C1056.8125,221.7813 1055.5156,220.6875 1055.5156,218.9844 L1055.5156,217.8906 C1055.5156,216.1094 1056.7656,214.7969 1058.5,214.7969 C1059.0781,214.7969 1059.6875,214.9531 1060.1563,215.2031 C1060.6406,215.4844 1060.8125,215.7031 1060.9063,216.1094 C1060.9688,216.5156 1061,216.6406 1061.1406,216.7656 C1061.2813,216.9063 1061.5156,217.0156 1061.7344,217.0156 C1062,217.0156 1062.2656,216.875 1062.4375,216.6563 C1062.5469,216.5 1062.5781,216.3125 1062.5781,215.8906 L1062.5781,214.4688 C1062.5781,214.0313 1062.5625,213.9063 1062.4688,213.75 C1062.3125,213.4844 1062.0313,213.3438 1061.7344,213.3438 C1061.4375,213.3438 1061.2344,213.4375 1061.0156,213.75 L1060.8438,213.6719 Z "/><text fill="#000000" font-family="sans-serif" font-size="12" lengthAdjust="spacingAndGlyphs" textLength="142" x="1072.5" y="222.1543">ItemNotFoundException</text><line style="stroke: #A80036; stroke-width: 1.5;" x1="1044.5" x2="1216.5" y1="234" y2="234"/><line style="stroke: #A80036; stroke-width: 1.5;" x1="1044.5" x2="1216.5" y1="242" y2="242"/><!--MD5=[99af92fe15be602290fbdf27fa059b79]
class Kangaroo--><rect codeLine="33" fill="#FEFECE" filter="url(#fvns38kvtvm9w)" height="86.4141" id="Kangaroo" style="stroke: #A80036; stroke-width: 1.5;" width="154" x="219.5" y="7"/><ellipse cx="263.3" cy="23" fill="#ADD1B2" rx="11" ry="11" style="stroke: #A80036; stroke-width: 1.0;"/><path d="M265.6438,18.6719 C264.7063,18.2344 264.1125,18.0938 263.2375,18.0938 C260.6125,18.0938 258.6125,20.1719 258.6125,22.8906 L258.6125,24.0156 C258.6125,26.5938 260.7219,28.4844 263.6125,28.4844 C264.8313,28.4844 265.9875,28.1875 266.7375,27.6406 C267.3156,27.2344 267.6438,26.7813 267.6438,26.3906 C267.6438,25.9375 267.2531,25.5469 266.7844,25.5469 C266.5656,25.5469 266.3625,25.625 266.175,25.8125 C265.7219,26.2969 265.7219,26.2969 265.5344,26.3906 C265.1125,26.6563 264.425,26.7813 263.6594,26.7813 C261.6125,26.7813 260.3156,25.6875 260.3156,23.9844 L260.3156,22.8906 C260.3156,21.1094 261.5656,19.7969 263.3,19.7969 C263.8781,19.7969 264.4875,19.9531 264.9563,20.2031 C265.4406,20.4844 265.6125,20.7031 265.7063,21.1094 C265.7688,21.5156 265.8,21.6406 265.9406,21.7656 C266.0813,21.9063 266.3156,22.0156 266.5344,22.0156 C266.8,22.0156 267.0656,21.875 267.2375,21.6563 C267.3469,21.5 267.3781,21.3125 267.3781,20.8906 L267.3781,19.4688 C267.3781,19.0313 267.3625,18.9063 267.2688,18.75 C267.1125,18.4844 266.8313,18.3438 266.5344,18.3438 C266.2375,18.3438 266.0344,18.4375 265.8156,18.75 L265.6438,18.6719 Z "/><text fill="#000000" font-family="sans-serif" font-size="12" lengthAdjust="spacingAndGlyphs" textLength="58" x="283.7" y="27.1543">Kangaroo</text><line style="stroke: #A80036; stroke-width: 1.5;" x1="220.5" x2="372.5" y1="39" y2="39"/><text fill="#000000" font-family="sans-serif" font-size="11" lengthAdjust="spacingAndGlyphs" textLength="49" x="225.5" y="53.2104">die : Die</text><line style="stroke: #A80036; stroke-width: 1.5;" x1="220.5" x2="372.5" y1="59.8047" y2="59.8047"/><text fill="#000000" font-family="sans-serif" font-size="11" lengthAdjust="spacingAndGlyphs" textLength="80" x="225.5" y="74.0151">chortle(String)</text><text fill="#000000" font-family="sans-serif" font-size="11" lengthAdjust="spacingAndGlyphs" textLength="142" x="225.5" y="86.8198">findHome(Grid, GridItem)</text><!--MD5=[0e39e035ce969f13118b4f90d78ee10d]
class OutOfBoundsException--><rect codeLine="39" fill="#FEFECE" filter="url(#fvns38kvtvm9w)" height="60.8047" id="OutOfBoundsException" style="stroke: #A80036; stroke-width: 1.5;" width="171" x="423" y="195.5"/><ellipse cx="438" cy="211.5" fill="#ADD1B2" rx="11" ry="11" style="stroke: #A80036; stroke-width: 1.0;"/><path d="M440.3438,207.1719 C439.4063,206.7344 438.8125,206.5938 437.9375,206.5938 C435.3125,206.5938 433.3125,208.6719 433.3125,211.3906 L433.3125,212.5156 C433.3125,215.0938 435.4219,216.9844 438.3125,216.9844 C439.5313,216.9844 440.6875,216.6875 441.4375,216.1406 C442.0156,215.7344 442.3438,215.2813 442.3438,214.8906 C442.3438,214.4375 441.9531,214.0469 441.4844,214.0469 C441.2656,214.0469 441.0625,214.125 440.875,214.3125 C440.4219,214.7969 440.4219,214.7969 440.2344,214.8906 C439.8125,215.1563 439.125,215.2813 438.3594,215.2813 C436.3125,215.2813 435.0156,214.1875 435.0156,212.4844 L435.0156,211.3906 C435.0156,209.6094 436.2656,208.2969 438,208.2969 C438.5781,208.2969 439.1875,208.4531 439.6563,208.7031 C440.1406,208.9844 440.3125,209.2031 440.4063,209.6094 C440.4688,210.0156 440.5,210.1406 440.6406,210.2656 C440.7813,210.4063 441.0156,210.5156 441.2344,210.5156 C441.5,210.5156 441.7656,210.375 441.9375,210.1563 C442.0469,210 442.0781,209.8125 442.0781,209.3906 L442.0781,207.9688 C442.0781,207.5313 442.0625,207.4063 441.9688,207.25 C441.8125,206.9844 441.5313,206.8438 441.2344,206.8438 C440.9375,206.8438 440.7344,206.9375 440.5156,207.25 L440.3438,207.1719 Z "/><text fill="#000000" font-family="sans-serif" font-size="12" lengthAdjust="spacingAndGlyphs" textLength="139" x="452" y="215.6543">OutOfBoundsException</text><line style="stroke: #A80036; stroke-width: 1.5;" x1="424" x2="593" y1="227.5" y2="227.5"/><text fill="#000000" font-family="sans-serif" font-size="11" lengthAdjust="spacingAndGlyphs" textLength="82" x="429" y="241.7104">location : Point</text><line style="stroke: #A80036; stroke-width: 1.5;" x1="424" x2="593" y1="248.3047" y2="248.3047"/><!--MD5=[972bde5337b4335dd91fa5354c932445]
class Point--><rect codeLine="43" fill="#FEFECE" filter="url(#fvns38kvtvm9w)" height="86.4141" id="Point" style="stroke: #A80036; stroke-width: 1.5;" width="186" x="108.5" y="441"/><ellipse cx="183.25" cy="457" fill="#ADD1B2" rx="11" ry="11" style="stroke: #A80036; stroke-width: 1.0;"/><path d="M185.5938,452.6719 C184.6563,452.2344 184.0625,452.0938 183.1875,452.0938 C180.5625,452.0938 178.5625,454.1719 178.5625,456.8906 L178.5625,458.0156 C178.5625,460.5938 180.6719,462.4844 183.5625,462.4844 C184.7813,462.4844 185.9375,462.1875 186.6875,461.6406 C187.2656,461.2344 187.5938,460.7813 187.5938,460.3906 C187.5938,459.9375 187.2031,459.5469 186.7344,459.5469 C186.5156,459.5469 186.3125,459.625 186.125,459.8125 C185.6719,460.2969 185.6719,460.2969 185.4844,460.3906 C185.0625,460.6563 184.375,460.7813 183.6094,460.7813 C181.5625,460.7813 180.2656,459.6875 180.2656,457.9844 L180.2656,456.8906 C180.2656,455.1094 181.5156,453.7969 183.25,453.7969 C183.8281,453.7969 184.4375,453.9531 184.9063,454.2031 C185.3906,454.4844 185.5625,454.7031 185.6563,455.1094 C185.7188,455.5156 185.75,455.6406 185.8906,455.7656 C186.0313,455.9063 186.2656,456.0156 186.4844,456.0156 C186.75,456.0156 187.0156,455.875 187.1875,455.6563 C187.2969,455.5 187.3281,455.3125 187.3281,454.8906 L187.3281,453.4688 C187.3281,453.0313 187.3125,452.9063 187.2188,452.75 C187.0625,452.4844 186.7813,452.3438 186.4844,452.3438 C186.1875,452.3438 185.9844,452.4375 185.7656,452.75 L185.5938,452.6719 Z "/><text fill="#000000" font-family="sans-serif" font-size="12" lengthAdjust="spacingAndGlyphs" textLength="28" x="203.75" y="461.1543">Point</text><line style="stroke: #A80036; stroke-width: 1.5;" x1="109.5" x2="293.5" y1="473" y2="473"/><text fill="#000000" font-family="sans-serif" font-size="11" lengthAdjust="spacingAndGlyphs" textLength="42" x="114.5" y="487.2104">x : long</text><text fill="#000000" font-family="sans-serif" font-size="11" lengthAdjust="spacingAndGlyphs" textLength="42" x="114.5" y="500.0151">y : long</text><line style="stroke: #A80036; stroke-width: 1.5;" x1="109.5" x2="293.5" y1="506.6094" y2="506.6094"/><text fill="#000000" font-family="sans-serif" font-size="11" lengthAdjust="spacingAndGlyphs" textLength="174" x="114.5" y="520.8198">getNeighbour(Direction) : Point</text><!--MD5=[013253d5218ff30f69dcd89083a973fd]
link Die to Direction--><path codeLine="49" d="M331.731,411.267 C331.502,445.089 327.577,490.445 311.5,527 C297.218,559.475 271.432,589.596 248.414,612.1855 " fill="none" id="Die-to-Direction" style="stroke: #A80036; stroke-width: 1.0;"/><polygon fill="#A80036" points="244.746,615.7454,253.9907,612.349,248.3345,612.2636,248.4199,606.6074,244.746,615.7454" style="stroke: #A80036; stroke-width: 1.0;"/><text fill="#000000" font-family="sans-serif" font-size="13" lengthAdjust="spacingAndGlyphs" textLength="44" x="331.5" y="488.5669">history</text><!--MD5=[9d8223f77a75a3e7ccef8490b51c2dc7]
link Grid to Direction--><path codeLine="50" d="M106.5034,282.151 C72.1715,343.721 29.7761,445.424 65.5,527 C83.5079,568.121 122.373,601.741 153.963,623.7979 " fill="none" id="Grid-to-Direction" style="stroke: #A80036; stroke-width: 1.0;"/><polygon fill="#A80036" points="158.171,626.6985,153.0321,618.2966,154.0546,623.8603,148.491,624.8828,158.171,626.6985" style="stroke: #A80036; stroke-width: 1.0;"/><text fill="#000000" font-family="sans-serif" font-size="13" lengthAdjust="spacingAndGlyphs" textLength="23" x="66.5" y="488.5669">use</text><!--MD5=[56bfbbb4b8447253f62f0484941b8dda]
reverse link GridException to InvalidDimensionException--><path codeLine="51" d="M805.275,91.53 C784.794,125.796 756.178,173.674 739.368,201.799 " fill="none" id="GridException-backto-InvalidDimensionException" style="stroke: #A80036; stroke-width: 1.0;"/><polygon fill="none" points="799.42,87.682,815.69,74.106,811.437,94.864,799.42,87.682" style="stroke: #A80036; stroke-width: 1.0;"/><!--MD5=[6b8686e3f505477d629665614a2a2b08]
reverse link GridException to ItemExistsException--><path codeLine="52" d="M853.492,91.53 C873.776,125.796 902.117,173.674 918.766,201.799 " fill="none" id="GridException-backto-ItemExistsException" style="stroke: #A80036; stroke-width: 1.0;"/><polygon fill="none" points="847.342,94.882,843.178,74.106,859.389,87.751,847.342,94.882" style="stroke: #A80036; stroke-width: 1.0;"/><!--MD5=[10c2b14fd4f4e98f0af482bec29e75c1]
reverse link GridException to ItemNotFoundException--><path codeLine="53" d="M886.851,84.153 C946.43,118.594 1038.11,171.591 1090.36,201.799 " fill="none" id="GridException-backto-ItemNotFoundException" style="stroke: #A80036; stroke-width: 1.0;"/><polygon fill="none" points="883.282,90.176,869.47,74.106,890.289,78.055,883.282,90.176" style="stroke: #A80036; stroke-width: 1.0;"/><!--MD5=[78e0c1c83500dbbd7eba5b7ca2ad15b3]
reverse link GridException to OutOfBoundsException--><path codeLine="54" d="M769.156,83.71 C709.906,115.827 620.324,164.385 563.127,195.389 " fill="none" id="GridException-backto-OutOfBoundsException" style="stroke: #A80036; stroke-width: 1.0;"/><polygon fill="none" points="765.955,77.483,786.874,74.106,772.627,89.791,765.955,77.483" style="stroke: #A80036; stroke-width: 1.0;"/><!--MD5=[2aea775689b610c44aab7527815acb07]
link Grid to GridItem--><path codeLine="55" d="M141.5,169.898 C141.5,139.715 141.5,103.588 141.5,79.139 " fill="none" id="Grid-to-GridItem" style="stroke: #A80036; stroke-width: 1.0;"/><polygon fill="#A80036" points="141.5,74.106,137.5,83.106,141.5,79.106,145.5,83.106,141.5,74.106" style="stroke: #A80036; stroke-width: 1.0;"/><text fill="#000000" font-family="sans-serif" font-size="13" lengthAdjust="spacingAndGlyphs" textLength="36" x="142.5" y="136.0669">items</text><!--MD5=[965a28dbc466274f4b2c0b80bcc1e2e1]
link GridItem to Kangaroo--><path codeLine="56" d="M189.395,50 C197.646,50 205.896,50 214.147,50 " fill="none" id="GridItem-Kangaroo" style="stroke: #A80036; stroke-width: 1.0;"/><polygon fill="#A80036" points="219.284,50,210.284,46,214.284,50,210.284,54,219.284,50" style="stroke: #A80036; stroke-width: 1.0;"/><polygon fill="#A80036" points="184.186,50,193.186,54,189.186,50,193.186,46,184.186,50" style="stroke: #A80036; stroke-width: 1.0;"/><!--MD5=[4fbd77cec8d4c5287a534012e2cc45ad]
link Grid to Point--><path codeLine="57" d="M128.659,282.04 C122.503,319.637 119.51,369.894 135.5,411 C139.027,420.067 144.288,428.687 150.329,436.604 " fill="none" id="Grid-to-Point" style="stroke: #A80036; stroke-width: 1.0;"/><polygon fill="#A80036" points="153.76,440.928,151.2986,431.3917,150.6519,437.0114,145.0321,436.3647,153.76,440.928" style="stroke: #A80036; stroke-width: 1.0;"/><text fill="#000000" font-family="sans-serif" font-size="13" lengthAdjust="spacingAndGlyphs" textLength="36" x="136.5" y="366.0669">items</text><!--MD5=[26460278a18ad98bf880c1566f91ea35]
link Kangaroo to Die--><path codeLine="58" d="M300.985,93.063 C306.898,148.525 317.309,246.165 323.782,306.873 " fill="none" id="Kangaroo-to-Die" style="stroke: #A80036; stroke-width: 1.0;"/><polygon fill="#A80036" points="324.318,311.903,327.3414,302.5297,323.788,306.9312,319.3865,303.3777,324.318,311.903" style="stroke: #A80036; stroke-width: 1.0;"/><text fill="#000000" font-family="sans-serif" font-size="13" lengthAdjust="spacingAndGlyphs" textLength="19" x="306.5" y="136.0669">die</text><!--MD5=[034162ca823c773e3da018882996f896]
link Kangaroo to Grid--><path codeLine="59" d="M258.979,93.121 C239.503,114.983 215.39,142.053 194.086,165.967 " fill="none" id="Kangaroo-to-Grid" style="stroke: #A80036; stroke-width: 1.0;"/><polygon fill="#A80036" points="190.693,169.777,199.6665,165.718,194.0191,166.0437,193.6933,160.3963,190.693,169.777" style="stroke: #A80036; stroke-width: 1.0;"/><text fill="#000000" font-family="sans-serif" font-size="13" lengthAdjust="spacingAndGlyphs" textLength="23" x="229.5" y="136.0669">use</text><!--MD5=[e7a919e86086248a83f398652b7962a2]
link OutOfBoundsException to Point--><path codeLine="60" d="M511.36,256.783 C513.496,297.519 510.666,370.198 469.5,411 C421.832,458.247 386.214,423.206 321.5,441 C314.41,442.949 307.134,445.103 299.839,447.374 " fill="none" id="OutOfBoundsException-to-Point" style="stroke: #A80036; stroke-width: 1.0;"/><polygon fill="#A80036" points="294.788,448.964,304.5737,450.0773,299.5573,447.4628,302.1718,442.4464,294.788,448.964" style="stroke: #A80036; stroke-width: 1.0;"/><text fill="#000000" font-family="sans-serif" font-size="13" lengthAdjust="spacingAndGlyphs" textLength="50" x="511.5" y="366.0669">location</text><!--MD5=[df91dbdaee43870a372b060a39559f7e]
link Point to Direction--><path codeLine="61" d="M201.5,527.267 C201.5,548.891 201.5,575.452 201.5,598.539 " fill="none" id="Point-to-Direction" style="stroke: #A80036; stroke-width: 1.0;"/><polygon fill="#A80036" points="201.5,603.7145,205.5,594.7145,201.5,598.7145,197.5,594.7145,201.5,603.7145" style="stroke: #A80036; stroke-width: 1.0;"/><text fill="#000000" font-family="sans-serif" font-size="13" lengthAdjust="spacingAndGlyphs" textLength="23" x="202.5" y="570.0669">use</text><!--MD5=[0f3096d7144d765405253b07ccec0e74]
@startuml
class "Die" {
  history : ConcurrentHashMap<Direction, Long>
  random : Random
  printStats()
  roll() : Direction
}

enum "Direction" {
  NORTH
  EAST
  SOUTH
  WEST
}

class "Grid" {
  dimension : long
  items : ConcurrentHashMap<GridItem, Point>
  getItemLocation(GridItem) : Point
  moveItem(GridItem, Direction) : Point
  placeItem(GridItem, Point)
}

class "GridException"

interface "GridItem"

class "InvalidDimensionException"

class "ItemExistsException"

class "ItemNotFoundException"

class "Kangaroo" {
  die : Die
  chortle(String)
  findHome(Grid, GridItem)
}

class "OutOfBoundsException" {
  location : Point
}

class "Point" {
  x : long
  y : long
  getNeighbour(Direction) : Point
}

"Die" - -> "Direction" : history
"Grid" - -> "Direction" : use
"GridException" <|- - "InvalidDimensionException"
"GridException" <|- - "ItemExistsException"
"GridException" <|- - "ItemNotFoundException"
"GridException" <|- - "OutOfBoundsException"
"Grid" - -> "GridItem" : items
"GridItem" <-> "Kangaroo"
"Grid" - -> "Point" : items
"Kangaroo" - -> "Die" : die
"Kangaroo" - -> "Grid" : use
"OutOfBoundsException" - -> "Point" : location
"Point" - -> "Direction" : use
@enduml

PlantUML version 1.2020.17beta5(Unknown compile time)
(GPL source distribution)
Java Runtime: Java(TM) SE Runtime Environment
JVM: Java HotSpot(TM) 64-Bit Server VM
Default Encoding: UTF-8
Language: en
Country: US
--></g></svg>