<?xml version="1.0" encoding="UTF-8" standalone="no"?><svg xmlns="http://www.w3.org/2000/svg" xmlns:xlink="http://www.w3.org/1999/xlink" contentScriptType="application/ecmascript" contentStyleType="text/css" height="961px" preserveAspectRatio="none" style="width:913px;height:961px;" version="1.1" viewBox="0 0 913 961" width="913px" zoomAndPan="magnify"><defs><filter height="300%" id="fpcszix9biaow" width="300%" x="-1" y="-1"><feGaussianBlur result="blurOut" stdDeviation="2.0"/><feColorMatrix in="blurOut" result="blurOut2" type="matrix" values="0 0 0 0 0 0 0 0 0 0 0 0 0 0 0 0 0 0 .4 0"/><feOffset dx="4.0" dy="4.0" in="blurOut2" result="blurOut3"/><feBlend in="SourceGraphic" in2="blurOut3" mode="normal"/></filter></defs><g><!--MD5=[cf2e9fab6bcdfe5ca02b2607bfaaecaa]
class Die--><rect codeLine="3" fill="#FEFECE" filter="url(#fpcszix9biaow)" height="112.0234" id="Die" style="stroke: #A80036; stroke-width: 1.5;" width="188" x="7" y="654"/><ellipse cx="86.75" cy="670" fill="#ADD1B2" rx="11" ry="11" style="stroke: #A80036; stroke-width: 1.0;"/><path d="M89.0938,665.6719 C88.1563,665.2344 87.5625,665.0938 86.6875,665.0938 C84.0625,665.0938 82.0625,667.1719 82.0625,669.8906 L82.0625,671.0156 C82.0625,673.5938 84.1719,675.4844 87.0625,675.4844 C88.2813,675.4844 89.4375,675.1875 90.1875,674.6406 C90.7656,674.2344 91.0938,673.7813 91.0938,673.3906 C91.0938,672.9375 90.7031,672.5469 90.2344,672.5469 C90.0156,672.5469 89.8125,672.625 89.625,672.8125 C89.1719,673.2969 89.1719,673.2969 88.9844,673.3906 C88.5625,673.6563 87.875,673.7813 87.1094,673.7813 C85.0625,673.7813 83.7656,672.6875 83.7656,670.9844 L83.7656,669.8906 C83.7656,668.1094 85.0156,666.7969 86.75,666.7969 C87.3281,666.7969 87.9375,666.9531 88.4063,667.2031 C88.8906,667.4844 89.0625,667.7031 89.1563,668.1094 C89.2188,668.5156 89.25,668.6406 89.3906,668.7656 C89.5313,668.9063 89.7656,669.0156 89.9844,669.0156 C90.25,669.0156 90.5156,668.875 90.6875,668.6563 C90.7969,668.5 90.8281,668.3125 90.8281,667.8906 L90.8281,666.4688 C90.8281,666.0313 90.8125,665.9063 90.7188,665.75 C90.5625,665.4844 90.2813,665.3438 89.9844,665.3438 C89.6875,665.3438 89.4844,665.4375 89.2656,665.75 L89.0938,665.6719 Z "/><text fill="#000000" font-family="sans-serif" font-size="12" lengthAdjust="spacingAndGlyphs" textLength="20" x="107.25" y="674.1543">Die</text><line style="stroke: #A80036; stroke-width: 1.5;" x1="8" x2="194" y1="686" y2="686"/><text fill="#000000" font-family="sans-serif" font-size="11" lengthAdjust="spacingAndGlyphs" text-decoration="underline" textLength="79" x="13" y="700.2104">-instance: Die</text><text fill="#000000" font-family="sans-serif" font-size="11" lengthAdjust="spacingAndGlyphs" textLength="176" x="13" y="713.0151">-history : Map&lt;Direction, long&gt;</text><text fill="#000000" font-family="sans-serif" font-size="11" lengthAdjust="spacingAndGlyphs" textLength="104" x="13" y="725.8198">-random : Random</text><line style="stroke: #A80036; stroke-width: 1.5;" x1="8" x2="194" y1="732.4141" y2="732.4141"/><text fill="#000000" font-family="sans-serif" font-size="11" lengthAdjust="spacingAndGlyphs" textLength="67" x="13" y="746.6245">+print_stats</text><text fill="#000000" font-family="sans-serif" font-size="11" lengthAdjust="spacingAndGlyphs" textLength="88" x="13" y="759.4292">+roll : Direction</text><!--MD5=[02f7077ed79257124e28b791f351f1d7]
class Direction--><rect codeLine="11" fill="#FEFECE" filter="url(#fpcszix9biaow)" height="99.2188" id="Direction" style="stroke: #A80036; stroke-width: 1.5;" width="86" x="289" y="843"/><ellipse cx="304" cy="859" fill="#EB937F" rx="11" ry="11" style="stroke: #A80036; stroke-width: 1.0;"/><path d="M302.7969,859.875 L304.25,859.875 L304.25,859.9844 C304.25,860.3906 304.2813,860.5469 304.3594,860.7031 C304.5156,860.9531 304.7969,861.1094 305.0938,861.1094 C305.3438,861.1094 305.6094,860.9688 305.7656,860.75 C305.8906,860.5938 305.9219,860.4375 305.9219,859.9844 L305.9219,858.0625 C305.9219,857.9063 305.9219,857.8594 305.9063,857.7031 C305.8438,857.2344 305.5313,856.9219 305.0781,856.9219 C304.8281,856.9219 304.5625,857.0625 304.3906,857.2813 C304.2813,857.4531 304.25,857.6094 304.25,858.0625 L304.25,858.1875 L302.7969,858.1875 L302.7969,855.7813 L306.7813,855.7813 L306.7813,856.6406 C306.7813,857.0469 306.8125,857.2188 306.8906,857.375 C307.0625,857.625 307.3438,857.7813 307.625,857.7813 C307.8906,857.7813 308.1563,857.6406 308.3281,857.4219 C308.4375,857.25 308.4688,857.1094 308.4688,856.6406 L308.4688,854.0938 L300.8438,854.0938 C300.4063,854.0938 300.2813,854.1094 300.125,854.2031 C299.875,854.3594 299.7188,854.6563 299.7188,854.9375 C299.7188,855.2188 299.8594,855.4688 300.0781,855.6406 C300.2344,855.75 300.4219,855.7813 300.8438,855.7813 L301.0938,855.7813 L301.0938,862.2969 L300.8438,862.2969 C300.4375,862.2969 300.2813,862.3125 300.125,862.4219 C299.875,862.5938 299.7188,862.8594 299.7188,863.1563 C299.7188,863.4219 299.8594,863.6719 300.0781,863.8281 C300.2188,863.9531 300.4531,864 300.8438,864 L308.8438,864 L308.8438,861.4219 C308.8438,860.9844 308.8125,860.8438 308.7344,860.6875 C308.5625,860.4375 308.2813,860.2813 308,860.2813 C307.7344,860.2813 307.4688,860.3906 307.2969,860.6406 C307.1875,860.7969 307.1563,860.9375 307.1563,861.4219 L307.1563,862.2969 L302.7969,862.2969 L302.7969,859.875 Z "/><text fill="#000000" font-family="sans-serif" font-size="12" lengthAdjust="spacingAndGlyphs" textLength="54" x="318" y="863.1543">Direction</text><line style="stroke: #A80036; stroke-width: 1.5;" x1="290" x2="374" y1="875" y2="875"/><text fill="#000000" font-family="sans-serif" font-size="11" lengthAdjust="spacingAndGlyphs" textLength="48" x="295" y="889.2104">+NORTH</text><text fill="#000000" font-family="sans-serif" font-size="11" lengthAdjust="spacingAndGlyphs" textLength="39" x="295" y="902.0151">+EAST</text><text fill="#000000" font-family="sans-serif" font-size="11" lengthAdjust="spacingAndGlyphs" textLength="49" x="295" y="914.8198">+SOUTH</text><text fill="#000000" font-family="sans-serif" font-size="11" lengthAdjust="spacingAndGlyphs" textLength="42" x="295" y="927.6245">+WEST</text><line style="stroke: #A80036; stroke-width: 1.5;" x1="290" x2="374" y1="934.2188" y2="934.2188"/><!--MD5=[1f24f7b92150e3316908f7910ce81742]
class Grid--><rect codeLine="18" fill="#FEFECE" filter="url(#fpcszix9biaow)" height="112.0234" id="Grid" style="stroke: #A80036; stroke-width: 1.5;" width="239" x="136.5" y="129"/><ellipse cx="239.25" cy="145" fill="#ADD1B2" rx="11" ry="11" style="stroke: #A80036; stroke-width: 1.0;"/><path d="M241.5938,140.6719 C240.6563,140.2344 240.0625,140.0938 239.1875,140.0938 C236.5625,140.0938 234.5625,142.1719 234.5625,144.8906 L234.5625,146.0156 C234.5625,148.5938 236.6719,150.4844 239.5625,150.4844 C240.7813,150.4844 241.9375,150.1875 242.6875,149.6406 C243.2656,149.2344 243.5938,148.7813 243.5938,148.3906 C243.5938,147.9375 243.2031,147.5469 242.7344,147.5469 C242.5156,147.5469 242.3125,147.625 242.125,147.8125 C241.6719,148.2969 241.6719,148.2969 241.4844,148.3906 C241.0625,148.6563 240.375,148.7813 239.6094,148.7813 C237.5625,148.7813 236.2656,147.6875 236.2656,145.9844 L236.2656,144.8906 C236.2656,143.1094 237.5156,141.7969 239.25,141.7969 C239.8281,141.7969 240.4375,141.9531 240.9063,142.2031 C241.3906,142.4844 241.5625,142.7031 241.6563,143.1094 C241.7188,143.5156 241.75,143.6406 241.8906,143.7656 C242.0313,143.9063 242.2656,144.0156 242.4844,144.0156 C242.75,144.0156 243.0156,143.875 243.1875,143.6563 C243.2969,143.5 243.3281,143.3125 243.3281,142.8906 L243.3281,141.4688 C243.3281,141.0313 243.3125,140.9063 243.2188,140.75 C243.0625,140.4844 242.7813,140.3438 242.4844,140.3438 C242.1875,140.3438 241.9844,140.4375 241.7656,140.75 L241.5938,140.6719 Z "/><text fill="#000000" font-family="sans-serif" font-size="12" lengthAdjust="spacingAndGlyphs" textLength="25" x="259.75" y="149.1543">Grid</text><line style="stroke: #A80036; stroke-width: 1.5;" x1="137.5" x2="374.5" y1="161" y2="161"/><text fill="#000000" font-family="sans-serif" font-size="11" lengthAdjust="spacingAndGlyphs" textLength="98" x="142.5" y="175.2104">-dimension : long</text><text fill="#000000" font-family="sans-serif" font-size="11" lengthAdjust="spacingAndGlyphs" textLength="171" x="142.5" y="188.0151">-items : Map&lt;GridItem, Point&gt;</text><line style="stroke: #A80036; stroke-width: 1.5;" x1="137.5" x2="374.5" y1="194.6094" y2="194.6094"/><text fill="#000000" font-family="sans-serif" font-size="11" lengthAdjust="spacingAndGlyphs" textLength="205" x="142.5" y="208.8198">+get_item_location(GridItem) : Point</text><text fill="#000000" font-family="sans-serif" font-size="11" lengthAdjust="spacingAndGlyphs" textLength="227" x="142.5" y="221.6245">+move_item(GridItem, Direction) : Point</text><text fill="#000000" font-family="sans-serif" font-size="11" lengthAdjust="spacingAndGlyphs" textLength="163" x="142.5" y="234.4292">+place_item(GridItem, Point)</text><!--MD5=[072a6c458e8d6cf1d9d8102085674625]
class StandardError--><rect codeLine="26" fill="#FEFECE" filter="url(#fpcszix9biaow)" height="60.8047" id="StandardError" style="stroke: #A80036; stroke-width: 1.5;" width="118" x="594" y="7"/><ellipse cx="609.9" cy="23" fill="#ADD1B2" rx="11" ry="11" style="stroke: #A80036; stroke-width: 1.0;"/><path d="M612.2438,18.6719 C611.3063,18.2344 610.7125,18.0938 609.8375,18.0938 C607.2125,18.0938 605.2125,20.1719 605.2125,22.8906 L605.2125,24.0156 C605.2125,26.5938 607.3219,28.4844 610.2125,28.4844 C611.4313,28.4844 612.5875,28.1875 613.3375,27.6406 C613.9156,27.2344 614.2438,26.7813 614.2438,26.3906 C614.2438,25.9375 613.8531,25.5469 613.3844,25.5469 C613.1656,25.5469 612.9625,25.625 612.775,25.8125 C612.3219,26.2969 612.3219,26.2969 612.1344,26.3906 C611.7125,26.6563 611.025,26.7813 610.2594,26.7813 C608.2125,26.7813 606.9156,25.6875 606.9156,23.9844 L606.9156,22.8906 C606.9156,21.1094 608.1656,19.7969 609.9,19.7969 C610.4781,19.7969 611.0875,19.9531 611.5563,20.2031 C612.0406,20.4844 612.2125,20.7031 612.3063,21.1094 C612.3688,21.5156 612.4,21.6406 612.5406,21.7656 C612.6813,21.9063 612.9156,22.0156 613.1344,22.0156 C613.4,22.0156 613.6656,21.875 613.8375,21.6563 C613.9469,21.5 613.9781,21.3125 613.9781,20.8906 L613.9781,19.4688 C613.9781,19.0313 613.9625,18.9063 613.8688,18.75 C613.7125,18.4844 613.4313,18.3438 613.1344,18.3438 C612.8375,18.3438 612.6344,18.4375 612.4156,18.75 L612.2438,18.6719 Z "/><text fill="#000000" font-family="sans-serif" font-size="12" lengthAdjust="spacingAndGlyphs" textLength="84" x="624.1" y="27.1543">StandardError</text><line style="stroke: #A80036; stroke-width: 1.5;" x1="595" x2="711" y1="39" y2="39"/><text fill="#000000" font-family="sans-serif" font-size="11" lengthAdjust="spacingAndGlyphs" textLength="106" x="600" y="53.2104">+message : String</text><line style="stroke: #A80036; stroke-width: 1.5;" x1="595" x2="711" y1="59.8047" y2="59.8047"/><!--MD5=[879279837df7859fbe306ab9e1a6e8b8]
class GridItem--><rect codeLine="30" fill="#FEFECE" filter="url(#fpcszix9biaow)" height="48" id="GridItem" style="stroke: #A80036; stroke-width: 1.5;" width="85" x="98.5" y="350"/><ellipse cx="113.5" cy="366" fill="#B4A7E5" rx="11" ry="11" style="stroke: #A80036; stroke-width: 1.0;"/><path d="M114.4531,362.7813 L116.1719,362.7813 C116.5625,362.7813 116.75,362.75 116.875,362.6719 C117.1406,362.5156 117.2813,362.2344 117.2813,361.9375 C117.2813,361.6719 117.1719,361.4063 116.9375,361.2344 C116.7656,361.125 116.625,361.0938 116.1719,361.0938 L111.0313,361.0938 C110.5938,361.0938 110.4688,361.1094 110.3125,361.2031 C110.0625,361.3594 109.9063,361.6563 109.9063,361.9375 C109.9063,362.2188 110.0469,362.4688 110.2656,362.6406 C110.4219,362.75 110.6094,362.7813 111.0313,362.7813 L112.75,362.7813 L112.75,369.2969 L111.0313,369.2969 C110.5938,369.2969 110.4688,369.3125 110.3125,369.4219 C110.0625,369.5781 109.9063,369.8594 109.9063,370.1563 C109.9063,370.4063 110.0469,370.6719 110.2656,370.8281 C110.4219,370.9531 110.625,371 111.0313,371 L116.1719,371 C116.9219,371 117.2813,370.7188 117.2813,370.1563 C117.2813,369.875 117.1719,369.625 116.9375,369.4531 C116.7656,369.3281 116.625,369.2969 116.1719,369.2969 L114.4531,369.2969 L114.4531,362.7813 Z "/><text fill="#000000" font-family="sans-serif" font-size="12" font-style="italic" lengthAdjust="spacingAndGlyphs" textLength="53" x="127.5" y="370.1543">GridItem</text><line style="stroke: #A80036; stroke-width: 1.5;" x1="99.5" x2="182.5" y1="382" y2="382"/><line style="stroke: #A80036; stroke-width: 1.5;" x1="99.5" x2="182.5" y1="390" y2="390"/><!--MD5=[01d3c7e2bb09bf0271d3c45705608669]
class ItemExistsError--><rect codeLine="32" fill="#FEFECE" filter="url(#fpcszix9biaow)" height="48" id="ItemExistsError" style="stroke: #A80036; stroke-width: 1.5;" width="123" x="591.5" y="161"/><ellipse cx="606.5" cy="177" fill="#ADD1B2" rx="11" ry="11" style="stroke: #A80036; stroke-width: 1.0;"/><path d="M608.8438,172.6719 C607.9063,172.2344 607.3125,172.0938 606.4375,172.0938 C603.8125,172.0938 601.8125,174.1719 601.8125,176.8906 L601.8125,178.0156 C601.8125,180.5938 603.9219,182.4844 606.8125,182.4844 C608.0313,182.4844 609.1875,182.1875 609.9375,181.6406 C610.5156,181.2344 610.8438,180.7813 610.8438,180.3906 C610.8438,179.9375 610.4531,179.5469 609.9844,179.5469 C609.7656,179.5469 609.5625,179.625 609.375,179.8125 C608.9219,180.2969 608.9219,180.2969 608.7344,180.3906 C608.3125,180.6563 607.625,180.7813 606.8594,180.7813 C604.8125,180.7813 603.5156,179.6875 603.5156,177.9844 L603.5156,176.8906 C603.5156,175.1094 604.7656,173.7969 606.5,173.7969 C607.0781,173.7969 607.6875,173.9531 608.1563,174.2031 C608.6406,174.4844 608.8125,174.7031 608.9063,175.1094 C608.9688,175.5156 609,175.6406 609.1406,175.7656 C609.2813,175.9063 609.5156,176.0156 609.7344,176.0156 C610,176.0156 610.2656,175.875 610.4375,175.6563 C610.5469,175.5 610.5781,175.3125 610.5781,174.8906 L610.5781,173.4688 C610.5781,173.0313 610.5625,172.9063 610.4688,172.75 C610.3125,172.4844 610.0313,172.3438 609.7344,172.3438 C609.4375,172.3438 609.2344,172.4375 609.0156,172.75 L608.8438,172.6719 Z "/><text fill="#000000" font-family="sans-serif" font-size="12" lengthAdjust="spacingAndGlyphs" textLength="91" x="620.5" y="181.1543">ItemExistsError</text><line style="stroke: #A80036; stroke-width: 1.5;" x1="592.5" x2="713.5" y1="193" y2="193"/><line style="stroke: #A80036; stroke-width: 1.5;" x1="592.5" x2="713.5" y1="201" y2="201"/><!--MD5=[4ec8421c6cadbf0780199dae92149fb6]
class ItemNotFoundError--><rect codeLine="34" fill="#FEFECE" filter="url(#fpcszix9biaow)" height="48" id="ItemNotFoundError" style="stroke: #A80036; stroke-width: 1.5;" width="145" x="749.5" y="161"/><ellipse cx="764.5" cy="177" fill="#ADD1B2" rx="11" ry="11" style="stroke: #A80036; stroke-width: 1.0;"/><path d="M766.8438,172.6719 C765.9063,172.2344 765.3125,172.0938 764.4375,172.0938 C761.8125,172.0938 759.8125,174.1719 759.8125,176.8906 L759.8125,178.0156 C759.8125,180.5938 761.9219,182.4844 764.8125,182.4844 C766.0313,182.4844 767.1875,182.1875 767.9375,181.6406 C768.5156,181.2344 768.8438,180.7813 768.8438,180.3906 C768.8438,179.9375 768.4531,179.5469 767.9844,179.5469 C767.7656,179.5469 767.5625,179.625 767.375,179.8125 C766.9219,180.2969 766.9219,180.2969 766.7344,180.3906 C766.3125,180.6563 765.625,180.7813 764.8594,180.7813 C762.8125,180.7813 761.5156,179.6875 761.5156,177.9844 L761.5156,176.8906 C761.5156,175.1094 762.7656,173.7969 764.5,173.7969 C765.0781,173.7969 765.6875,173.9531 766.1563,174.2031 C766.6406,174.4844 766.8125,174.7031 766.9063,175.1094 C766.9688,175.5156 767,175.6406 767.1406,175.7656 C767.2813,175.9063 767.5156,176.0156 767.7344,176.0156 C768,176.0156 768.2656,175.875 768.4375,175.6563 C768.5469,175.5 768.5781,175.3125 768.5781,174.8906 L768.5781,173.4688 C768.5781,173.0313 768.5625,172.9063 768.4688,172.75 C768.3125,172.4844 768.0313,172.3438 767.7344,172.3438 C767.4375,172.3438 767.2344,172.4375 767.0156,172.75 L766.8438,172.6719 Z "/><text fill="#000000" font-family="sans-serif" font-size="12" lengthAdjust="spacingAndGlyphs" textLength="113" x="778.5" y="181.1543">ItemNotFoundError</text><line style="stroke: #A80036; stroke-width: 1.5;" x1="750.5" x2="893.5" y1="193" y2="193"/><line style="stroke: #A80036; stroke-width: 1.5;" x1="750.5" x2="893.5" y1="201" y2="201"/><!--MD5=[99af92fe15be602290fbdf27fa059b79]
class Kangaroo--><rect codeLine="36" fill="#FEFECE" filter="url(#fpcszix9biaow)" height="86.4141" id="Kangaroo" style="stroke: #A80036; stroke-width: 1.5;" width="168" x="57" y="491"/><ellipse cx="107.75" cy="507" fill="#ADD1B2" rx="11" ry="11" style="stroke: #A80036; stroke-width: 1.0;"/><path d="M110.0938,502.6719 C109.1563,502.2344 108.5625,502.0938 107.6875,502.0938 C105.0625,502.0938 103.0625,504.1719 103.0625,506.8906 L103.0625,508.0156 C103.0625,510.5938 105.1719,512.4844 108.0625,512.4844 C109.2813,512.4844 110.4375,512.1875 111.1875,511.6406 C111.7656,511.2344 112.0938,510.7813 112.0938,510.3906 C112.0938,509.9375 111.7031,509.5469 111.2344,509.5469 C111.0156,509.5469 110.8125,509.625 110.625,509.8125 C110.1719,510.2969 110.1719,510.2969 109.9844,510.3906 C109.5625,510.6563 108.875,510.7813 108.1094,510.7813 C106.0625,510.7813 104.7656,509.6875 104.7656,507.9844 L104.7656,506.8906 C104.7656,505.1094 106.0156,503.7969 107.75,503.7969 C108.3281,503.7969 108.9375,503.9531 109.4063,504.2031 C109.8906,504.4844 110.0625,504.7031 110.1563,505.1094 C110.2188,505.5156 110.25,505.6406 110.3906,505.7656 C110.5313,505.9063 110.7656,506.0156 110.9844,506.0156 C111.25,506.0156 111.5156,505.875 111.6875,505.6563 C111.7969,505.5 111.8281,505.3125 111.8281,504.8906 L111.8281,503.4688 C111.8281,503.0313 111.8125,502.9063 111.7188,502.75 C111.5625,502.4844 111.2813,502.3438 110.9844,502.3438 C110.6875,502.3438 110.4844,502.4375 110.2656,502.75 L110.0938,502.6719 Z "/><text fill="#000000" font-family="sans-serif" font-size="12" lengthAdjust="spacingAndGlyphs" textLength="58" x="128.25" y="511.1543">Kangaroo</text><line style="stroke: #A80036; stroke-width: 1.5;" x1="58" x2="224" y1="523" y2="523"/><text fill="#000000" font-family="sans-serif" font-size="11" lengthAdjust="spacingAndGlyphs" textLength="53" x="63" y="537.2104">-die : Die</text><line style="stroke: #A80036; stroke-width: 1.5;" x1="58" x2="224" y1="543.8047" y2="543.8047"/><text fill="#000000" font-family="sans-serif" font-size="11" lengthAdjust="spacingAndGlyphs" textLength="89" x="63" y="558.0151">+chortle(String)</text><text fill="#000000" font-family="sans-serif" font-size="11" lengthAdjust="spacingAndGlyphs" textLength="156" x="63" y="570.8198">+find_home(Grid, GridItem)</text><!--MD5=[a22f837d8ceaa7654d5241ae8b3cb7d5]
class OutOfBoundsError--><rect codeLine="42" fill="#FEFECE" filter="url(#fpcszix9biaow)" height="60.8047" id="OutOfBoundsError" style="stroke: #A80036; stroke-width: 1.5;" width="142" x="414" y="154.5"/><ellipse cx="429" cy="170.5" fill="#ADD1B2" rx="11" ry="11" style="stroke: #A80036; stroke-width: 1.0;"/><path d="M431.3438,166.1719 C430.4063,165.7344 429.8125,165.5938 428.9375,165.5938 C426.3125,165.5938 424.3125,167.6719 424.3125,170.3906 L424.3125,171.5156 C424.3125,174.0938 426.4219,175.9844 429.3125,175.9844 C430.5313,175.9844 431.6875,175.6875 432.4375,175.1406 C433.0156,174.7344 433.3438,174.2813 433.3438,173.8906 C433.3438,173.4375 432.9531,173.0469 432.4844,173.0469 C432.2656,173.0469 432.0625,173.125 431.875,173.3125 C431.4219,173.7969 431.4219,173.7969 431.2344,173.8906 C430.8125,174.1563 430.125,174.2813 429.3594,174.2813 C427.3125,174.2813 426.0156,173.1875 426.0156,171.4844 L426.0156,170.3906 C426.0156,168.6094 427.2656,167.2969 429,167.2969 C429.5781,167.2969 430.1875,167.4531 430.6563,167.7031 C431.1406,167.9844 431.3125,168.2031 431.4063,168.6094 C431.4688,169.0156 431.5,169.1406 431.6406,169.2656 C431.7813,169.4063 432.0156,169.5156 432.2344,169.5156 C432.5,169.5156 432.7656,169.375 432.9375,169.1563 C433.0469,169 433.0781,168.8125 433.0781,168.3906 L433.0781,166.9688 C433.0781,166.5313 433.0625,166.4063 432.9688,166.25 C432.8125,165.9844 432.5313,165.8438 432.2344,165.8438 C431.9375,165.8438 431.7344,165.9375 431.5156,166.25 L431.3438,166.1719 Z "/><text fill="#000000" font-family="sans-serif" font-size="12" lengthAdjust="spacingAndGlyphs" textLength="110" x="443" y="174.6543">OutOfBoundsError</text><line style="stroke: #A80036; stroke-width: 1.5;" x1="415" x2="555" y1="186.5" y2="186.5"/><text fill="#000000" font-family="sans-serif" font-size="11" lengthAdjust="spacingAndGlyphs" textLength="91" x="420" y="200.7104">+location : Point</text><line style="stroke: #A80036; stroke-width: 1.5;" x1="415" x2="555" y1="207.3047" y2="207.3047"/><!--MD5=[972bde5337b4335dd91fa5354c932445]
class Point--><rect codeLine="46" fill="#FEFECE" filter="url(#fpcszix9biaow)" height="112.0234" id="Point" style="stroke: #A80036; stroke-width: 1.5;" width="200" x="385" y="318"/><ellipse cx="466.75" cy="334" fill="#ADD1B2" rx="11" ry="11" style="stroke: #A80036; stroke-width: 1.0;"/><path d="M469.0938,329.6719 C468.1563,329.2344 467.5625,329.0938 466.6875,329.0938 C464.0625,329.0938 462.0625,331.1719 462.0625,333.8906 L462.0625,335.0156 C462.0625,337.5938 464.1719,339.4844 467.0625,339.4844 C468.2813,339.4844 469.4375,339.1875 470.1875,338.6406 C470.7656,338.2344 471.0938,337.7813 471.0938,337.3906 C471.0938,336.9375 470.7031,336.5469 470.2344,336.5469 C470.0156,336.5469 469.8125,336.625 469.625,336.8125 C469.1719,337.2969 469.1719,337.2969 468.9844,337.3906 C468.5625,337.6563 467.875,337.7813 467.1094,337.7813 C465.0625,337.7813 463.7656,336.6875 463.7656,334.9844 L463.7656,333.8906 C463.7656,332.1094 465.0156,330.7969 466.75,330.7969 C467.3281,330.7969 467.9375,330.9531 468.4063,331.2031 C468.8906,331.4844 469.0625,331.7031 469.1563,332.1094 C469.2188,332.5156 469.25,332.6406 469.3906,332.7656 C469.5313,332.9063 469.7656,333.0156 469.9844,333.0156 C470.25,333.0156 470.5156,332.875 470.6875,332.6563 C470.7969,332.5 470.8281,332.3125 470.8281,331.8906 L470.8281,330.4688 C470.8281,330.0313 470.8125,329.9063 470.7188,329.75 C470.5625,329.4844 470.2813,329.3438 469.9844,329.3438 C469.6875,329.3438 469.4844,329.4375 469.2656,329.75 L469.0938,329.6719 Z "/><text fill="#000000" font-family="sans-serif" font-size="12" lengthAdjust="spacingAndGlyphs" textLength="28" x="487.25" y="338.1543">Point</text><line style="stroke: #A80036; stroke-width: 1.5;" x1="386" x2="584" y1="350" y2="350"/><text fill="#000000" font-family="sans-serif" font-size="11" lengthAdjust="spacingAndGlyphs" textLength="117" x="391" y="364.2104">+x_coordinate : long</text><text fill="#000000" font-family="sans-serif" font-size="11" lengthAdjust="spacingAndGlyphs" textLength="117" x="391" y="377.0151">+y_coordinate : long</text><line style="stroke: #A80036; stroke-width: 1.5;" x1="386" x2="584" y1="383.6094" y2="383.6094"/><text fill="#000000" font-family="sans-serif" font-size="11" lengthAdjust="spacingAndGlyphs" textLength="188" x="391" y="397.8198">+get_neighbour(Direction) : Point</text><text fill="#000000" font-family="sans-serif" font-size="11" lengthAdjust="spacingAndGlyphs" textLength="76" x="391" y="410.6245">+to_s : String</text><text fill="#000000" font-family="sans-serif" font-size="11" lengthAdjust="spacingAndGlyphs" textLength="120" x="391" y="423.4292">+==(Point) : Boolean</text><!--MD5=[59f2aa28fddf9c5daa89dbae1e040217]
link Die to Die--><path codeLine="54" d="M195.212,692.92 C215.394,694.622 230,700.315 230,710 C230,718.852 217.797,724.37 200.286,726.553 " fill="none" id="Die-to-Die" style="stroke: #A80036; stroke-width: 1.0;"/><polygon fill="#A80036" points="195.212,727.08,204.5775,730.1276,200.1852,726.5628,203.75,722.1705,195.212,727.08" style="stroke: #A80036; stroke-width: 1.0;"/><text fill="#000000" font-family="sans-serif" font-size="13" lengthAdjust="spacingAndGlyphs" textLength="54" x="236" y="714.5669">instance</text><!--MD5=[013253d5218ff30f69dcd89083a973fd]
link Die to Direction--><path codeLine="55" d="M171.563,766.137 C208.133,794.712 251.824,828.852 284.371,854.2837 " fill="none" id="Die-to-Direction" style="stroke: #A80036; stroke-width: 1.0;"/><polygon fill="#A80036" points="288.686,857.6553,284.0571,848.962,284.7461,854.5767,279.1314,855.2658,288.686,857.6553" style="stroke: #A80036; stroke-width: 1.0;"/><text fill="#000000" font-family="sans-serif" font-size="13" lengthAdjust="spacingAndGlyphs" textLength="44" x="232" y="809.0669">history</text><!--MD5=[9d8223f77a75a3e7ccef8490b51c2dc7]
link Grid to Direction--><path codeLine="56" d="M291.552,241.34 C311.332,277.373 332,326.216 332,373 C332,373 332,373 332,711 C332,753.562 332,801.769 332,837.651 " fill="none" id="Grid-to-Direction" style="stroke: #A80036; stroke-width: 1.0;"/><polygon fill="#A80036" points="332,842.853,336,833.853,332,837.853,328,833.853,332,842.853" style="stroke: #A80036; stroke-width: 1.0;"/><text fill="#000000" font-family="sans-serif" font-size="13" lengthAdjust="spacingAndGlyphs" textLength="23" x="333" y="538.5669">use</text><!--MD5=[47f0744c13a6a4d1e3b2106d7ce615c2]
reverse link StandardError to ItemExistsError--><path codeLine="57" d="M653,88.576 C653,113.144 653,141.546 653,160.934 " fill="none" id="StandardError-backto-ItemExistsError" style="stroke: #A80036; stroke-width: 1.0;"/><polygon fill="none" points="646,88.295,653,68.295,660,88.295,646,88.295" style="stroke: #A80036; stroke-width: 1.0;"/><!--MD5=[80f15be24e8b6d5563bf7b0cd12f9028]
reverse link StandardError to ItemNotFoundError--><path codeLine="58" d="M703.085,81.62 C733.273,107.611 770.528,139.686 795.208,160.934 " fill="none" id="StandardError-backto-ItemNotFoundError" style="stroke: #A80036; stroke-width: 1.0;"/><polygon fill="none" points="698.197,86.649,687.607,68.295,707.331,76.039,698.197,86.649" style="stroke: #A80036; stroke-width: 1.0;"/><!--MD5=[285b84cd17eb2b6fb4ff0c36ad6d5dc1]
reverse link StandardError to OutOfBoundsError--><path codeLine="59" d="M603.392,81.464 C576.245,104.975 543.305,133.504 519.069,154.494 " fill="none" id="StandardError-backto-OutOfBoundsError" style="stroke: #A80036; stroke-width: 1.0;"/><polygon fill="none" points="598.896,76.097,618.597,68.295,608.062,86.68,598.896,76.097" style="stroke: #A80036; stroke-width: 1.0;"/><!--MD5=[7223aee86c09d05e1e87dcc2e20881df]
reverse link GridItem to Kangaroo--><path codeLine="60" d="M141,418.499 C141,441.057 141,468.491 141,490.85 " fill="none" id="GridItem-backto-Kangaroo" style="stroke: #A80036; stroke-width: 1.0; stroke-dasharray: 7.0,7.0;"/><polygon fill="none" points="134,418.313,141,398.313,148,418.313,134,418.313" style="stroke: #A80036; stroke-width: 1.0;"/><!--MD5=[2aea775689b610c44aab7527815acb07]
link Grid to GridItem--><path codeLine="61" d="M210.583,241.023 C203.334,250.76 196.193,260.99 190,271 C175.106,295.075 161.453,324.365 152.364,345.372 " fill="none" id="Grid-to-GridItem" style="stroke: #A80036; stroke-width: 1.0;"/><polygon fill="#A80036" points="150.382,349.99,157.6086,343.2985,152.3549,345.3957,150.2577,340.1419,150.382,349.99" style="stroke: #A80036; stroke-width: 1.0;"/><text fill="#000000" font-family="sans-serif" font-size="13" lengthAdjust="spacingAndGlyphs" textLength="36" x="191" y="284.0669">items</text><!--MD5=[4fbd77cec8d4c5287a534012e2cc45ad]
link Grid to Point--><path codeLine="62" d="M323.469,241.095 C351.762,264.199 384.693,291.09 413.412,314.542 " fill="none" id="Grid-to-Point" style="stroke: #A80036; stroke-width: 1.0;"/><polygon fill="#A80036" points="417.618,317.976,413.1774,309.185,413.7454,314.8133,408.1171,315.3813,417.618,317.976" style="stroke: #A80036; stroke-width: 1.0;"/><text fill="#000000" font-family="sans-serif" font-size="13" lengthAdjust="spacingAndGlyphs" textLength="36" x="379" y="284.0669">items</text><!--MD5=[26460278a18ad98bf880c1566f91ea35]
link Kangaroo to Die--><path codeLine="63" d="M131.317,577.121 C126.374,598.623 120.273,625.163 114.843,648.784 " fill="none" id="Kangaroo-to-Die" style="stroke: #A80036; stroke-width: 1.0;"/><polygon fill="#A80036" points="113.695,653.777,119.6094,645.9017,114.815,648.9041,111.8127,644.1097,113.695,653.777" style="stroke: #A80036; stroke-width: 1.0;"/><text fill="#000000" font-family="sans-serif" font-size="13" lengthAdjust="spacingAndGlyphs" textLength="19" x="125" y="620.0669">die</text><!--MD5=[034162ca823c773e3da018882996f896]
link Kangaroo to Grid--><path codeLine="64" d="M169.466,490.883 C180.644,472.782 192.747,450.993 201,430 C224.732,369.635 239.495,296.645 247.675,246.313 " fill="none" id="Kangaroo-to-Grid" style="stroke: #A80036; stroke-width: 1.0;"/><polygon fill="#A80036" points="248.495,241.209,243.1186,249.4609,247.7022,246.1457,251.0174,250.7294,248.495,241.209" style="stroke: #A80036; stroke-width: 1.0;"/><text fill="#000000" font-family="sans-serif" font-size="13" lengthAdjust="spacingAndGlyphs" textLength="23" x="235" y="378.5669">use</text><!--MD5=[53c3edd57408e0011a6ea7b9b0a8a0ad]
link OutOfBoundsError to Point--><path codeLine="65" d="M485,215.631 C485,241.634 485,280.262 485,312.739 " fill="none" id="OutOfBoundsError-to-Point" style="stroke: #A80036; stroke-width: 1.0;"/><polygon fill="#A80036" points="485,317.895,489,308.895,485,312.895,481,308.895,485,317.895" style="stroke: #A80036; stroke-width: 1.0;"/><text fill="#000000" font-family="sans-serif" font-size="13" lengthAdjust="spacingAndGlyphs" textLength="50" x="486" y="284.0669">location</text><!--MD5=[df91dbdaee43870a372b060a39559f7e]
link Point to Direction--><path codeLine="66" d="M469.723,430.169 C446.51,513.407 400.549,675.951 358,813 C355.532,820.948 352.849,829.322 350.175,837.521 " fill="none" id="Point-to-Direction" style="stroke: #A80036; stroke-width: 1.0;"/><polygon fill="#A80036" points="348.512,842.5978,355.1139,835.2893,350.0678,837.846,347.5111,832.7999,348.512,842.5978" style="stroke: #A80036; stroke-width: 1.0;"/><text fill="#000000" font-family="sans-serif" font-size="13" lengthAdjust="spacingAndGlyphs" textLength="23" x="420" y="620.0669">use</text><!--MD5=[62c2badfb6ada65b2826141f008f23bf]
@startuml
skinparam classAttributeIconSize 0
 
class "Die" {
  {field} {static} -instance: Die
  {field} -history : Map<Direction, long>
  {field} -random : Random
  {method} +print_stats
  {method} +roll : Direction
}

enum "Direction" {
  {field} +NORTH
  {field} +EAST
  {field} +SOUTH
  {field} +WEST
}

class "Grid" {
  {field} -dimension : long
  {field} -items : Map<GridItem, Point>
  {method} +get_item_location(GridItem) : Point
  {method} +move_item(GridItem, Direction) : Point
  {method} +place_item(GridItem, Point)
}

class "StandardError" {
  {field} +message : String
}

interface "GridItem"

class "ItemExistsError"

class "ItemNotFoundError"

class "Kangaroo" {
  {field} -die : Die
  {method} +chortle(String)
  {method} +find_home(Grid, GridItem)
}

class "OutOfBoundsError" {
  {field} +location : Point
}

class "Point" {
  {field} +x_coordinate : long
  {field} +y_coordinate : long
  {method} +get_neighbour(Direction) : Point
  {method} +to_s : String
  {method} +==(Point) : Boolean
}

"Die" - -> "Die" : instance
"Die" - -> "Direction" : history
"Grid" - -> "Direction" : use
"StandardError" <|- - "ItemExistsError"
"StandardError" <|- - "ItemNotFoundError"
"StandardError" <|- - "OutOfBoundsError"
"GridItem" <|.. "Kangaroo"
"Grid" - -> "GridItem" : items
"Grid" - -> "Point" : items
"Kangaroo" - -> "Die" : die
"Kangaroo" - -> "Grid" : use
"OutOfBoundsError" - -> "Point" : location
"Point" - -> "Direction" : use
@enduml

PlantUML version 1.2020.17beta5(Unknown compile time)
(GPL source distribution)
Java Runtime: Java(TM) SE Runtime Environment
JVM: Java HotSpot(TM) 64-Bit Server VM
Default Encoding: UTF-8
Language: en
Country: US
--></g></svg>