<?xml version="1.0" encoding="UTF-8" standalone="no"?><svg xmlns="http://www.w3.org/2000/svg" xmlns:xlink="http://www.w3.org/1999/xlink" contentScriptType="application/ecmascript" contentStyleType="text/css" height="935px" preserveAspectRatio="none" style="width:988px;height:935px;" version="1.1" viewBox="0 0 988 935" width="988px" zoomAndPan="magnify"><defs><filter height="300%" id="f1hot2xxo1a8qp" width="300%" x="-1" y="-1"><feGaussianBlur result="blurOut" stdDeviation="2.0"/><feColorMatrix in="blurOut" result="blurOut2" type="matrix" values="0 0 0 0 0 0 0 0 0 0 0 0 0 0 0 0 0 0 .4 0"/><feOffset dx="4.0" dy="4.0" in="blurOut2" result="blurOut3"/><feBlend in="SourceGraphic" in2="blurOut3" mode="normal"/></filter></defs><g><!--MD5=[cf2e9fab6bcdfe5ca02b2607bfaaecaa]
class Die--><rect codeLine="3" fill="#FEFECE" filter="url(#f1hot2xxo1a8qp)" height="112.0234" id="Die" style="stroke: #A80036; stroke-width: 1.5;" width="188" x="7" y="628"/><ellipse cx="86.75" cy="644" fill="#ADD1B2" rx="11" ry="11" style="stroke: #A80036; stroke-width: 1.0;"/><path d="M89.0938,639.6719 C88.1563,639.2344 87.5625,639.0938 86.6875,639.0938 C84.0625,639.0938 82.0625,641.1719 82.0625,643.8906 L82.0625,645.0156 C82.0625,647.5938 84.1719,649.4844 87.0625,649.4844 C88.2813,649.4844 89.4375,649.1875 90.1875,648.6406 C90.7656,648.2344 91.0938,647.7813 91.0938,647.3906 C91.0938,646.9375 90.7031,646.5469 90.2344,646.5469 C90.0156,646.5469 89.8125,646.625 89.625,646.8125 C89.1719,647.2969 89.1719,647.2969 88.9844,647.3906 C88.5625,647.6563 87.875,647.7813 87.1094,647.7813 C85.0625,647.7813 83.7656,646.6875 83.7656,644.9844 L83.7656,643.8906 C83.7656,642.1094 85.0156,640.7969 86.75,640.7969 C87.3281,640.7969 87.9375,640.9531 88.4063,641.2031 C88.8906,641.4844 89.0625,641.7031 89.1563,642.1094 C89.2188,642.5156 89.25,642.6406 89.3906,642.7656 C89.5313,642.9063 89.7656,643.0156 89.9844,643.0156 C90.25,643.0156 90.5156,642.875 90.6875,642.6563 C90.7969,642.5 90.8281,642.3125 90.8281,641.8906 L90.8281,640.4688 C90.8281,640.0313 90.8125,639.9063 90.7188,639.75 C90.5625,639.4844 90.2813,639.3438 89.9844,639.3438 C89.6875,639.3438 89.4844,639.4375 89.2656,639.75 L89.0938,639.6719 Z "/><text fill="#000000" font-family="sans-serif" font-size="12" lengthAdjust="spacingAndGlyphs" textLength="20" x="107.25" y="648.1543">Die</text><line style="stroke: #A80036; stroke-width: 1.5;" x1="8" x2="194" y1="660" y2="660"/><text fill="#000000" font-family="sans-serif" font-size="11" lengthAdjust="spacingAndGlyphs" text-decoration="underline" textLength="79" x="13" y="674.2104">-instance: Die</text><text fill="#000000" font-family="sans-serif" font-size="11" lengthAdjust="spacingAndGlyphs" textLength="176" x="13" y="687.0151">-history : Map&lt;Direction, long&gt;</text><text fill="#000000" font-family="sans-serif" font-size="11" lengthAdjust="spacingAndGlyphs" textLength="104" x="13" y="699.8198">-random : Random</text><line style="stroke: #A80036; stroke-width: 1.5;" x1="8" x2="194" y1="706.4141" y2="706.4141"/><text fill="#000000" font-family="sans-serif" font-size="11" lengthAdjust="spacingAndGlyphs" textLength="71" x="13" y="720.6245">+printStats()</text><text fill="#000000" font-family="sans-serif" font-size="11" lengthAdjust="spacingAndGlyphs" textLength="96" x="13" y="733.4292">+roll() : Direction</text><!--MD5=[02f7077ed79257124e28b791f351f1d7]
class Direction--><rect codeLine="11" fill="#FEFECE" filter="url(#f1hot2xxo1a8qp)" height="99.2188" id="Direction" style="stroke: #A80036; stroke-width: 1.5;" width="86" x="289" y="817"/><ellipse cx="304" cy="833" fill="#EB937F" rx="11" ry="11" style="stroke: #A80036; stroke-width: 1.0;"/><path d="M302.7969,833.875 L304.25,833.875 L304.25,833.9844 C304.25,834.3906 304.2813,834.5469 304.3594,834.7031 C304.5156,834.9531 304.7969,835.1094 305.0938,835.1094 C305.3438,835.1094 305.6094,834.9688 305.7656,834.75 C305.8906,834.5938 305.9219,834.4375 305.9219,833.9844 L305.9219,832.0625 C305.9219,831.9063 305.9219,831.8594 305.9063,831.7031 C305.8438,831.2344 305.5313,830.9219 305.0781,830.9219 C304.8281,830.9219 304.5625,831.0625 304.3906,831.2813 C304.2813,831.4531 304.25,831.6094 304.25,832.0625 L304.25,832.1875 L302.7969,832.1875 L302.7969,829.7813 L306.7813,829.7813 L306.7813,830.6406 C306.7813,831.0469 306.8125,831.2188 306.8906,831.375 C307.0625,831.625 307.3438,831.7813 307.625,831.7813 C307.8906,831.7813 308.1563,831.6406 308.3281,831.4219 C308.4375,831.25 308.4688,831.1094 308.4688,830.6406 L308.4688,828.0938 L300.8438,828.0938 C300.4063,828.0938 300.2813,828.1094 300.125,828.2031 C299.875,828.3594 299.7188,828.6563 299.7188,828.9375 C299.7188,829.2188 299.8594,829.4688 300.0781,829.6406 C300.2344,829.75 300.4219,829.7813 300.8438,829.7813 L301.0938,829.7813 L301.0938,836.2969 L300.8438,836.2969 C300.4375,836.2969 300.2813,836.3125 300.125,836.4219 C299.875,836.5938 299.7188,836.8594 299.7188,837.1563 C299.7188,837.4219 299.8594,837.6719 300.0781,837.8281 C300.2188,837.9531 300.4531,838 300.8438,838 L308.8438,838 L308.8438,835.4219 C308.8438,834.9844 308.8125,834.8438 308.7344,834.6875 C308.5625,834.4375 308.2813,834.2813 308,834.2813 C307.7344,834.2813 307.4688,834.3906 307.2969,834.6406 C307.1875,834.7969 307.1563,834.9375 307.1563,835.4219 L307.1563,836.2969 L302.7969,836.2969 L302.7969,833.875 Z "/><text fill="#000000" font-family="sans-serif" font-size="12" lengthAdjust="spacingAndGlyphs" textLength="54" x="318" y="837.1543">Direction</text><line style="stroke: #A80036; stroke-width: 1.5;" x1="290" x2="374" y1="849" y2="849"/><text fill="#000000" font-family="sans-serif" font-size="11" lengthAdjust="spacingAndGlyphs" textLength="48" x="295" y="863.2104">+NORTH</text><text fill="#000000" font-family="sans-serif" font-size="11" lengthAdjust="spacingAndGlyphs" textLength="39" x="295" y="876.0151">+EAST</text><text fill="#000000" font-family="sans-serif" font-size="11" lengthAdjust="spacingAndGlyphs" textLength="49" x="295" y="888.8198">+SOUTH</text><text fill="#000000" font-family="sans-serif" font-size="11" lengthAdjust="spacingAndGlyphs" textLength="42" x="295" y="901.6245">+WEST</text><line style="stroke: #A80036; stroke-width: 1.5;" x1="290" x2="374" y1="908.2188" y2="908.2188"/><!--MD5=[1f24f7b92150e3316908f7910ce81742]
class Grid--><rect codeLine="18" fill="#FEFECE" filter="url(#f1hot2xxo1a8qp)" height="112.0234" id="Grid" style="stroke: #A80036; stroke-width: 1.5;" width="233" x="133.5" y="129"/><ellipse cx="233.25" cy="145" fill="#ADD1B2" rx="11" ry="11" style="stroke: #A80036; stroke-width: 1.0;"/><path d="M235.5938,140.6719 C234.6563,140.2344 234.0625,140.0938 233.1875,140.0938 C230.5625,140.0938 228.5625,142.1719 228.5625,144.8906 L228.5625,146.0156 C228.5625,148.5938 230.6719,150.4844 233.5625,150.4844 C234.7813,150.4844 235.9375,150.1875 236.6875,149.6406 C237.2656,149.2344 237.5938,148.7813 237.5938,148.3906 C237.5938,147.9375 237.2031,147.5469 236.7344,147.5469 C236.5156,147.5469 236.3125,147.625 236.125,147.8125 C235.6719,148.2969 235.6719,148.2969 235.4844,148.3906 C235.0625,148.6563 234.375,148.7813 233.6094,148.7813 C231.5625,148.7813 230.2656,147.6875 230.2656,145.9844 L230.2656,144.8906 C230.2656,143.1094 231.5156,141.7969 233.25,141.7969 C233.8281,141.7969 234.4375,141.9531 234.9063,142.2031 C235.3906,142.4844 235.5625,142.7031 235.6563,143.1094 C235.7188,143.5156 235.75,143.6406 235.8906,143.7656 C236.0313,143.9063 236.2656,144.0156 236.4844,144.0156 C236.75,144.0156 237.0156,143.875 237.1875,143.6563 C237.2969,143.5 237.3281,143.3125 237.3281,142.8906 L237.3281,141.4688 C237.3281,141.0313 237.3125,140.9063 237.2188,140.75 C237.0625,140.4844 236.7813,140.3438 236.4844,140.3438 C236.1875,140.3438 235.9844,140.4375 235.7656,140.75 L235.5938,140.6719 Z "/><text fill="#000000" font-family="sans-serif" font-size="12" lengthAdjust="spacingAndGlyphs" textLength="25" x="253.75" y="149.1543">Grid</text><line style="stroke: #A80036; stroke-width: 1.5;" x1="134.5" x2="365.5" y1="161" y2="161"/><text fill="#000000" font-family="sans-serif" font-size="11" lengthAdjust="spacingAndGlyphs" textLength="98" x="139.5" y="175.2104">-dimension : long</text><text fill="#000000" font-family="sans-serif" font-size="11" lengthAdjust="spacingAndGlyphs" textLength="171" x="139.5" y="188.0151">-items : Map&lt;GridItem, Point&gt;</text><line style="stroke: #A80036; stroke-width: 1.5;" x1="134.5" x2="365.5" y1="194.6094" y2="194.6094"/><text fill="#000000" font-family="sans-serif" font-size="11" lengthAdjust="spacingAndGlyphs" textLength="196" x="139.5" y="208.8198">+getItemLocation(GridItem) : Point</text><text fill="#000000" font-family="sans-serif" font-size="11" lengthAdjust="spacingAndGlyphs" textLength="221" x="139.5" y="221.6245">+moveItem(GridItem, Direction) : Point</text><text fill="#000000" font-family="sans-serif" font-size="11" lengthAdjust="spacingAndGlyphs" textLength="157" x="139.5" y="234.4292">+placeItem(GridItem, Point)</text><!--MD5=[0e127dbef936c8010d47ae8e790c2d7e]
class GridException--><rect codeLine="26" fill="#FEFECE" filter="url(#f1hot2xxo1a8qp)" height="60.8047" id="GridException" style="stroke: #A80036; stroke-width: 1.5;" width="116" x="626" y="7"/><ellipse cx="641" cy="23" fill="#ADD1B2" rx="11" ry="11" style="stroke: #A80036; stroke-width: 1.0;"/><path d="M643.3438,18.6719 C642.4063,18.2344 641.8125,18.0938 640.9375,18.0938 C638.3125,18.0938 636.3125,20.1719 636.3125,22.8906 L636.3125,24.0156 C636.3125,26.5938 638.4219,28.4844 641.3125,28.4844 C642.5313,28.4844 643.6875,28.1875 644.4375,27.6406 C645.0156,27.2344 645.3438,26.7813 645.3438,26.3906 C645.3438,25.9375 644.9531,25.5469 644.4844,25.5469 C644.2656,25.5469 644.0625,25.625 643.875,25.8125 C643.4219,26.2969 643.4219,26.2969 643.2344,26.3906 C642.8125,26.6563 642.125,26.7813 641.3594,26.7813 C639.3125,26.7813 638.0156,25.6875 638.0156,23.9844 L638.0156,22.8906 C638.0156,21.1094 639.2656,19.7969 641,19.7969 C641.5781,19.7969 642.1875,19.9531 642.6563,20.2031 C643.1406,20.4844 643.3125,20.7031 643.4063,21.1094 C643.4688,21.5156 643.5,21.6406 643.6406,21.7656 C643.7813,21.9063 644.0156,22.0156 644.2344,22.0156 C644.5,22.0156 644.7656,21.875 644.9375,21.6563 C645.0469,21.5 645.0781,21.3125 645.0781,20.8906 L645.0781,19.4688 C645.0781,19.0313 645.0625,18.9063 644.9688,18.75 C644.8125,18.4844 644.5313,18.3438 644.2344,18.3438 C643.9375,18.3438 643.7344,18.4375 643.5156,18.75 L643.3438,18.6719 Z "/><text fill="#000000" font-family="sans-serif" font-size="12" lengthAdjust="spacingAndGlyphs" textLength="84" x="655" y="27.1543">GridException</text><line style="stroke: #A80036; stroke-width: 1.5;" x1="627" x2="741" y1="39" y2="39"/><text fill="#000000" font-family="sans-serif" font-size="11" lengthAdjust="spacingAndGlyphs" textLength="104" x="632" y="53.2104">+message : string</text><line style="stroke: #A80036; stroke-width: 1.5;" x1="627" x2="741" y1="59.8047" y2="59.8047"/><!--MD5=[879279837df7859fbe306ab9e1a6e8b8]
class GridItem--><rect codeLine="30" fill="#FEFECE" filter="url(#f1hot2xxo1a8qp)" height="48" id="GridItem" style="stroke: #A80036; stroke-width: 1.5;" width="85" x="94.5" y="337"/><ellipse cx="109.5" cy="353" fill="#B4A7E5" rx="11" ry="11" style="stroke: #A80036; stroke-width: 1.0;"/><path d="M110.4531,349.7813 L112.1719,349.7813 C112.5625,349.7813 112.75,349.75 112.875,349.6719 C113.1406,349.5156 113.2813,349.2344 113.2813,348.9375 C113.2813,348.6719 113.1719,348.4063 112.9375,348.2344 C112.7656,348.125 112.625,348.0938 112.1719,348.0938 L107.0313,348.0938 C106.5938,348.0938 106.4688,348.1094 106.3125,348.2031 C106.0625,348.3594 105.9063,348.6563 105.9063,348.9375 C105.9063,349.2188 106.0469,349.4688 106.2656,349.6406 C106.4219,349.75 106.6094,349.7813 107.0313,349.7813 L108.75,349.7813 L108.75,356.2969 L107.0313,356.2969 C106.5938,356.2969 106.4688,356.3125 106.3125,356.4219 C106.0625,356.5781 105.9063,356.8594 105.9063,357.1563 C105.9063,357.4063 106.0469,357.6719 106.2656,357.8281 C106.4219,357.9531 106.625,358 107.0313,358 L112.1719,358 C112.9219,358 113.2813,357.7188 113.2813,357.1563 C113.2813,356.875 113.1719,356.625 112.9375,356.4531 C112.7656,356.3281 112.625,356.2969 112.1719,356.2969 L110.4531,356.2969 L110.4531,349.7813 Z "/><text fill="#000000" font-family="sans-serif" font-size="12" font-style="italic" lengthAdjust="spacingAndGlyphs" textLength="53" x="123.5" y="357.1543">GridItem</text><line style="stroke: #A80036; stroke-width: 1.5;" x1="95.5" x2="178.5" y1="369" y2="369"/><line style="stroke: #A80036; stroke-width: 1.5;" x1="95.5" x2="178.5" y1="377" y2="377"/><!--MD5=[a8f128e6aecd92ab0fa36ad1b65150ae]
class ItemExistsException--><rect codeLine="32" fill="#FEFECE" filter="url(#f1hot2xxo1a8qp)" height="48" id="ItemExistsException" style="stroke: #A80036; stroke-width: 1.5;" width="152" x="608" y="161"/><ellipse cx="623" cy="177" fill="#ADD1B2" rx="11" ry="11" style="stroke: #A80036; stroke-width: 1.0;"/><path d="M625.3438,172.6719 C624.4063,172.2344 623.8125,172.0938 622.9375,172.0938 C620.3125,172.0938 618.3125,174.1719 618.3125,176.8906 L618.3125,178.0156 C618.3125,180.5938 620.4219,182.4844 623.3125,182.4844 C624.5313,182.4844 625.6875,182.1875 626.4375,181.6406 C627.0156,181.2344 627.3438,180.7813 627.3438,180.3906 C627.3438,179.9375 626.9531,179.5469 626.4844,179.5469 C626.2656,179.5469 626.0625,179.625 625.875,179.8125 C625.4219,180.2969 625.4219,180.2969 625.2344,180.3906 C624.8125,180.6563 624.125,180.7813 623.3594,180.7813 C621.3125,180.7813 620.0156,179.6875 620.0156,177.9844 L620.0156,176.8906 C620.0156,175.1094 621.2656,173.7969 623,173.7969 C623.5781,173.7969 624.1875,173.9531 624.6563,174.2031 C625.1406,174.4844 625.3125,174.7031 625.4063,175.1094 C625.4688,175.5156 625.5,175.6406 625.6406,175.7656 C625.7813,175.9063 626.0156,176.0156 626.2344,176.0156 C626.5,176.0156 626.7656,175.875 626.9375,175.6563 C627.0469,175.5 627.0781,175.3125 627.0781,174.8906 L627.0781,173.4688 C627.0781,173.0313 627.0625,172.9063 626.9688,172.75 C626.8125,172.4844 626.5313,172.3438 626.2344,172.3438 C625.9375,172.3438 625.7344,172.4375 625.5156,172.75 L625.3438,172.6719 Z "/><text fill="#000000" font-family="sans-serif" font-size="12" lengthAdjust="spacingAndGlyphs" textLength="120" x="637" y="181.1543">ItemExistsException</text><line style="stroke: #A80036; stroke-width: 1.5;" x1="609" x2="759" y1="193" y2="193"/><line style="stroke: #A80036; stroke-width: 1.5;" x1="609" x2="759" y1="201" y2="201"/><!--MD5=[e280e42c4df000beccca2ef91b2ec66d]
class ItemNotFoundException--><rect codeLine="34" fill="#FEFECE" filter="url(#f1hot2xxo1a8qp)" height="48" id="ItemNotFoundException" style="stroke: #A80036; stroke-width: 1.5;" width="174" x="795" y="161"/><ellipse cx="810" cy="177" fill="#ADD1B2" rx="11" ry="11" style="stroke: #A80036; stroke-width: 1.0;"/><path d="M812.3438,172.6719 C811.4063,172.2344 810.8125,172.0938 809.9375,172.0938 C807.3125,172.0938 805.3125,174.1719 805.3125,176.8906 L805.3125,178.0156 C805.3125,180.5938 807.4219,182.4844 810.3125,182.4844 C811.5313,182.4844 812.6875,182.1875 813.4375,181.6406 C814.0156,181.2344 814.3438,180.7813 814.3438,180.3906 C814.3438,179.9375 813.9531,179.5469 813.4844,179.5469 C813.2656,179.5469 813.0625,179.625 812.875,179.8125 C812.4219,180.2969 812.4219,180.2969 812.2344,180.3906 C811.8125,180.6563 811.125,180.7813 810.3594,180.7813 C808.3125,180.7813 807.0156,179.6875 807.0156,177.9844 L807.0156,176.8906 C807.0156,175.1094 808.2656,173.7969 810,173.7969 C810.5781,173.7969 811.1875,173.9531 811.6563,174.2031 C812.1406,174.4844 812.3125,174.7031 812.4063,175.1094 C812.4688,175.5156 812.5,175.6406 812.6406,175.7656 C812.7813,175.9063 813.0156,176.0156 813.2344,176.0156 C813.5,176.0156 813.7656,175.875 813.9375,175.6563 C814.0469,175.5 814.0781,175.3125 814.0781,174.8906 L814.0781,173.4688 C814.0781,173.0313 814.0625,172.9063 813.9688,172.75 C813.8125,172.4844 813.5313,172.3438 813.2344,172.3438 C812.9375,172.3438 812.7344,172.4375 812.5156,172.75 L812.3438,172.6719 Z "/><text fill="#000000" font-family="sans-serif" font-size="12" lengthAdjust="spacingAndGlyphs" textLength="142" x="824" y="181.1543">ItemNotFoundException</text><line style="stroke: #A80036; stroke-width: 1.5;" x1="796" x2="968" y1="193" y2="193"/><line style="stroke: #A80036; stroke-width: 1.5;" x1="796" x2="968" y1="201" y2="201"/><!--MD5=[99af92fe15be602290fbdf27fa059b79]
class Kangaroo--><rect codeLine="36" fill="#FEFECE" filter="url(#f1hot2xxo1a8qp)" height="86.4141" id="Kangaroo" style="stroke: #A80036; stroke-width: 1.5;" width="163" x="55.5" y="465"/><ellipse cx="103.75" cy="481" fill="#ADD1B2" rx="11" ry="11" style="stroke: #A80036; stroke-width: 1.0;"/><path d="M106.0938,476.6719 C105.1563,476.2344 104.5625,476.0938 103.6875,476.0938 C101.0625,476.0938 99.0625,478.1719 99.0625,480.8906 L99.0625,482.0156 C99.0625,484.5938 101.1719,486.4844 104.0625,486.4844 C105.2813,486.4844 106.4375,486.1875 107.1875,485.6406 C107.7656,485.2344 108.0938,484.7813 108.0938,484.3906 C108.0938,483.9375 107.7031,483.5469 107.2344,483.5469 C107.0156,483.5469 106.8125,483.625 106.625,483.8125 C106.1719,484.2969 106.1719,484.2969 105.9844,484.3906 C105.5625,484.6563 104.875,484.7813 104.1094,484.7813 C102.0625,484.7813 100.7656,483.6875 100.7656,481.9844 L100.7656,480.8906 C100.7656,479.1094 102.0156,477.7969 103.75,477.7969 C104.3281,477.7969 104.9375,477.9531 105.4063,478.2031 C105.8906,478.4844 106.0625,478.7031 106.1563,479.1094 C106.2188,479.5156 106.25,479.6406 106.3906,479.7656 C106.5313,479.9063 106.7656,480.0156 106.9844,480.0156 C107.25,480.0156 107.5156,479.875 107.6875,479.6563 C107.7969,479.5 107.8281,479.3125 107.8281,478.8906 L107.8281,477.4688 C107.8281,477.0313 107.8125,476.9063 107.7188,476.75 C107.5625,476.4844 107.2813,476.3438 106.9844,476.3438 C106.6875,476.3438 106.4844,476.4375 106.2656,476.75 L106.0938,476.6719 Z "/><text fill="#000000" font-family="sans-serif" font-size="12" lengthAdjust="spacingAndGlyphs" textLength="58" x="124.25" y="485.1543">Kangaroo</text><line style="stroke: #A80036; stroke-width: 1.5;" x1="56.5" x2="217.5" y1="497" y2="497"/><text fill="#000000" font-family="sans-serif" font-size="11" lengthAdjust="spacingAndGlyphs" textLength="53" x="61.5" y="511.2104">-die : Die</text><line style="stroke: #A80036; stroke-width: 1.5;" x1="56.5" x2="217.5" y1="517.8047" y2="517.8047"/><text fill="#000000" font-family="sans-serif" font-size="11" lengthAdjust="spacingAndGlyphs" textLength="89" x="61.5" y="532.0151">+chortle(String)</text><text fill="#000000" font-family="sans-serif" font-size="11" lengthAdjust="spacingAndGlyphs" textLength="151" x="61.5" y="544.8198">+findHome(Grid, GridItem)</text><!--MD5=[0e39e035ce969f13118b4f90d78ee10d]
class OutOfBoundsException--><rect codeLine="42" fill="#FEFECE" filter="url(#f1hot2xxo1a8qp)" height="60.8047" id="OutOfBoundsException" style="stroke: #A80036; stroke-width: 1.5;" width="171" x="401.5" y="154.5"/><ellipse cx="416.5" cy="170.5" fill="#ADD1B2" rx="11" ry="11" style="stroke: #A80036; stroke-width: 1.0;"/><path d="M418.8438,166.1719 C417.9063,165.7344 417.3125,165.5938 416.4375,165.5938 C413.8125,165.5938 411.8125,167.6719 411.8125,170.3906 L411.8125,171.5156 C411.8125,174.0938 413.9219,175.9844 416.8125,175.9844 C418.0313,175.9844 419.1875,175.6875 419.9375,175.1406 C420.5156,174.7344 420.8438,174.2813 420.8438,173.8906 C420.8438,173.4375 420.4531,173.0469 419.9844,173.0469 C419.7656,173.0469 419.5625,173.125 419.375,173.3125 C418.9219,173.7969 418.9219,173.7969 418.7344,173.8906 C418.3125,174.1563 417.625,174.2813 416.8594,174.2813 C414.8125,174.2813 413.5156,173.1875 413.5156,171.4844 L413.5156,170.3906 C413.5156,168.6094 414.7656,167.2969 416.5,167.2969 C417.0781,167.2969 417.6875,167.4531 418.1563,167.7031 C418.6406,167.9844 418.8125,168.2031 418.9063,168.6094 C418.9688,169.0156 419,169.1406 419.1406,169.2656 C419.2813,169.4063 419.5156,169.5156 419.7344,169.5156 C420,169.5156 420.2656,169.375 420.4375,169.1563 C420.5469,169 420.5781,168.8125 420.5781,168.3906 L420.5781,166.9688 C420.5781,166.5313 420.5625,166.4063 420.4688,166.25 C420.3125,165.9844 420.0313,165.8438 419.7344,165.8438 C419.4375,165.8438 419.2344,165.9375 419.0156,166.25 L418.8438,166.1719 Z "/><text fill="#000000" font-family="sans-serif" font-size="12" lengthAdjust="spacingAndGlyphs" textLength="139" x="430.5" y="174.6543">OutOfBoundsException</text><line style="stroke: #A80036; stroke-width: 1.5;" x1="402.5" x2="571.5" y1="186.5" y2="186.5"/><text fill="#000000" font-family="sans-serif" font-size="11" lengthAdjust="spacingAndGlyphs" textLength="91" x="407.5" y="200.7104">+location : Point</text><line style="stroke: #A80036; stroke-width: 1.5;" x1="402.5" x2="571.5" y1="207.3047" y2="207.3047"/><!--MD5=[972bde5337b4335dd91fa5354c932445]
class Point--><rect codeLine="46" fill="#FEFECE" filter="url(#f1hot2xxo1a8qp)" height="86.4141" id="Point" style="stroke: #A80036; stroke-width: 1.5;" width="195" x="385.5" y="318"/><ellipse cx="464.75" cy="334" fill="#ADD1B2" rx="11" ry="11" style="stroke: #A80036; stroke-width: 1.0;"/><path d="M467.0938,329.6719 C466.1563,329.2344 465.5625,329.0938 464.6875,329.0938 C462.0625,329.0938 460.0625,331.1719 460.0625,333.8906 L460.0625,335.0156 C460.0625,337.5938 462.1719,339.4844 465.0625,339.4844 C466.2813,339.4844 467.4375,339.1875 468.1875,338.6406 C468.7656,338.2344 469.0938,337.7813 469.0938,337.3906 C469.0938,336.9375 468.7031,336.5469 468.2344,336.5469 C468.0156,336.5469 467.8125,336.625 467.625,336.8125 C467.1719,337.2969 467.1719,337.2969 466.9844,337.3906 C466.5625,337.6563 465.875,337.7813 465.1094,337.7813 C463.0625,337.7813 461.7656,336.6875 461.7656,334.9844 L461.7656,333.8906 C461.7656,332.1094 463.0156,330.7969 464.75,330.7969 C465.3281,330.7969 465.9375,330.9531 466.4063,331.2031 C466.8906,331.4844 467.0625,331.7031 467.1563,332.1094 C467.2188,332.5156 467.25,332.6406 467.3906,332.7656 C467.5313,332.9063 467.7656,333.0156 467.9844,333.0156 C468.25,333.0156 468.5156,332.875 468.6875,332.6563 C468.7969,332.5 468.8281,332.3125 468.8281,331.8906 L468.8281,330.4688 C468.8281,330.0313 468.8125,329.9063 468.7188,329.75 C468.5625,329.4844 468.2813,329.3438 467.9844,329.3438 C467.6875,329.3438 467.4844,329.4375 467.2656,329.75 L467.0938,329.6719 Z "/><text fill="#000000" font-family="sans-serif" font-size="12" lengthAdjust="spacingAndGlyphs" textLength="28" x="485.25" y="338.1543">Point</text><line style="stroke: #A80036; stroke-width: 1.5;" x1="386.5" x2="579.5" y1="350" y2="350"/><text fill="#000000" font-family="sans-serif" font-size="11" lengthAdjust="spacingAndGlyphs" textLength="113" x="391.5" y="364.2104">+xCoordinate : long</text><text fill="#000000" font-family="sans-serif" font-size="11" lengthAdjust="spacingAndGlyphs" textLength="113" x="391.5" y="377.0151">+yCoordinate : long</text><line style="stroke: #A80036; stroke-width: 1.5;" x1="386.5" x2="579.5" y1="383.6094" y2="383.6094"/><text fill="#000000" font-family="sans-serif" font-size="11" lengthAdjust="spacingAndGlyphs" textLength="183" x="391.5" y="397.8198">+getNeighbour(Direction) : Point</text><!--MD5=[59f2aa28fddf9c5daa89dbae1e040217]
link Die to Die--><path codeLine="52" d="M195.212,666.92 C215.394,668.622 230,674.315 230,684 C230,692.852 217.797,698.37 200.286,700.553 " fill="none" id="Die-to-Die" style="stroke: #A80036; stroke-width: 1.0;"/><polygon fill="#A80036" points="195.212,701.08,204.5775,704.1276,200.1852,700.5628,203.75,696.1705,195.212,701.08" style="stroke: #A80036; stroke-width: 1.0;"/><text fill="#000000" font-family="sans-serif" font-size="13" lengthAdjust="spacingAndGlyphs" textLength="54" x="236" y="688.5669">instance</text><!--MD5=[013253d5218ff30f69dcd89083a973fd]
link Die to Direction--><path codeLine="53" d="M171.563,740.137 C208.133,768.712 251.824,802.852 284.371,828.2837 " fill="none" id="Die-to-Direction" style="stroke: #A80036; stroke-width: 1.0;"/><polygon fill="#A80036" points="288.686,831.6553,284.0571,822.962,284.7461,828.5767,279.1314,829.2658,288.686,831.6553" style="stroke: #A80036; stroke-width: 1.0;"/><text fill="#000000" font-family="sans-serif" font-size="13" lengthAdjust="spacingAndGlyphs" textLength="44" x="232" y="783.0669">history</text><!--MD5=[9d8223f77a75a3e7ccef8490b51c2dc7]
link Grid to Direction--><path codeLine="54" d="M291.24,241.326 C311.66,274.095 332,317.422 332,360 C332,360 332,360 332,685 C332,727.562 332,775.769 332,811.651 " fill="none" id="Grid-to-Direction" style="stroke: #A80036; stroke-width: 1.0;"/><polygon fill="#A80036" points="332,816.853,336,807.853,332,811.853,328,807.853,332,816.853" style="stroke: #A80036; stroke-width: 1.0;"/><text fill="#000000" font-family="sans-serif" font-size="13" lengthAdjust="spacingAndGlyphs" textLength="23" x="333" y="512.5669">use</text><!--MD5=[6b8686e3f505477d629665614a2a2b08]
reverse link GridException to ItemExistsException--><path codeLine="55" d="M684,88.576 C684,113.144 684,141.546 684,160.934 " fill="none" id="GridException-backto-ItemExistsException" style="stroke: #A80036; stroke-width: 1.0;"/><polygon fill="none" points="677,88.295,684,68.295,691,88.295,677,88.295" style="stroke: #A80036; stroke-width: 1.0;"/><!--MD5=[10c2b14fd4f4e98f0af482bec29e75c1]
reverse link GridException to ItemNotFoundException--><path codeLine="56" d="M740.732,80.19 C776.433,106.424 821.163,139.294 850.611,160.934 " fill="none" id="GridException-backto-ItemNotFoundException" style="stroke: #A80036; stroke-width: 1.0;"/><polygon fill="none" points="736.517,85.779,724.546,68.295,744.808,74.498,736.517,85.779" style="stroke: #A80036; stroke-width: 1.0;"/><!--MD5=[78e0c1c83500dbbd7eba5b7ca2ad15b3]
reverse link GridException to OutOfBoundsException--><path codeLine="57" d="M627.164,80.478 C595.081,104.174 555.768,133.21 526.95,154.494 " fill="none" id="GridException-backto-OutOfBoundsException" style="stroke: #A80036; stroke-width: 1.0;"/><polygon fill="none" points="623.412,74.547,643.659,68.295,631.73,85.808,623.412,74.547" style="stroke: #A80036; stroke-width: 1.0;"/><!--MD5=[7223aee86c09d05e1e87dcc2e20881df]
reverse link GridItem to Kangaroo--><path codeLine="58" d="M137,405.515 C137,424.275 137,446.134 137,464.751 " fill="none" id="GridItem-backto-Kangaroo" style="stroke: #A80036; stroke-width: 1.0; stroke-dasharray: 7.0,7.0;"/><polygon fill="none" points="130,405.297,137,385.297,144,405.297,130,405.297" style="stroke: #A80036; stroke-width: 1.0;"/><!--MD5=[2aea775689b610c44aab7527815acb07]
link Grid to GridItem--><path codeLine="59" d="M206.501,241.431 C199.409,251.12 192.322,261.23 186,271 C173.212,290.762 160.441,314.107 151.144,331.928 " fill="none" id="Grid-to-GridItem" style="stroke: #A80036; stroke-width: 1.0;"/><polygon fill="#A80036" points="148.617,336.8,156.3108,330.6514,150.9185,332.3612,149.2087,326.9689,148.617,336.8" style="stroke: #A80036; stroke-width: 1.0;"/><text fill="#000000" font-family="sans-serif" font-size="13" lengthAdjust="spacingAndGlyphs" textLength="36" x="187" y="284.0669">items</text><!--MD5=[4fbd77cec8d4c5287a534012e2cc45ad]
link Grid to Point--><path codeLine="60" d="M323.723,241.055 C355.621,264.876 392.489,292.408 422.716,314.981 " fill="none" id="Grid-to-Point" style="stroke: #A80036; stroke-width: 1.0;"/><polygon fill="#A80036" points="426.746,317.99,421.9288,309.3996,422.74,314.998,417.1416,315.8092,426.746,317.99" style="stroke: #A80036; stroke-width: 1.0;"/><text fill="#000000" font-family="sans-serif" font-size="13" lengthAdjust="spacingAndGlyphs" textLength="36" x="382" y="284.0669">items</text><!--MD5=[26460278a18ad98bf880c1566f91ea35]
link Kangaroo to Die--><path codeLine="61" d="M128.285,551.121 C123.837,572.623 118.346,599.163 113.458,622.784 " fill="none" id="Kangaroo-to-Die" style="stroke: #A80036; stroke-width: 1.0;"/><polygon fill="#A80036" points="112.425,627.777,118.1677,619.7756,113.4394,622.881,110.334,618.1527,112.425,627.777" style="stroke: #A80036; stroke-width: 1.0;"/><text fill="#000000" font-family="sans-serif" font-size="13" lengthAdjust="spacingAndGlyphs" textLength="19" x="123" y="594.0669">die</text><!--MD5=[034162ca823c773e3da018882996f896]
link Kangaroo to Grid--><path codeLine="62" d="M165.059,464.718 C176.171,446.591 188.334,424.826 197,404 C218.324,352.753 232.331,291.007 240.559,246.332 " fill="none" id="Kangaroo-to-Grid" style="stroke: #A80036; stroke-width: 1.0;"/><polygon fill="#A80036" points="241.485,241.244,235.9396,249.3833,240.5906,246.1633,243.8105,250.8144,241.485,241.244" style="stroke: #A80036; stroke-width: 1.0;"/><text fill="#000000" font-family="sans-serif" font-size="13" lengthAdjust="spacingAndGlyphs" textLength="23" x="226" y="365.5669">use</text><!--MD5=[e7a919e86086248a83f398652b7962a2]
link OutOfBoundsException to Point--><path codeLine="63" d="M486.321,215.517 C485.71,242.097 484.801,281.635 484.089,312.634 " fill="none" id="OutOfBoundsException-to-Point" style="stroke: #A80036; stroke-width: 1.0;"/><polygon fill="#A80036" points="483.967,317.925,488.1717,309.0188,484.0813,312.9263,480.1738,308.8359,483.967,317.925" style="stroke: #A80036; stroke-width: 1.0;"/><text fill="#000000" font-family="sans-serif" font-size="13" lengthAdjust="spacingAndGlyphs" textLength="50" x="486" y="284.0669">location</text><!--MD5=[df91dbdaee43870a372b060a39559f7e]
link Point to Direction--><path codeLine="64" d="M471.137,404.067 C449.46,480.537 401.652,647.342 358,787 C355.517,794.943 352.826,803.314 350.147,811.512 " fill="none" id="Point-to-Direction" style="stroke: #A80036; stroke-width: 1.0;"/><polygon fill="#A80036" points="348.483,816.5887,355.0889,809.2837,350.0414,811.8378,347.4874,806.7903,348.483,816.5887" style="stroke: #A80036; stroke-width: 1.0;"/><text fill="#000000" font-family="sans-serif" font-size="13" lengthAdjust="spacingAndGlyphs" textLength="23" x="421" y="594.0669">use</text><!--MD5=[d530454de9cd0b4bf6d6a78194ae8e1a]
@startuml
skinparam classAttributeIconSize 0
 
class "Die" {
  {field} {static} -instance: Die
  {field} -history : Map<Direction, long>
  {field} -random : Random
  {method} +printStats()
  {method} +roll() : Direction
}

enum "Direction" {
  {field} +NORTH
  {field} +EAST
  {field} +SOUTH
  {field} +WEST
}

class "Grid" {
  {field} -dimension : long
  {field} -items : Map<GridItem, Point>
  {method} +getItemLocation(GridItem) : Point
  {method} +moveItem(GridItem, Direction) : Point
  {method} +placeItem(GridItem, Point)
}

class "GridException" {
  {field} +message : string
}

interface "GridItem"

class "ItemExistsException"

class "ItemNotFoundException"

class "Kangaroo" {
  {field} -die : Die
  {method} +chortle(String)
  {method} +findHome(Grid, GridItem)
}

class "OutOfBoundsException" {
  {field} +location : Point
}

class "Point" {
  {field} +xCoordinate : long
  {field} +yCoordinate : long
  {method} +getNeighbour(Direction) : Point
}

"Die" - -> "Die" : instance
"Die" - -> "Direction" : history
"Grid" - -> "Direction" : use
"GridException" <|- - "ItemExistsException"
"GridException" <|- - "ItemNotFoundException"
"GridException" <|- - "OutOfBoundsException"
"GridItem" <|.. "Kangaroo"
"Grid" - -> "GridItem" : items
"Grid" - -> "Point" : items
"Kangaroo" - -> "Die" : die
"Kangaroo" - -> "Grid" : use
"OutOfBoundsException" - -> "Point" : location
"Point" - -> "Direction" : use
@enduml

PlantUML version 1.2020.17beta5(Unknown compile time)
(GPL source distribution)
Java Runtime: Java(TM) SE Runtime Environment
JVM: Java HotSpot(TM) 64-Bit Server VM
Default Encoding: UTF-8
Language: en
Country: US
--></g></svg>