<?xml version="1.0" encoding="UTF-8" standalone="no"?><svg xmlns="http://www.w3.org/2000/svg" xmlns:xlink="http://www.w3.org/1999/xlink" contentScriptType="application/ecmascript" contentStyleType="text/css" height="753px" preserveAspectRatio="none" style="width:1164px;height:753px;" version="1.1" viewBox="0 0 1164 753" width="1164px" zoomAndPan="magnify"><defs><filter height="300%" id="f1ns62gvq733pl" width="300%" x="-1" y="-1"><feGaussianBlur result="blurOut" stdDeviation="2.0"/><feColorMatrix in="blurOut" result="blurOut2" type="matrix" values="0 0 0 0 0 0 0 0 0 0 0 0 0 0 0 0 0 0 .4 0"/><feOffset dx="4.0" dy="4.0" in="blurOut2" result="blurOut3"/><feBlend in="SourceGraphic" in2="blurOut3" mode="normal"/></filter></defs><g><!--MD5=[2480c328a652427d4dbbcc1e7be82969]
cluster Skippy::Grid--><polygon fill="#FFFFFF" filter="url(#f1ns62gvq733pl)" points="16,190,121,190,128,212.2969,792,212.2969,792,563,16,563,16,190" style="stroke: #000000; stroke-width: 1.5;"/><line style="stroke: #000000; stroke-width: 1.5;" x1="16" x2="128" y1="212.2969" y2="212.2969"/><text fill="#000000" font-family="sans-serif" font-size="14" font-weight="bold" lengthAdjust="spacingAndGlyphs" textLength="99" x="20" y="204.9951">Skippy::Grid</text><!--MD5=[d8e99b02e308d5a9194ba3849595b696]
cluster Skippy::Kangaroo--><polygon fill="#FFFFFF" filter="url(#f1ns62gvq733pl)" points="816,6,964,6,971,28.2969,1002,28.2969,1002,321,816,321,816,6" style="stroke: #000000; stroke-width: 1.5;"/><line style="stroke: #000000; stroke-width: 1.5;" x1="816" x2="971" y1="28.2969" y2="28.2969"/><text fill="#000000" font-family="sans-serif" font-size="14" font-weight="bold" lengthAdjust="spacingAndGlyphs" textLength="142" x="820" y="20.9951">Skippy::Kangaroo</text><!--MD5=[c0c8d3d8f1c4f3cb0d806ef6657a1de3]
cluster Skippy::Direction--><polygon fill="#FFFFFF" filter="url(#f1ns62gvq733pl)" points="816,400,961,400,968,422.2969,1142,422.2969,1142,741,816,741,816,400" style="stroke: #000000; stroke-width: 1.5;"/><line style="stroke: #000000; stroke-width: 1.5;" x1="816" x2="968" y1="422.2969" y2="422.2969"/><text fill="#000000" font-family="sans-serif" font-size="14" font-weight="bold" lengthAdjust="spacingAndGlyphs" textLength="139" x="820" y="414.9951">Skippy::Direction</text><!--MD5=[4f6491ef8aea13c2b24f4cffc5e0f25c]
class Skippy::Grid.ItemExistsError--><rect codeLine="65" fill="#FEFECE" filter="url(#f1ns62gvq733pl)" height="48" id="Skippy::Grid.ItemExistsError" style="stroke: #A80036; stroke-width: 1.5;" width="123" x="32.5" y="257"/><ellipse cx="47.5" cy="273" fill="#ADD1B2" rx="11" ry="11" style="stroke: #A80036; stroke-width: 1.0;"/><path d="M49.8438,268.6719 C48.9063,268.2344 48.3125,268.0938 47.4375,268.0938 C44.8125,268.0938 42.8125,270.1719 42.8125,272.8906 L42.8125,274.0156 C42.8125,276.5938 44.9219,278.4844 47.8125,278.4844 C49.0313,278.4844 50.1875,278.1875 50.9375,277.6406 C51.5156,277.2344 51.8438,276.7813 51.8438,276.3906 C51.8438,275.9375 51.4531,275.5469 50.9844,275.5469 C50.7656,275.5469 50.5625,275.625 50.375,275.8125 C49.9219,276.2969 49.9219,276.2969 49.7344,276.3906 C49.3125,276.6563 48.625,276.7813 47.8594,276.7813 C45.8125,276.7813 44.5156,275.6875 44.5156,273.9844 L44.5156,272.8906 C44.5156,271.1094 45.7656,269.7969 47.5,269.7969 C48.0781,269.7969 48.6875,269.9531 49.1563,270.2031 C49.6406,270.4844 49.8125,270.7031 49.9063,271.1094 C49.9688,271.5156 50,271.6406 50.1406,271.7656 C50.2813,271.9063 50.5156,272.0156 50.7344,272.0156 C51,272.0156 51.2656,271.875 51.4375,271.6563 C51.5469,271.5 51.5781,271.3125 51.5781,270.8906 L51.5781,269.4688 C51.5781,269.0313 51.5625,268.9063 51.4688,268.75 C51.3125,268.4844 51.0313,268.3438 50.7344,268.3438 C50.4375,268.3438 50.2344,268.4375 50.0156,268.75 L49.8438,268.6719 Z "/><text fill="#000000" font-family="sans-serif" font-size="12" lengthAdjust="spacingAndGlyphs" textLength="91" x="61.5" y="277.1543">ItemExistsError</text><line style="stroke: #A80036; stroke-width: 1.5;" x1="33.5" x2="154.5" y1="289" y2="289"/><line style="stroke: #A80036; stroke-width: 1.5;" x1="33.5" x2="154.5" y1="297" y2="297"/><!--MD5=[11b91056a9c6008e9483165339fe4387]
class Skippy::Grid.ItemNotFoundError--><rect codeLine="67" fill="#FEFECE" filter="url(#f1ns62gvq733pl)" height="48" id="Skippy::Grid.ItemNotFoundError" style="stroke: #A80036; stroke-width: 1.5;" width="145" x="190.5" y="257"/><ellipse cx="205.5" cy="273" fill="#ADD1B2" rx="11" ry="11" style="stroke: #A80036; stroke-width: 1.0;"/><path d="M207.8438,268.6719 C206.9063,268.2344 206.3125,268.0938 205.4375,268.0938 C202.8125,268.0938 200.8125,270.1719 200.8125,272.8906 L200.8125,274.0156 C200.8125,276.5938 202.9219,278.4844 205.8125,278.4844 C207.0313,278.4844 208.1875,278.1875 208.9375,277.6406 C209.5156,277.2344 209.8438,276.7813 209.8438,276.3906 C209.8438,275.9375 209.4531,275.5469 208.9844,275.5469 C208.7656,275.5469 208.5625,275.625 208.375,275.8125 C207.9219,276.2969 207.9219,276.2969 207.7344,276.3906 C207.3125,276.6563 206.625,276.7813 205.8594,276.7813 C203.8125,276.7813 202.5156,275.6875 202.5156,273.9844 L202.5156,272.8906 C202.5156,271.1094 203.7656,269.7969 205.5,269.7969 C206.0781,269.7969 206.6875,269.9531 207.1563,270.2031 C207.6406,270.4844 207.8125,270.7031 207.9063,271.1094 C207.9688,271.5156 208,271.6406 208.1406,271.7656 C208.2813,271.9063 208.5156,272.0156 208.7344,272.0156 C209,272.0156 209.2656,271.875 209.4375,271.6563 C209.5469,271.5 209.5781,271.3125 209.5781,270.8906 L209.5781,269.4688 C209.5781,269.0313 209.5625,268.9063 209.4688,268.75 C209.3125,268.4844 209.0313,268.3438 208.7344,268.3438 C208.4375,268.3438 208.2344,268.4375 208.0156,268.75 L207.8438,268.6719 Z "/><text fill="#000000" font-family="sans-serif" font-size="12" lengthAdjust="spacingAndGlyphs" textLength="113" x="219.5" y="277.1543">ItemNotFoundError</text><line style="stroke: #A80036; stroke-width: 1.5;" x1="191.5" x2="334.5" y1="289" y2="289"/><line style="stroke: #A80036; stroke-width: 1.5;" x1="191.5" x2="334.5" y1="297" y2="297"/><!--MD5=[0cb7634245798af40ad9e6fc1841a53b]
class Skippy::Grid.OutOfBoundsError--><rect codeLine="69" fill="#FEFECE" filter="url(#f1ns62gvq733pl)" height="60.8047" id="Skippy::Grid.OutOfBoundsError" style="stroke: #A80036; stroke-width: 1.5;" width="142" x="371" y="250.5"/><ellipse cx="386" cy="266.5" fill="#ADD1B2" rx="11" ry="11" style="stroke: #A80036; stroke-width: 1.0;"/><path d="M388.3438,262.1719 C387.4063,261.7344 386.8125,261.5938 385.9375,261.5938 C383.3125,261.5938 381.3125,263.6719 381.3125,266.3906 L381.3125,267.5156 C381.3125,270.0938 383.4219,271.9844 386.3125,271.9844 C387.5313,271.9844 388.6875,271.6875 389.4375,271.1406 C390.0156,270.7344 390.3438,270.2813 390.3438,269.8906 C390.3438,269.4375 389.9531,269.0469 389.4844,269.0469 C389.2656,269.0469 389.0625,269.125 388.875,269.3125 C388.4219,269.7969 388.4219,269.7969 388.2344,269.8906 C387.8125,270.1563 387.125,270.2813 386.3594,270.2813 C384.3125,270.2813 383.0156,269.1875 383.0156,267.4844 L383.0156,266.3906 C383.0156,264.6094 384.2656,263.2969 386,263.2969 C386.5781,263.2969 387.1875,263.4531 387.6563,263.7031 C388.1406,263.9844 388.3125,264.2031 388.4063,264.6094 C388.4688,265.0156 388.5,265.1406 388.6406,265.2656 C388.7813,265.4063 389.0156,265.5156 389.2344,265.5156 C389.5,265.5156 389.7656,265.375 389.9375,265.1563 C390.0469,265 390.0781,264.8125 390.0781,264.3906 L390.0781,262.9688 C390.0781,262.5313 390.0625,262.4063 389.9688,262.25 C389.8125,261.9844 389.5313,261.8438 389.2344,261.8438 C388.9375,261.8438 388.7344,261.9375 388.5156,262.25 L388.3438,262.1719 Z "/><text fill="#000000" font-family="sans-serif" font-size="12" lengthAdjust="spacingAndGlyphs" textLength="110" x="400" y="270.6543">OutOfBoundsError</text><line style="stroke: #A80036; stroke-width: 1.5;" x1="372" x2="512" y1="282.5" y2="282.5"/><text fill="#000000" font-family="sans-serif" font-size="11" lengthAdjust="spacingAndGlyphs" textLength="91" x="377" y="296.7104">+location : Point</text><line style="stroke: #A80036; stroke-width: 1.5;" x1="372" x2="512" y1="303.3047" y2="303.3047"/><!--MD5=[eec6e9fa189490ce062232ac7b34704c]
class Skippy::Grid.Grid--><rect codeLine="49" fill="#FEFECE" filter="url(#f1ns62gvq733pl)" height="112.0234" id="Skippy::Grid.Grid" style="stroke: #A80036; stroke-width: 1.5;" width="227" x="548.5" y="225"/><ellipse cx="645.25" cy="241" fill="#ADD1B2" rx="11" ry="11" style="stroke: #A80036; stroke-width: 1.0;"/><path d="M647.5938,236.6719 C646.6563,236.2344 646.0625,236.0938 645.1875,236.0938 C642.5625,236.0938 640.5625,238.1719 640.5625,240.8906 L640.5625,242.0156 C640.5625,244.5938 642.6719,246.4844 645.5625,246.4844 C646.7813,246.4844 647.9375,246.1875 648.6875,245.6406 C649.2656,245.2344 649.5938,244.7813 649.5938,244.3906 C649.5938,243.9375 649.2031,243.5469 648.7344,243.5469 C648.5156,243.5469 648.3125,243.625 648.125,243.8125 C647.6719,244.2969 647.6719,244.2969 647.4844,244.3906 C647.0625,244.6563 646.375,244.7813 645.6094,244.7813 C643.5625,244.7813 642.2656,243.6875 642.2656,241.9844 L642.2656,240.8906 C642.2656,239.1094 643.5156,237.7969 645.25,237.7969 C645.8281,237.7969 646.4375,237.9531 646.9063,238.2031 C647.3906,238.4844 647.5625,238.7031 647.6563,239.1094 C647.7188,239.5156 647.75,239.6406 647.8906,239.7656 C648.0313,239.9063 648.2656,240.0156 648.4844,240.0156 C648.75,240.0156 649.0156,239.875 649.1875,239.6563 C649.2969,239.5 649.3281,239.3125 649.3281,238.8906 L649.3281,237.4688 C649.3281,237.0313 649.3125,236.9063 649.2188,236.75 C649.0625,236.4844 648.7813,236.3438 648.4844,236.3438 C648.1875,236.3438 647.9844,236.4375 647.7656,236.75 L647.5938,236.6719 Z "/><text fill="#000000" font-family="sans-serif" font-size="12" lengthAdjust="spacingAndGlyphs" textLength="25" x="665.75" y="245.1543">Grid</text><line style="stroke: #A80036; stroke-width: 1.5;" x1="549.5" x2="774.5" y1="257" y2="257"/><text fill="#000000" font-family="sans-serif" font-size="11" lengthAdjust="spacingAndGlyphs" textLength="115" x="554.5" y="271.2104">-dimension : Integer</text><text fill="#000000" font-family="sans-serif" font-size="11" lengthAdjust="spacingAndGlyphs" textLength="164" x="554.5" y="284.0151">-items : Hash&lt;Object, Point&gt;</text><line style="stroke: #A80036; stroke-width: 1.5;" x1="549.5" x2="774.5" y1="290.6094" y2="290.6094"/><text fill="#000000" font-family="sans-serif" font-size="11" lengthAdjust="spacingAndGlyphs" textLength="151" x="554.5" y="304.8198">+place_item(Object, Point)</text><text fill="#000000" font-family="sans-serif" font-size="11" lengthAdjust="spacingAndGlyphs" textLength="193" x="554.5" y="317.6245">+get_item_location(Object) : Point</text><text fill="#000000" font-family="sans-serif" font-size="11" lengthAdjust="spacingAndGlyphs" textLength="215" x="554.5" y="330.4292">+move_item(Object, Direction) : Point</text><!--MD5=[dc809a3044cda2ca04d9a608838443df]
class Skippy::Grid.Point--><rect codeLine="57" fill="#FEFECE" filter="url(#f1ns62gvq733pl)" height="112.0234" id="Skippy::Grid.Point" style="stroke: #A80036; stroke-width: 1.5;" width="200" x="576" y="435"/><ellipse cx="657.75" cy="451" fill="#ADD1B2" rx="11" ry="11" style="stroke: #A80036; stroke-width: 1.0;"/><path d="M660.0938,446.6719 C659.1563,446.2344 658.5625,446.0938 657.6875,446.0938 C655.0625,446.0938 653.0625,448.1719 653.0625,450.8906 L653.0625,452.0156 C653.0625,454.5938 655.1719,456.4844 658.0625,456.4844 C659.2813,456.4844 660.4375,456.1875 661.1875,455.6406 C661.7656,455.2344 662.0938,454.7813 662.0938,454.3906 C662.0938,453.9375 661.7031,453.5469 661.2344,453.5469 C661.0156,453.5469 660.8125,453.625 660.625,453.8125 C660.1719,454.2969 660.1719,454.2969 659.9844,454.3906 C659.5625,454.6563 658.875,454.7813 658.1094,454.7813 C656.0625,454.7813 654.7656,453.6875 654.7656,451.9844 L654.7656,450.8906 C654.7656,449.1094 656.0156,447.7969 657.75,447.7969 C658.3281,447.7969 658.9375,447.9531 659.4063,448.2031 C659.8906,448.4844 660.0625,448.7031 660.1563,449.1094 C660.2188,449.5156 660.25,449.6406 660.3906,449.7656 C660.5313,449.9063 660.7656,450.0156 660.9844,450.0156 C661.25,450.0156 661.5156,449.875 661.6875,449.6563 C661.7969,449.5 661.8281,449.3125 661.8281,448.8906 L661.8281,447.4688 C661.8281,447.0313 661.8125,446.9063 661.7188,446.75 C661.5625,446.4844 661.2813,446.3438 660.9844,446.3438 C660.6875,446.3438 660.4844,446.4375 660.2656,446.75 L660.0938,446.6719 Z "/><text fill="#000000" font-family="sans-serif" font-size="12" lengthAdjust="spacingAndGlyphs" textLength="28" x="678.25" y="455.1543">Point</text><line style="stroke: #A80036; stroke-width: 1.5;" x1="577" x2="775" y1="467" y2="467"/><text fill="#000000" font-family="sans-serif" font-size="11" lengthAdjust="spacingAndGlyphs" textLength="134" x="582" y="481.2104">+x_coordinate : Integer</text><text fill="#000000" font-family="sans-serif" font-size="11" lengthAdjust="spacingAndGlyphs" textLength="134" x="582" y="494.0151">+y_coordinate : Integer</text><line style="stroke: #A80036; stroke-width: 1.5;" x1="577" x2="775" y1="500.6094" y2="500.6094"/><text fill="#000000" font-family="sans-serif" font-size="11" lengthAdjust="spacingAndGlyphs" textLength="188" x="582" y="514.8198">+get_neighbour(Direction) : Point</text><text fill="#000000" font-family="sans-serif" font-size="11" lengthAdjust="spacingAndGlyphs" textLength="76" x="582" y="527.6245">+to_s : String</text><text fill="#000000" font-family="sans-serif" font-size="11" lengthAdjust="spacingAndGlyphs" textLength="120" x="582" y="540.4292">+==(Point) : Boolean</text><!--MD5=[1650f5dc35f42a2fdfbf6a1a4d213720]
class Skippy::Kangaroo.Home--><rect codeLine="13" fill="#FEFECE" filter="url(#f1ns62gvq733pl)" height="48" id="Skippy::Kangaroo.Home" style="stroke: #A80036; stroke-width: 1.5;" width="68" x="832" y="257"/><ellipse cx="847" cy="273" fill="#ADD1B2" rx="11" ry="11" style="stroke: #A80036; stroke-width: 1.0;"/><path d="M849.3438,268.6719 C848.4063,268.2344 847.8125,268.0938 846.9375,268.0938 C844.3125,268.0938 842.3125,270.1719 842.3125,272.8906 L842.3125,274.0156 C842.3125,276.5938 844.4219,278.4844 847.3125,278.4844 C848.5313,278.4844 849.6875,278.1875 850.4375,277.6406 C851.0156,277.2344 851.3438,276.7813 851.3438,276.3906 C851.3438,275.9375 850.9531,275.5469 850.4844,275.5469 C850.2656,275.5469 850.0625,275.625 849.875,275.8125 C849.4219,276.2969 849.4219,276.2969 849.2344,276.3906 C848.8125,276.6563 848.125,276.7813 847.3594,276.7813 C845.3125,276.7813 844.0156,275.6875 844.0156,273.9844 L844.0156,272.8906 C844.0156,271.1094 845.2656,269.7969 847,269.7969 C847.5781,269.7969 848.1875,269.9531 848.6563,270.2031 C849.1406,270.4844 849.3125,270.7031 849.4063,271.1094 C849.4688,271.5156 849.5,271.6406 849.6406,271.7656 C849.7813,271.9063 850.0156,272.0156 850.2344,272.0156 C850.5,272.0156 850.7656,271.875 850.9375,271.6563 C851.0469,271.5 851.0781,271.3125 851.0781,270.8906 L851.0781,269.4688 C851.0781,269.0313 851.0625,268.9063 850.9688,268.75 C850.8125,268.4844 850.5313,268.3438 850.2344,268.3438 C849.9375,268.3438 849.7344,268.4375 849.5156,268.75 L849.3438,268.6719 Z "/><text fill="#000000" font-family="sans-serif" font-size="12" lengthAdjust="spacingAndGlyphs" textLength="36" x="861" y="277.1543">Home</text><line style="stroke: #A80036; stroke-width: 1.5;" x1="833" x2="899" y1="289" y2="289"/><line style="stroke: #A80036; stroke-width: 1.5;" x1="833" x2="899" y1="297" y2="297"/><!--MD5=[f44e60d7ddca8c91877447a88cef3833]
class Skippy::Kangaroo.Kangaroo--><rect codeLine="15" fill="#FEFECE" filter="url(#f1ns62gvq733pl)" height="86.4141" id="Skippy::Kangaroo.Kangaroo" style="stroke: #A80036; stroke-width: 1.5;" width="153" x="832.5" y="41"/><ellipse cx="875.85" cy="57" fill="#ADD1B2" rx="11" ry="11" style="stroke: #A80036; stroke-width: 1.0;"/><path d="M878.1938,52.6719 C877.2563,52.2344 876.6625,52.0938 875.7875,52.0938 C873.1625,52.0938 871.1625,54.1719 871.1625,56.8906 L871.1625,58.0156 C871.1625,60.5938 873.2719,62.4844 876.1625,62.4844 C877.3813,62.4844 878.5375,62.1875 879.2875,61.6406 C879.8656,61.2344 880.1938,60.7813 880.1938,60.3906 C880.1938,59.9375 879.8031,59.5469 879.3344,59.5469 C879.1156,59.5469 878.9125,59.625 878.725,59.8125 C878.2719,60.2969 878.2719,60.2969 878.0844,60.3906 C877.6625,60.6563 876.975,60.7813 876.2094,60.7813 C874.1625,60.7813 872.8656,59.6875 872.8656,57.9844 L872.8656,56.8906 C872.8656,55.1094 874.1156,53.7969 875.85,53.7969 C876.4281,53.7969 877.0375,53.9531 877.5063,54.2031 C877.9906,54.4844 878.1625,54.7031 878.2563,55.1094 C878.3188,55.5156 878.35,55.6406 878.4906,55.7656 C878.6313,55.9063 878.8656,56.0156 879.0844,56.0156 C879.35,56.0156 879.6156,55.875 879.7875,55.6563 C879.8969,55.5 879.9281,55.3125 879.9281,54.8906 L879.9281,53.4688 C879.9281,53.0313 879.9125,52.9063 879.8188,52.75 C879.6625,52.4844 879.3813,52.3438 879.0844,52.3438 C878.7875,52.3438 878.5844,52.4375 878.3656,52.75 L878.1938,52.6719 Z "/><text fill="#000000" font-family="sans-serif" font-size="12" lengthAdjust="spacingAndGlyphs" textLength="58" x="896.15" y="61.1543">Kangaroo</text><line style="stroke: #A80036; stroke-width: 1.5;" x1="833.5" x2="984.5" y1="73" y2="73"/><text fill="#000000" font-family="sans-serif" font-size="11" lengthAdjust="spacingAndGlyphs" textLength="53" x="838.5" y="87.2104">-die : Die</text><line style="stroke: #A80036; stroke-width: 1.5;" x1="833.5" x2="984.5" y1="93.8047" y2="93.8047"/><text fill="#000000" font-family="sans-serif" font-size="11" lengthAdjust="spacingAndGlyphs" textLength="89" x="838.5" y="108.0151">+chortle(String)</text><text fill="#000000" font-family="sans-serif" font-size="11" lengthAdjust="spacingAndGlyphs" textLength="141" x="838.5" y="120.8198">+find_home(Grid, Home)</text><!--MD5=[555300db49ce91f544554aa7b6db1dfe]
class Skippy::Direction.Die--><rect codeLine="28" fill="#FEFECE" filter="url(#f1ns62gvq733pl)" height="112.0234" id="Skippy::Direction.Die" style="stroke: #A80036; stroke-width: 1.5;" width="210" x="832" y="435"/><ellipse cx="922.75" cy="451" fill="#ADD1B2" rx="11" ry="11" style="stroke: #A80036; stroke-width: 1.0;"/><path d="M925.0938,446.6719 C924.1563,446.2344 923.5625,446.0938 922.6875,446.0938 C920.0625,446.0938 918.0625,448.1719 918.0625,450.8906 L918.0625,452.0156 C918.0625,454.5938 920.1719,456.4844 923.0625,456.4844 C924.2813,456.4844 925.4375,456.1875 926.1875,455.6406 C926.7656,455.2344 927.0938,454.7813 927.0938,454.3906 C927.0938,453.9375 926.7031,453.5469 926.2344,453.5469 C926.0156,453.5469 925.8125,453.625 925.625,453.8125 C925.1719,454.2969 925.1719,454.2969 924.9844,454.3906 C924.5625,454.6563 923.875,454.7813 923.1094,454.7813 C921.0625,454.7813 919.7656,453.6875 919.7656,451.9844 L919.7656,450.8906 C919.7656,449.1094 921.0156,447.7969 922.75,447.7969 C923.3281,447.7969 923.9375,447.9531 924.4063,448.2031 C924.8906,448.4844 925.0625,448.7031 925.1563,449.1094 C925.2188,449.5156 925.25,449.6406 925.3906,449.7656 C925.5313,449.9063 925.7656,450.0156 925.9844,450.0156 C926.25,450.0156 926.5156,449.875 926.6875,449.6563 C926.7969,449.5 926.8281,449.3125 926.8281,448.8906 L926.8281,447.4688 C926.8281,447.0313 926.8125,446.9063 926.7188,446.75 C926.5625,446.4844 926.2813,446.3438 925.9844,446.3438 C925.6875,446.3438 925.4844,446.4375 925.2656,446.75 L925.0938,446.6719 Z "/><text fill="#000000" font-family="sans-serif" font-size="12" lengthAdjust="spacingAndGlyphs" textLength="20" x="943.25" y="455.1543">Die</text><line style="stroke: #A80036; stroke-width: 1.5;" x1="833" x2="1041" y1="467" y2="467"/><text fill="#000000" font-family="sans-serif" font-size="11" lengthAdjust="spacingAndGlyphs" text-decoration="underline" textLength="79" x="838" y="481.2104">-instance: Die</text><text fill="#000000" font-family="sans-serif" font-size="11" lengthAdjust="spacingAndGlyphs" textLength="198" x="838" y="494.0151">-history : Hash&lt;Direction, Integer&gt;</text><text fill="#000000" font-family="sans-serif" font-size="11" lengthAdjust="spacingAndGlyphs" textLength="104" x="838" y="506.8198">-random : Random</text><line style="stroke: #A80036; stroke-width: 1.5;" x1="833" x2="1041" y1="513.4141" y2="513.4141"/><text fill="#000000" font-family="sans-serif" font-size="11" lengthAdjust="spacingAndGlyphs" textLength="88" x="838" y="527.6245">+roll : Direction</text><text fill="#000000" font-family="sans-serif" font-size="11" lengthAdjust="spacingAndGlyphs" textLength="67" x="838" y="540.4292">+print_stats</text><!--MD5=[5d5ef6d9456968071aa298e3114d0ed9]
class Skippy::Direction.Direction--><rect codeLine="36" fill="#FEFECE" filter="url(#f1ns62gvq733pl)" height="99.2188" id="Skippy::Direction.Direction" style="stroke: #A80036; stroke-width: 1.5;" width="86" x="832" y="626"/><ellipse cx="847" cy="642" fill="#EB937F" rx="11" ry="11" style="stroke: #A80036; stroke-width: 1.0;"/><path d="M845.7969,642.875 L847.25,642.875 L847.25,642.9844 C847.25,643.3906 847.2813,643.5469 847.3594,643.7031 C847.5156,643.9531 847.7969,644.1094 848.0938,644.1094 C848.3438,644.1094 848.6094,643.9688 848.7656,643.75 C848.8906,643.5938 848.9219,643.4375 848.9219,642.9844 L848.9219,641.0625 C848.9219,640.9063 848.9219,640.8594 848.9063,640.7031 C848.8438,640.2344 848.5313,639.9219 848.0781,639.9219 C847.8281,639.9219 847.5625,640.0625 847.3906,640.2813 C847.2813,640.4531 847.25,640.6094 847.25,641.0625 L847.25,641.1875 L845.7969,641.1875 L845.7969,638.7813 L849.7813,638.7813 L849.7813,639.6406 C849.7813,640.0469 849.8125,640.2188 849.8906,640.375 C850.0625,640.625 850.3438,640.7813 850.625,640.7813 C850.8906,640.7813 851.1563,640.6406 851.3281,640.4219 C851.4375,640.25 851.4688,640.1094 851.4688,639.6406 L851.4688,637.0938 L843.8438,637.0938 C843.4063,637.0938 843.2813,637.1094 843.125,637.2031 C842.875,637.3594 842.7188,637.6563 842.7188,637.9375 C842.7188,638.2188 842.8594,638.4688 843.0781,638.6406 C843.2344,638.75 843.4219,638.7813 843.8438,638.7813 L844.0938,638.7813 L844.0938,645.2969 L843.8438,645.2969 C843.4375,645.2969 843.2813,645.3125 843.125,645.4219 C842.875,645.5938 842.7188,645.8594 842.7188,646.1563 C842.7188,646.4219 842.8594,646.6719 843.0781,646.8281 C843.2188,646.9531 843.4531,647 843.8438,647 L851.8438,647 L851.8438,644.4219 C851.8438,643.9844 851.8125,643.8438 851.7344,643.6875 C851.5625,643.4375 851.2813,643.2813 851,643.2813 C850.7344,643.2813 850.4688,643.3906 850.2969,643.6406 C850.1875,643.7969 850.1563,643.9375 850.1563,644.4219 L850.1563,645.2969 L845.7969,645.2969 L845.7969,642.875 Z "/><text fill="#000000" font-family="sans-serif" font-size="12" lengthAdjust="spacingAndGlyphs" textLength="54" x="861" y="646.1543">Direction</text><line style="stroke: #A80036; stroke-width: 1.5;" x1="833" x2="917" y1="658" y2="658"/><text fill="#000000" font-family="sans-serif" font-size="11" lengthAdjust="spacingAndGlyphs" textLength="48" x="838" y="672.2104">+NORTH</text><text fill="#000000" font-family="sans-serif" font-size="11" lengthAdjust="spacingAndGlyphs" textLength="39" x="838" y="685.0151">+EAST</text><text fill="#000000" font-family="sans-serif" font-size="11" lengthAdjust="spacingAndGlyphs" textLength="49" x="838" y="697.8198">+SOUTH</text><text fill="#000000" font-family="sans-serif" font-size="11" lengthAdjust="spacingAndGlyphs" textLength="42" x="838" y="710.6245">+WEST</text><line style="stroke: #A80036; stroke-width: 1.5;" x1="833" x2="917" y1="717.2188" y2="717.2188"/><!--MD5=[072a6c458e8d6cf1d9d8102085674625]
class StandardError--><rect codeLine="3" fill="#FEFECE" filter="url(#f1ns62gvq733pl)" height="60.8047" id="StandardError" style="stroke: #A80036; stroke-width: 1.5;" width="118" x="204" y="53.5"/><ellipse cx="219.9" cy="69.5" fill="#ADD1B2" rx="11" ry="11" style="stroke: #A80036; stroke-width: 1.0;"/><path d="M222.2438,65.1719 C221.3063,64.7344 220.7125,64.5938 219.8375,64.5938 C217.2125,64.5938 215.2125,66.6719 215.2125,69.3906 L215.2125,70.5156 C215.2125,73.0938 217.3219,74.9844 220.2125,74.9844 C221.4313,74.9844 222.5875,74.6875 223.3375,74.1406 C223.9156,73.7344 224.2438,73.2813 224.2438,72.8906 C224.2438,72.4375 223.8531,72.0469 223.3844,72.0469 C223.1656,72.0469 222.9625,72.125 222.775,72.3125 C222.3219,72.7969 222.3219,72.7969 222.1344,72.8906 C221.7125,73.1563 221.025,73.2813 220.2594,73.2813 C218.2125,73.2813 216.9156,72.1875 216.9156,70.4844 L216.9156,69.3906 C216.9156,67.6094 218.1656,66.2969 219.9,66.2969 C220.4781,66.2969 221.0875,66.4531 221.5563,66.7031 C222.0406,66.9844 222.2125,67.2031 222.3063,67.6094 C222.3688,68.0156 222.4,68.1406 222.5406,68.2656 C222.6813,68.4063 222.9156,68.5156 223.1344,68.5156 C223.4,68.5156 223.6656,68.375 223.8375,68.1563 C223.9469,68 223.9781,67.8125 223.9781,67.3906 L223.9781,65.9688 C223.9781,65.5313 223.9625,65.4063 223.8688,65.25 C223.7125,64.9844 223.4313,64.8438 223.1344,64.8438 C222.8375,64.8438 222.6344,64.9375 222.4156,65.25 L222.2438,65.1719 Z "/><text fill="#000000" font-family="sans-serif" font-size="12" lengthAdjust="spacingAndGlyphs" textLength="84" x="234.1" y="73.6543">StandardError</text><line style="stroke: #A80036; stroke-width: 1.5;" x1="205" x2="321" y1="85.5" y2="85.5"/><text fill="#000000" font-family="sans-serif" font-size="11" lengthAdjust="spacingAndGlyphs" textLength="106" x="210" y="99.7104">+message : String</text><line style="stroke: #A80036; stroke-width: 1.5;" x1="205" x2="321" y1="106.3047" y2="106.3047"/><!--MD5=[8b6a81d451960bcae9cffe5ab365f9d4]
reverse link StandardError to Skippy::Grid.ItemExistsError--><path codeLine="7" d="M220.572,129.423 C205.32,145.732 188.149,164.49 173,182 C151.41,206.956 127.804,236.567 112.072,256.66 " fill="none" id="StandardError-backto-Skippy::Grid.ItemExistsError" style="stroke: #A80036; stroke-width: 1.0;"/><polygon fill="none" points="215.671,124.417,234.48,114.657,225.863,134.016,215.671,124.417" style="stroke: #A80036; stroke-width: 1.0;"/><!--MD5=[f0744c57c216af1fe228ee44c7d8c359]
reverse link StandardError to Skippy::Grid.ItemNotFoundError--><path codeLine="8" d="M263,134.769 C263,173.997 263,226.909 263,256.838 " fill="none" id="StandardError-backto-Skippy::Grid.ItemNotFoundError" style="stroke: #A80036; stroke-width: 1.0;"/><polygon fill="none" points="256,134.616,263,114.616,270,134.616,256,134.616" style="stroke: #A80036; stroke-width: 1.0;"/><!--MD5=[2f188184de016bd008b6a4b713a89770]
reverse link StandardError to Skippy::Grid.OutOfBoundsError--><path codeLine="9" d="M304.288,129.3 C319.624,145.807 337.143,164.726 353,182 C373.982,204.857 397.584,230.86 415.209,250.335 " fill="none" id="StandardError-backto-Skippy::Grid.OutOfBoundsError" style="stroke: #A80036; stroke-width: 1.0;"/><polygon fill="none" points="299.15,134.054,290.655,114.641,309.402,124.519,299.15,134.054" style="stroke: #A80036; stroke-width: 1.0;"/><!--MD5=[867f823d9d8b8e6b0483686762ed3228]
link Skippy::Kangaroo.Kangaroo to Skippy::Direction.Die--><path codeLine="21" d="M920.483,127.38 C922.689,137.048 924.711,147.324 926,157 C938.619,251.719 939.532,362.859 938.593,429.784 " fill="none" id="Skippy::Kangaroo.Kangaroo-to-Skippy::Direction.Die" style="stroke: #A80036; stroke-width: 1.0;"/><polygon fill="#A80036" points="938.516,434.924,942.6518,425.9856,938.5917,429.9246,934.6527,425.8645,938.516,434.924" style="stroke: #A80036; stroke-width: 1.0;"/><text fill="#000000" font-family="sans-serif" font-size="13" lengthAdjust="spacingAndGlyphs" textLength="19" x="939" y="285.5669">die</text><!--MD5=[fe255ceba9c2bea2e116a05eeb51e86b]
link Skippy::Kangaroo.Kangaroo to Skippy::Grid.Grid--><path codeLine="22" d="M855.709,127.072 C820.816,154.619 774.728,191.004 736.26,221.373 " fill="none" id="Skippy::Kangaroo.Kangaroo-to-Skippy::Grid.Grid" style="stroke: #A80036; stroke-width: 1.0;"/><polygon fill="#A80036" points="732.087,224.668,741.6293,222.2301,736.0112,221.5695,736.6718,215.9513,732.087,224.668" style="stroke: #A80036; stroke-width: 1.0;"/><text fill="#000000" font-family="sans-serif" font-size="13" lengthAdjust="spacingAndGlyphs" textLength="23" x="816" y="170.0669">use</text><!--MD5=[d932132a6e473312830fc3030ecc4c4c]
link Skippy::Kangaroo.Kangaroo to Skippy::Kangaroo.Home--><path codeLine="23" d="M899.67,127.312 C891.346,165.058 879.395,219.257 872.196,251.902 " fill="none" id="Skippy::Kangaroo.Kangaroo-to-Skippy::Kangaroo.Home" style="stroke: #A80036; stroke-width: 1.0;"/><polygon fill="#A80036" points="871.083,256.951,876.9278,249.024,872.1601,252.0684,869.1157,247.3006,871.083,256.951" style="stroke: #A80036; stroke-width: 1.0;"/><text fill="#000000" font-family="sans-serif" font-size="13" lengthAdjust="spacingAndGlyphs" textLength="23" x="894" y="170.0669">use</text><!--MD5=[d0a24801d15513893a5c50331cf078c7]
link Skippy::Direction.Die to Skippy::Direction.Die--><path codeLine="43" d="M1042.01,473.801 C1062.47,475.798 1077,481.531 1077,491 C1077,499.655 1064.86,505.189 1047.15,507.601 " fill="none" id="Skippy::Direction.Die-to-Skippy::Direction.Die" style="stroke: #A80036; stroke-width: 1.0;"/><polygon fill="#A80036" points="1042.01,508.199,1051.4083,511.1439,1046.9772,507.6274,1050.4937,503.1963,1042.01,508.199" style="stroke: #A80036; stroke-width: 1.0;"/><text fill="#000000" font-family="sans-serif" font-size="13" lengthAdjust="spacingAndGlyphs" textLength="54" x="1083" y="495.5669">instance</text><!--MD5=[b7c544e090f9b14aad604fb45c45c103]
link Skippy::Direction.Die to Skippy::Direction.Direction--><path codeLine="44" d="M918.23,547.251 C910.277,570.66 901.046,597.833 893.161,621.043 " fill="none" id="Skippy::Direction.Die-to-Skippy::Direction.Direction" style="stroke: #A80036; stroke-width: 1.0;"/><polygon fill="#A80036" points="891.499,625.933,898.1817,618.6983,893.1075,621.1988,890.607,616.1246,891.499,625.933" style="stroke: #A80036; stroke-width: 1.0;"/><text fill="#000000" font-family="sans-serif" font-size="13" lengthAdjust="spacingAndGlyphs" textLength="44" x="907" y="592.0669">history</text><!--MD5=[cd5634624b2c2a741dd9809eaadf9ace]
link Skippy::Grid.Grid to Skippy::Direction.Direction--><path codeLine="73" d="M564.613,337.12 C554.486,346.034 545.263,356.001 538,367 C501.049,422.954 429.919,432.106 533,571 C568.297,618.559 741.208,652.753 826.808,667.0597 " fill="none" id="Skippy::Grid.Grid-to-Skippy::Direction.Direction" style="stroke: #A80036; stroke-width: 1.0;"/><polygon fill="#A80036" points="831.818,667.891,823.5943,662.4715,826.8855,667.0724,822.2846,670.3636,831.818,667.891" style="stroke: #A80036; stroke-width: 1.0;"/><text fill="#000000" font-family="sans-serif" font-size="13" lengthAdjust="spacingAndGlyphs" textLength="23" x="534" y="495.5669">use</text><!--MD5=[d5f52076ceb07d4f5debeae506886032]
link Skippy::Grid.OutOfBoundsError to Skippy::Grid.Point--><path codeLine="74" d="M475.526,311.801 C510.488,342.878 566.198,392.398 610.027,431.357 " fill="none" id="Skippy::Grid.OutOfBoundsError-to-Skippy::Grid.Point" style="stroke: #A80036; stroke-width: 1.0;"/><polygon fill="#A80036" points="613.962,434.855,609.8921,425.8864,610.2247,431.5334,604.5776,431.866,613.962,434.855" style="stroke: #A80036; stroke-width: 1.0;"/><text fill="#000000" font-family="sans-serif" font-size="13" lengthAdjust="spacingAndGlyphs" textLength="50" x="553" y="380.0669">location</text><!--MD5=[e5bab1a25e5f9487df184c233f120f48]
link Skippy::Grid.Grid to Skippy::Grid.Point--><path codeLine="75" d="M665.715,337.194 C667.637,365.751 669.987,400.657 671.954,429.894 " fill="none" id="Skippy::Grid.Grid-to-Skippy::Grid.Point" style="stroke: #A80036; stroke-width: 1.0;"/><polygon fill="#A80036" points="672.292,434.909,675.6787,425.6607,671.9563,429.9203,667.6967,426.1979,672.292,434.909" style="stroke: #A80036; stroke-width: 1.0;"/><text fill="#000000" font-family="sans-serif" font-size="13" lengthAdjust="spacingAndGlyphs" textLength="36" x="670" y="380.0669">items</text><!--MD5=[a0c4b002db4977b0a1cab63faaef7092]
link Skippy::Grid.Point to Skippy::Direction.Direction--><path codeLine="76" d="M735.976,547.004 C765.427,574.012 800.394,606.08 827.892,631.298 " fill="none" id="Skippy::Grid.Point-to-Skippy::Direction.Direction" style="stroke: #A80036; stroke-width: 1.0;"/><polygon fill="#A80036" points="831.894,634.968,827.9643,625.9371,828.2089,631.5887,822.5573,631.8333,831.894,634.968" style="stroke: #A80036; stroke-width: 1.0;"/><text fill="#000000" font-family="sans-serif" font-size="13" lengthAdjust="spacingAndGlyphs" textLength="23" x="789" y="592.0669">use</text><!--MD5=[0e75c63a14b1221ed242a8248e46c7c3]
@startuml
skinparam classAttributeIconSize 0

class StandardError {
  {field} +message : String
}

StandardError <|- - Skippy::Grid.ItemExistsError
StandardError <|- - Skippy::Grid.ItemNotFoundError
StandardError <|- - Skippy::Grid.OutOfBoundsError
    
namespace Skippy::Kangaroo {

    class Home

    class Kangaroo {
      {field} -die : Die
      {method} +chortle(String)
      {method} +find_home(Grid, Home)
    }
    
    Kangaroo - -> Skippy::Direction.Die : die
    Kangaroo - -> Skippy::Grid.Grid : use
    Kangaroo - -> Home : use
}

namespace Skippy::Direction {

    class Die {
      {field} {static} -instance: Die
      {field} -history : Hash<Direction, Integer>
      {field} -random : Random
      {method} +roll : Direction
      {method} +print_stats  
    }

    enum Direction {
      {field} +NORTH
      {field} +EAST
      {field} +SOUTH
      {field} +WEST
    }
    
    Die - -> Die : instance
    Die - -> Direction : history
}

namespace Skippy::Grid {

    class Grid {
      {field} -dimension : Integer
      {field} -items : Hash<Object, Point>
      {method} +place_item(Object, Point)
      {method} +get_item_location(Object) : Point
      {method} +move_item(Object, Direction) : Point
    }
    
    class Point {
      {field} +x_coordinate : Integer
      {field} +y_coordinate : Integer
      {method} +get_neighbour(Direction) : Point
      {method} +to_s : String
      {method} +==(Point) : Boolean
    }

    class ItemExistsError

    class ItemNotFoundError

    class OutOfBoundsError {
      {field} +location : Point
    }
    
    Grid - -> Skippy::Direction.Direction : use
    OutOfBoundsError - -> Point : location
    Grid - -> Point : items
    Point - -> Skippy::Direction.Direction : use
}
@enduml

PlantUML version 1.2020.17beta5(Unknown compile time)
(GPL source distribution)
Java Runtime: Java(TM) SE Runtime Environment
JVM: Java HotSpot(TM) 64-Bit Server VM
Default Encoding: UTF-8
Language: en
Country: US
--></g></svg>