<?xml version="1.0" encoding="UTF-8" standalone="no"?><svg xmlns="http://www.w3.org/2000/svg" xmlns:xlink="http://www.w3.org/1999/xlink" contentScriptType="application/ecmascript" contentStyleType="text/css" height="761px" preserveAspectRatio="none" style="width:1048px;height:761px;" version="1.1" viewBox="0 0 1048 761" width="1048px" zoomAndPan="magnify"><defs><filter height="300%" id="fq499f1vgl7d2" width="300%" x="-1" y="-1"><feGaussianBlur result="blurOut" stdDeviation="2.0"/><feColorMatrix in="blurOut" result="blurOut2" type="matrix" values="0 0 0 0 0 0 0 0 0 0 0 0 0 0 0 0 0 0 .4 0"/><feOffset dx="4.0" dy="4.0" in="blurOut2" result="blurOut3"/><feBlend in="SourceGraphic" in2="blurOut3" mode="normal"/></filter></defs><g><!--MD5=[cf2e9fab6bcdfe5ca02b2607bfaaecaa]
class Die--><rect codeLine="3" fill="#FEFECE" filter="url(#fq499f1vgl7d2)" height="112.0234" id="Die" style="stroke: #A80036; stroke-width: 1.5;" width="210" x="286" y="312"/><ellipse cx="376.75" cy="328" fill="#ADD1B2" rx="11" ry="11" style="stroke: #A80036; stroke-width: 1.0;"/><path d="M379.0938,323.6719 C378.1563,323.2344 377.5625,323.0938 376.6875,323.0938 C374.0625,323.0938 372.0625,325.1719 372.0625,327.8906 L372.0625,329.0156 C372.0625,331.5938 374.1719,333.4844 377.0625,333.4844 C378.2813,333.4844 379.4375,333.1875 380.1875,332.6406 C380.7656,332.2344 381.0938,331.7813 381.0938,331.3906 C381.0938,330.9375 380.7031,330.5469 380.2344,330.5469 C380.0156,330.5469 379.8125,330.625 379.625,330.8125 C379.1719,331.2969 379.1719,331.2969 378.9844,331.3906 C378.5625,331.6563 377.875,331.7813 377.1094,331.7813 C375.0625,331.7813 373.7656,330.6875 373.7656,328.9844 L373.7656,327.8906 C373.7656,326.1094 375.0156,324.7969 376.75,324.7969 C377.3281,324.7969 377.9375,324.9531 378.4063,325.2031 C378.8906,325.4844 379.0625,325.7031 379.1563,326.1094 C379.2188,326.5156 379.25,326.6406 379.3906,326.7656 C379.5313,326.9063 379.7656,327.0156 379.9844,327.0156 C380.25,327.0156 380.5156,326.875 380.6875,326.6563 C380.7969,326.5 380.8281,326.3125 380.8281,325.8906 L380.8281,324.4688 C380.8281,324.0313 380.8125,323.9063 380.7188,323.75 C380.5625,323.4844 380.2813,323.3438 379.9844,323.3438 C379.6875,323.3438 379.4844,323.4375 379.2656,323.75 L379.0938,323.6719 Z "/><text fill="#000000" font-family="sans-serif" font-size="12" lengthAdjust="spacingAndGlyphs" textLength="20" x="397.25" y="332.1543">Die</text><line style="stroke: #A80036; stroke-width: 1.5;" x1="287" x2="495" y1="344" y2="344"/><text fill="#000000" font-family="sans-serif" font-size="11" lengthAdjust="spacingAndGlyphs" text-decoration="underline" textLength="79" x="292" y="358.2104">-instance: Die</text><text fill="#000000" font-family="sans-serif" font-size="11" lengthAdjust="spacingAndGlyphs" textLength="198" x="292" y="371.0151">-history : Hash&lt;Direction, Integer&gt;</text><text fill="#000000" font-family="sans-serif" font-size="11" lengthAdjust="spacingAndGlyphs" textLength="104" x="292" y="383.8198">-random : Random</text><line style="stroke: #A80036; stroke-width: 1.5;" x1="287" x2="495" y1="390.4141" y2="390.4141"/><text fill="#000000" font-family="sans-serif" font-size="11" lengthAdjust="spacingAndGlyphs" textLength="88" x="292" y="404.6245">+roll : Direction</text><text fill="#000000" font-family="sans-serif" font-size="11" lengthAdjust="spacingAndGlyphs" textLength="67" x="292" y="417.4292">+print_stats</text><!--MD5=[02f7077ed79257124e28b791f351f1d7]
class Direction--><rect codeLine="11" fill="#FEFECE" filter="url(#fq499f1vgl7d2)" height="99.2188" id="Direction" style="stroke: #A80036; stroke-width: 1.5;" width="86" x="242" y="643"/><ellipse cx="257" cy="659" fill="#EB937F" rx="11" ry="11" style="stroke: #A80036; stroke-width: 1.0;"/><path d="M255.7969,659.875 L257.25,659.875 L257.25,659.9844 C257.25,660.3906 257.2813,660.5469 257.3594,660.7031 C257.5156,660.9531 257.7969,661.1094 258.0938,661.1094 C258.3438,661.1094 258.6094,660.9688 258.7656,660.75 C258.8906,660.5938 258.9219,660.4375 258.9219,659.9844 L258.9219,658.0625 C258.9219,657.9063 258.9219,657.8594 258.9063,657.7031 C258.8438,657.2344 258.5313,656.9219 258.0781,656.9219 C257.8281,656.9219 257.5625,657.0625 257.3906,657.2813 C257.2813,657.4531 257.25,657.6094 257.25,658.0625 L257.25,658.1875 L255.7969,658.1875 L255.7969,655.7813 L259.7813,655.7813 L259.7813,656.6406 C259.7813,657.0469 259.8125,657.2188 259.8906,657.375 C260.0625,657.625 260.3438,657.7813 260.625,657.7813 C260.8906,657.7813 261.1563,657.6406 261.3281,657.4219 C261.4375,657.25 261.4688,657.1094 261.4688,656.6406 L261.4688,654.0938 L253.8438,654.0938 C253.4063,654.0938 253.2813,654.1094 253.125,654.2031 C252.875,654.3594 252.7188,654.6563 252.7188,654.9375 C252.7188,655.2188 252.8594,655.4688 253.0781,655.6406 C253.2344,655.75 253.4219,655.7813 253.8438,655.7813 L254.0938,655.7813 L254.0938,662.2969 L253.8438,662.2969 C253.4375,662.2969 253.2813,662.3125 253.125,662.4219 C252.875,662.5938 252.7188,662.8594 252.7188,663.1563 C252.7188,663.4219 252.8594,663.6719 253.0781,663.8281 C253.2188,663.9531 253.4531,664 253.8438,664 L261.8438,664 L261.8438,661.4219 C261.8438,660.9844 261.8125,660.8438 261.7344,660.6875 C261.5625,660.4375 261.2813,660.2813 261,660.2813 C260.7344,660.2813 260.4688,660.3906 260.2969,660.6406 C260.1875,660.7969 260.1563,660.9375 260.1563,661.4219 L260.1563,662.2969 L255.7969,662.2969 L255.7969,659.875 Z "/><text fill="#000000" font-family="sans-serif" font-size="12" lengthAdjust="spacingAndGlyphs" textLength="54" x="271" y="663.1543">Direction</text><line style="stroke: #A80036; stroke-width: 1.5;" x1="243" x2="327" y1="675" y2="675"/><text fill="#000000" font-family="sans-serif" font-size="11" lengthAdjust="spacingAndGlyphs" textLength="48" x="248" y="689.2104">+NORTH</text><text fill="#000000" font-family="sans-serif" font-size="11" lengthAdjust="spacingAndGlyphs" textLength="39" x="248" y="702.0151">+EAST</text><text fill="#000000" font-family="sans-serif" font-size="11" lengthAdjust="spacingAndGlyphs" textLength="49" x="248" y="714.8198">+SOUTH</text><text fill="#000000" font-family="sans-serif" font-size="11" lengthAdjust="spacingAndGlyphs" textLength="42" x="248" y="727.6245">+WEST</text><line style="stroke: #A80036; stroke-width: 1.5;" x1="243" x2="327" y1="734.2188" y2="734.2188"/><!--MD5=[1f24f7b92150e3316908f7910ce81742]
class Grid--><rect codeLine="18" fill="#FEFECE" filter="url(#fq499f1vgl7d2)" height="112.0234" id="Grid" style="stroke: #A80036; stroke-width: 1.5;" width="227" x="110.5" y="170"/><ellipse cx="207.25" cy="186" fill="#ADD1B2" rx="11" ry="11" style="stroke: #A80036; stroke-width: 1.0;"/><path d="M209.5938,181.6719 C208.6563,181.2344 208.0625,181.0938 207.1875,181.0938 C204.5625,181.0938 202.5625,183.1719 202.5625,185.8906 L202.5625,187.0156 C202.5625,189.5938 204.6719,191.4844 207.5625,191.4844 C208.7813,191.4844 209.9375,191.1875 210.6875,190.6406 C211.2656,190.2344 211.5938,189.7813 211.5938,189.3906 C211.5938,188.9375 211.2031,188.5469 210.7344,188.5469 C210.5156,188.5469 210.3125,188.625 210.125,188.8125 C209.6719,189.2969 209.6719,189.2969 209.4844,189.3906 C209.0625,189.6563 208.375,189.7813 207.6094,189.7813 C205.5625,189.7813 204.2656,188.6875 204.2656,186.9844 L204.2656,185.8906 C204.2656,184.1094 205.5156,182.7969 207.25,182.7969 C207.8281,182.7969 208.4375,182.9531 208.9063,183.2031 C209.3906,183.4844 209.5625,183.7031 209.6563,184.1094 C209.7188,184.5156 209.75,184.6406 209.8906,184.7656 C210.0313,184.9063 210.2656,185.0156 210.4844,185.0156 C210.75,185.0156 211.0156,184.875 211.1875,184.6563 C211.2969,184.5 211.3281,184.3125 211.3281,183.8906 L211.3281,182.4688 C211.3281,182.0313 211.3125,181.9063 211.2188,181.75 C211.0625,181.4844 210.7813,181.3438 210.4844,181.3438 C210.1875,181.3438 209.9844,181.4375 209.7656,181.75 L209.5938,181.6719 Z "/><text fill="#000000" font-family="sans-serif" font-size="12" lengthAdjust="spacingAndGlyphs" textLength="25" x="227.75" y="190.1543">Grid</text><line style="stroke: #A80036; stroke-width: 1.5;" x1="111.5" x2="336.5" y1="202" y2="202"/><text fill="#000000" font-family="sans-serif" font-size="11" lengthAdjust="spacingAndGlyphs" textLength="115" x="116.5" y="216.2104">-dimension : Integer</text><text fill="#000000" font-family="sans-serif" font-size="11" lengthAdjust="spacingAndGlyphs" textLength="164" x="116.5" y="229.0151">-items : Hash&lt;Object, Point&gt;</text><line style="stroke: #A80036; stroke-width: 1.5;" x1="111.5" x2="336.5" y1="235.6094" y2="235.6094"/><text fill="#000000" font-family="sans-serif" font-size="11" lengthAdjust="spacingAndGlyphs" textLength="151" x="116.5" y="249.8198">+place_item(Object, Point)</text><text fill="#000000" font-family="sans-serif" font-size="11" lengthAdjust="spacingAndGlyphs" textLength="193" x="116.5" y="262.6245">+get_item_location(Object) : Point</text><text fill="#000000" font-family="sans-serif" font-size="11" lengthAdjust="spacingAndGlyphs" textLength="215" x="116.5" y="275.4292">+move_item(Object, Direction) : Point</text><!--MD5=[072a6c458e8d6cf1d9d8102085674625]
class StandardError--><rect codeLine="26" fill="#FEFECE" filter="url(#fq499f1vgl7d2)" height="60.8047" id="StandardError" style="stroke: #A80036; stroke-width: 1.5;" width="118" x="729" y="19.5"/><ellipse cx="744.9" cy="35.5" fill="#ADD1B2" rx="11" ry="11" style="stroke: #A80036; stroke-width: 1.0;"/><path d="M747.2438,31.1719 C746.3063,30.7344 745.7125,30.5938 744.8375,30.5938 C742.2125,30.5938 740.2125,32.6719 740.2125,35.3906 L740.2125,36.5156 C740.2125,39.0938 742.3219,40.9844 745.2125,40.9844 C746.4313,40.9844 747.5875,40.6875 748.3375,40.1406 C748.9156,39.7344 749.2438,39.2813 749.2438,38.8906 C749.2438,38.4375 748.8531,38.0469 748.3844,38.0469 C748.1656,38.0469 747.9625,38.125 747.775,38.3125 C747.3219,38.7969 747.3219,38.7969 747.1344,38.8906 C746.7125,39.1563 746.025,39.2813 745.2594,39.2813 C743.2125,39.2813 741.9156,38.1875 741.9156,36.4844 L741.9156,35.3906 C741.9156,33.6094 743.1656,32.2969 744.9,32.2969 C745.4781,32.2969 746.0875,32.4531 746.5563,32.7031 C747.0406,32.9844 747.2125,33.2031 747.3063,33.6094 C747.3688,34.0156 747.4,34.1406 747.5406,34.2656 C747.6813,34.4063 747.9156,34.5156 748.1344,34.5156 C748.4,34.5156 748.6656,34.375 748.8375,34.1563 C748.9469,34 748.9781,33.8125 748.9781,33.3906 L748.9781,31.9688 C748.9781,31.5313 748.9625,31.4063 748.8688,31.25 C748.7125,30.9844 748.4313,30.8438 748.1344,30.8438 C747.8375,30.8438 747.6344,30.9375 747.4156,31.25 L747.2438,31.1719 Z "/><text fill="#000000" font-family="sans-serif" font-size="12" lengthAdjust="spacingAndGlyphs" textLength="84" x="759.1" y="39.6543">StandardError</text><line style="stroke: #A80036; stroke-width: 1.5;" x1="730" x2="846" y1="51.5" y2="51.5"/><text fill="#000000" font-family="sans-serif" font-size="11" lengthAdjust="spacingAndGlyphs" textLength="106" x="735" y="65.7104">+message : String</text><line style="stroke: #A80036; stroke-width: 1.5;" x1="730" x2="846" y1="72.3047" y2="72.3047"/><!--MD5=[85bae912d113bb0b86a623a745020199]
class Home--><rect codeLine="30" fill="#FEFECE" filter="url(#fq499f1vgl7d2)" height="48" id="Home" style="stroke: #A80036; stroke-width: 1.5;" width="68" x="7" y="202"/><ellipse cx="22" cy="218" fill="#ADD1B2" rx="11" ry="11" style="stroke: #A80036; stroke-width: 1.0;"/><path d="M24.3438,213.6719 C23.4063,213.2344 22.8125,213.0938 21.9375,213.0938 C19.3125,213.0938 17.3125,215.1719 17.3125,217.8906 L17.3125,219.0156 C17.3125,221.5938 19.4219,223.4844 22.3125,223.4844 C23.5313,223.4844 24.6875,223.1875 25.4375,222.6406 C26.0156,222.2344 26.3438,221.7813 26.3438,221.3906 C26.3438,220.9375 25.9531,220.5469 25.4844,220.5469 C25.2656,220.5469 25.0625,220.625 24.875,220.8125 C24.4219,221.2969 24.4219,221.2969 24.2344,221.3906 C23.8125,221.6563 23.125,221.7813 22.3594,221.7813 C20.3125,221.7813 19.0156,220.6875 19.0156,218.9844 L19.0156,217.8906 C19.0156,216.1094 20.2656,214.7969 22,214.7969 C22.5781,214.7969 23.1875,214.9531 23.6563,215.2031 C24.1406,215.4844 24.3125,215.7031 24.4063,216.1094 C24.4688,216.5156 24.5,216.6406 24.6406,216.7656 C24.7813,216.9063 25.0156,217.0156 25.2344,217.0156 C25.5,217.0156 25.7656,216.875 25.9375,216.6563 C26.0469,216.5 26.0781,216.3125 26.0781,215.8906 L26.0781,214.4688 C26.0781,214.0313 26.0625,213.9063 25.9688,213.75 C25.8125,213.4844 25.5313,213.3438 25.2344,213.3438 C24.9375,213.3438 24.7344,213.4375 24.5156,213.75 L24.3438,213.6719 Z "/><text fill="#000000" font-family="sans-serif" font-size="12" lengthAdjust="spacingAndGlyphs" textLength="36" x="36" y="222.1543">Home</text><line style="stroke: #A80036; stroke-width: 1.5;" x1="8" x2="74" y1="234" y2="234"/><line style="stroke: #A80036; stroke-width: 1.5;" x1="8" x2="74" y1="242" y2="242"/><!--MD5=[01d3c7e2bb09bf0271d3c45705608669]
class ItemExistsError--><rect codeLine="32" fill="#FEFECE" filter="url(#fq499f1vgl7d2)" height="48" id="ItemExistsError" style="stroke: #A80036; stroke-width: 1.5;" width="123" x="726.5" y="202"/><ellipse cx="741.5" cy="218" fill="#ADD1B2" rx="11" ry="11" style="stroke: #A80036; stroke-width: 1.0;"/><path d="M743.8438,213.6719 C742.9063,213.2344 742.3125,213.0938 741.4375,213.0938 C738.8125,213.0938 736.8125,215.1719 736.8125,217.8906 L736.8125,219.0156 C736.8125,221.5938 738.9219,223.4844 741.8125,223.4844 C743.0313,223.4844 744.1875,223.1875 744.9375,222.6406 C745.5156,222.2344 745.8438,221.7813 745.8438,221.3906 C745.8438,220.9375 745.4531,220.5469 744.9844,220.5469 C744.7656,220.5469 744.5625,220.625 744.375,220.8125 C743.9219,221.2969 743.9219,221.2969 743.7344,221.3906 C743.3125,221.6563 742.625,221.7813 741.8594,221.7813 C739.8125,221.7813 738.5156,220.6875 738.5156,218.9844 L738.5156,217.8906 C738.5156,216.1094 739.7656,214.7969 741.5,214.7969 C742.0781,214.7969 742.6875,214.9531 743.1563,215.2031 C743.6406,215.4844 743.8125,215.7031 743.9063,216.1094 C743.9688,216.5156 744,216.6406 744.1406,216.7656 C744.2813,216.9063 744.5156,217.0156 744.7344,217.0156 C745,217.0156 745.2656,216.875 745.4375,216.6563 C745.5469,216.5 745.5781,216.3125 745.5781,215.8906 L745.5781,214.4688 C745.5781,214.0313 745.5625,213.9063 745.4688,213.75 C745.3125,213.4844 745.0313,213.3438 744.7344,213.3438 C744.4375,213.3438 744.2344,213.4375 744.0156,213.75 L743.8438,213.6719 Z "/><text fill="#000000" font-family="sans-serif" font-size="12" lengthAdjust="spacingAndGlyphs" textLength="91" x="755.5" y="222.1543">ItemExistsError</text><line style="stroke: #A80036; stroke-width: 1.5;" x1="727.5" x2="848.5" y1="234" y2="234"/><line style="stroke: #A80036; stroke-width: 1.5;" x1="727.5" x2="848.5" y1="242" y2="242"/><!--MD5=[4ec8421c6cadbf0780199dae92149fb6]
class ItemNotFoundError--><rect codeLine="34" fill="#FEFECE" filter="url(#fq499f1vgl7d2)" height="48" id="ItemNotFoundError" style="stroke: #A80036; stroke-width: 1.5;" width="145" x="884.5" y="202"/><ellipse cx="899.5" cy="218" fill="#ADD1B2" rx="11" ry="11" style="stroke: #A80036; stroke-width: 1.0;"/><path d="M901.8438,213.6719 C900.9063,213.2344 900.3125,213.0938 899.4375,213.0938 C896.8125,213.0938 894.8125,215.1719 894.8125,217.8906 L894.8125,219.0156 C894.8125,221.5938 896.9219,223.4844 899.8125,223.4844 C901.0313,223.4844 902.1875,223.1875 902.9375,222.6406 C903.5156,222.2344 903.8438,221.7813 903.8438,221.3906 C903.8438,220.9375 903.4531,220.5469 902.9844,220.5469 C902.7656,220.5469 902.5625,220.625 902.375,220.8125 C901.9219,221.2969 901.9219,221.2969 901.7344,221.3906 C901.3125,221.6563 900.625,221.7813 899.8594,221.7813 C897.8125,221.7813 896.5156,220.6875 896.5156,218.9844 L896.5156,217.8906 C896.5156,216.1094 897.7656,214.7969 899.5,214.7969 C900.0781,214.7969 900.6875,214.9531 901.1563,215.2031 C901.6406,215.4844 901.8125,215.7031 901.9063,216.1094 C901.9688,216.5156 902,216.6406 902.1406,216.7656 C902.2813,216.9063 902.5156,217.0156 902.7344,217.0156 C903,217.0156 903.2656,216.875 903.4375,216.6563 C903.5469,216.5 903.5781,216.3125 903.5781,215.8906 L903.5781,214.4688 C903.5781,214.0313 903.5625,213.9063 903.4688,213.75 C903.3125,213.4844 903.0313,213.3438 902.7344,213.3438 C902.4375,213.3438 902.2344,213.4375 902.0156,213.75 L901.8438,213.6719 Z "/><text fill="#000000" font-family="sans-serif" font-size="12" lengthAdjust="spacingAndGlyphs" textLength="113" x="913.5" y="222.1543">ItemNotFoundError</text><line style="stroke: #A80036; stroke-width: 1.5;" x1="885.5" x2="1028.5" y1="234" y2="234"/><line style="stroke: #A80036; stroke-width: 1.5;" x1="885.5" x2="1028.5" y1="242" y2="242"/><!--MD5=[99af92fe15be602290fbdf27fa059b79]
class Kangaroo--><rect codeLine="36" fill="#FEFECE" filter="url(#fq499f1vgl7d2)" height="86.4141" id="Kangaroo" style="stroke: #A80036; stroke-width: 1.5;" width="153" x="147.5" y="7"/><ellipse cx="190.85" cy="23" fill="#ADD1B2" rx="11" ry="11" style="stroke: #A80036; stroke-width: 1.0;"/><path d="M193.1938,18.6719 C192.2563,18.2344 191.6625,18.0938 190.7875,18.0938 C188.1625,18.0938 186.1625,20.1719 186.1625,22.8906 L186.1625,24.0156 C186.1625,26.5938 188.2719,28.4844 191.1625,28.4844 C192.3813,28.4844 193.5375,28.1875 194.2875,27.6406 C194.8656,27.2344 195.1938,26.7813 195.1938,26.3906 C195.1938,25.9375 194.8031,25.5469 194.3344,25.5469 C194.1156,25.5469 193.9125,25.625 193.725,25.8125 C193.2719,26.2969 193.2719,26.2969 193.0844,26.3906 C192.6625,26.6563 191.975,26.7813 191.2094,26.7813 C189.1625,26.7813 187.8656,25.6875 187.8656,23.9844 L187.8656,22.8906 C187.8656,21.1094 189.1156,19.7969 190.85,19.7969 C191.4281,19.7969 192.0375,19.9531 192.5063,20.2031 C192.9906,20.4844 193.1625,20.7031 193.2563,21.1094 C193.3188,21.5156 193.35,21.6406 193.4906,21.7656 C193.6313,21.9063 193.8656,22.0156 194.0844,22.0156 C194.35,22.0156 194.6156,21.875 194.7875,21.6563 C194.8969,21.5 194.9281,21.3125 194.9281,20.8906 L194.9281,19.4688 C194.9281,19.0313 194.9125,18.9063 194.8188,18.75 C194.6625,18.4844 194.3813,18.3438 194.0844,18.3438 C193.7875,18.3438 193.5844,18.4375 193.3656,18.75 L193.1938,18.6719 Z "/><text fill="#000000" font-family="sans-serif" font-size="12" lengthAdjust="spacingAndGlyphs" textLength="58" x="211.15" y="27.1543">Kangaroo</text><line style="stroke: #A80036; stroke-width: 1.5;" x1="148.5" x2="299.5" y1="39" y2="39"/><text fill="#000000" font-family="sans-serif" font-size="11" lengthAdjust="spacingAndGlyphs" textLength="53" x="153.5" y="53.2104">-die : Die</text><line style="stroke: #A80036; stroke-width: 1.5;" x1="148.5" x2="299.5" y1="59.8047" y2="59.8047"/><text fill="#000000" font-family="sans-serif" font-size="11" lengthAdjust="spacingAndGlyphs" textLength="89" x="153.5" y="74.0151">+chortle(String)</text><text fill="#000000" font-family="sans-serif" font-size="11" lengthAdjust="spacingAndGlyphs" textLength="141" x="153.5" y="86.8198">+find_home(Grid, Home)</text><!--MD5=[a22f837d8ceaa7654d5241ae8b3cb7d5]
class OutOfBoundsError--><rect codeLine="42" fill="#FEFECE" filter="url(#fq499f1vgl7d2)" height="60.8047" id="OutOfBoundsError" style="stroke: #A80036; stroke-width: 1.5;" width="142" x="549" y="195.5"/><ellipse cx="564" cy="211.5" fill="#ADD1B2" rx="11" ry="11" style="stroke: #A80036; stroke-width: 1.0;"/><path d="M566.3438,207.1719 C565.4063,206.7344 564.8125,206.5938 563.9375,206.5938 C561.3125,206.5938 559.3125,208.6719 559.3125,211.3906 L559.3125,212.5156 C559.3125,215.0938 561.4219,216.9844 564.3125,216.9844 C565.5313,216.9844 566.6875,216.6875 567.4375,216.1406 C568.0156,215.7344 568.3438,215.2813 568.3438,214.8906 C568.3438,214.4375 567.9531,214.0469 567.4844,214.0469 C567.2656,214.0469 567.0625,214.125 566.875,214.3125 C566.4219,214.7969 566.4219,214.7969 566.2344,214.8906 C565.8125,215.1563 565.125,215.2813 564.3594,215.2813 C562.3125,215.2813 561.0156,214.1875 561.0156,212.4844 L561.0156,211.3906 C561.0156,209.6094 562.2656,208.2969 564,208.2969 C564.5781,208.2969 565.1875,208.4531 565.6563,208.7031 C566.1406,208.9844 566.3125,209.2031 566.4063,209.6094 C566.4688,210.0156 566.5,210.1406 566.6406,210.2656 C566.7813,210.4063 567.0156,210.5156 567.2344,210.5156 C567.5,210.5156 567.7656,210.375 567.9375,210.1563 C568.0469,210 568.0781,209.8125 568.0781,209.3906 L568.0781,207.9688 C568.0781,207.5313 568.0625,207.4063 567.9688,207.25 C567.8125,206.9844 567.5313,206.8438 567.2344,206.8438 C566.9375,206.8438 566.7344,206.9375 566.5156,207.25 L566.3438,207.1719 Z "/><text fill="#000000" font-family="sans-serif" font-size="12" lengthAdjust="spacingAndGlyphs" textLength="110" x="578" y="215.6543">OutOfBoundsError</text><line style="stroke: #A80036; stroke-width: 1.5;" x1="550" x2="690" y1="227.5" y2="227.5"/><text fill="#000000" font-family="sans-serif" font-size="11" lengthAdjust="spacingAndGlyphs" textLength="91" x="555" y="241.7104">+location : Point</text><line style="stroke: #A80036; stroke-width: 1.5;" x1="550" x2="690" y1="248.3047" y2="248.3047"/><!--MD5=[972bde5337b4335dd91fa5354c932445]
class Point--><rect codeLine="46" fill="#FEFECE" filter="url(#fq499f1vgl7d2)" height="112.0234" id="Point" style="stroke: #A80036; stroke-width: 1.5;" width="200" x="185" y="454"/><ellipse cx="266.75" cy="470" fill="#ADD1B2" rx="11" ry="11" style="stroke: #A80036; stroke-width: 1.0;"/><path d="M269.0938,465.6719 C268.1563,465.2344 267.5625,465.0938 266.6875,465.0938 C264.0625,465.0938 262.0625,467.1719 262.0625,469.8906 L262.0625,471.0156 C262.0625,473.5938 264.1719,475.4844 267.0625,475.4844 C268.2813,475.4844 269.4375,475.1875 270.1875,474.6406 C270.7656,474.2344 271.0938,473.7813 271.0938,473.3906 C271.0938,472.9375 270.7031,472.5469 270.2344,472.5469 C270.0156,472.5469 269.8125,472.625 269.625,472.8125 C269.1719,473.2969 269.1719,473.2969 268.9844,473.3906 C268.5625,473.6563 267.875,473.7813 267.1094,473.7813 C265.0625,473.7813 263.7656,472.6875 263.7656,470.9844 L263.7656,469.8906 C263.7656,468.1094 265.0156,466.7969 266.75,466.7969 C267.3281,466.7969 267.9375,466.9531 268.4063,467.2031 C268.8906,467.4844 269.0625,467.7031 269.1563,468.1094 C269.2188,468.5156 269.25,468.6406 269.3906,468.7656 C269.5313,468.9063 269.7656,469.0156 269.9844,469.0156 C270.25,469.0156 270.5156,468.875 270.6875,468.6563 C270.7969,468.5 270.8281,468.3125 270.8281,467.8906 L270.8281,466.4688 C270.8281,466.0313 270.8125,465.9063 270.7188,465.75 C270.5625,465.4844 270.2813,465.3438 269.9844,465.3438 C269.6875,465.3438 269.4844,465.4375 269.2656,465.75 L269.0938,465.6719 Z "/><text fill="#000000" font-family="sans-serif" font-size="12" lengthAdjust="spacingAndGlyphs" textLength="28" x="287.25" y="474.1543">Point</text><line style="stroke: #A80036; stroke-width: 1.5;" x1="186" x2="384" y1="486" y2="486"/><text fill="#000000" font-family="sans-serif" font-size="11" lengthAdjust="spacingAndGlyphs" textLength="134" x="191" y="500.2104">+x_coordinate : Integer</text><text fill="#000000" font-family="sans-serif" font-size="11" lengthAdjust="spacingAndGlyphs" textLength="134" x="191" y="513.0151">+y_coordinate : Integer</text><line style="stroke: #A80036; stroke-width: 1.5;" x1="186" x2="384" y1="519.6094" y2="519.6094"/><text fill="#000000" font-family="sans-serif" font-size="11" lengthAdjust="spacingAndGlyphs" textLength="188" x="191" y="533.8198">+get_neighbour(Direction) : Point</text><text fill="#000000" font-family="sans-serif" font-size="11" lengthAdjust="spacingAndGlyphs" textLength="76" x="191" y="546.6245">+to_s : String</text><text fill="#000000" font-family="sans-serif" font-size="11" lengthAdjust="spacingAndGlyphs" textLength="120" x="191" y="559.4292">+==(Point) : Boolean</text><!--MD5=[59f2aa28fddf9c5daa89dbae1e040217]
link Die to Die--><path codeLine="54" d="M496.014,342.56 C516.472,345.514 531,353.994 531,368 C531,380.802 518.862,388.988 501.152,392.556 " fill="none" id="Die-to-Die" style="stroke: #A80036; stroke-width: 1.0;"/><polygon fill="#A80036" points="496.014,393.44,505.5623,395.8544,500.9415,392.5914,504.2045,387.9705,496.014,393.44" style="stroke: #A80036; stroke-width: 1.0;"/><text fill="#000000" font-family="sans-serif" font-size="13" lengthAdjust="spacingAndGlyphs" textLength="54" x="537" y="372.5669">instance</text><!--MD5=[013253d5218ff30f69dcd89083a973fd]
link Die to Direction--><path codeLine="55" d="M406.117,424.051 C414.452,464.687 419.887,520.582 402,566 C387.851,601.927 358.033,633.647 332.042,656.2102 " fill="none" id="Die-to-Direction" style="stroke: #A80036; stroke-width: 1.0;"/><polygon fill="#A80036" points="328.237,659.4721,337.6732,656.651,332.0329,656.2177,332.4662,650.5775,328.237,659.4721" style="stroke: #A80036; stroke-width: 1.0;"/><text fill="#000000" font-family="sans-serif" font-size="13" lengthAdjust="spacingAndGlyphs" textLength="44" x="415" y="514.5669">history</text><!--MD5=[9d8223f77a75a3e7ccef8490b51c2dc7]
link Grid to Direction--><path codeLine="56" d="M189.262,282.201 C150.67,351.06 99.0969,471.265 142,566 C161.497,609.051 203.868,643.1815 237.455,664.9153 " fill="none" id="Grid-to-Direction" style="stroke: #A80036; stroke-width: 1.0;"/><polygon fill="#A80036" points="241.923,667.7674,236.4906,659.5522,237.709,665.0763,232.1849,666.2947,241.923,667.7674" style="stroke: #A80036; stroke-width: 1.0;"/><text fill="#000000" font-family="sans-serif" font-size="13" lengthAdjust="spacingAndGlyphs" textLength="23" x="143" y="514.5669">use</text><!--MD5=[47f0744c13a6a4d1e3b2106d7ce615c2]
reverse link StandardError to ItemExistsError--><path codeLine="57" d="M788,100.782 C788,133.976 788,176.078 788,201.755 " fill="none" id="StandardError-backto-ItemExistsError" style="stroke: #A80036; stroke-width: 1.0;"/><polygon fill="none" points="781,100.517,788,80.517,795,100.517,781,100.517" style="stroke: #A80036; stroke-width: 1.0;"/><!--MD5=[80f15be24e8b6d5563bf7b0cd12f9028]
reverse link StandardError to ItemNotFoundError--><path codeLine="58" d="M830.914,95.183 C863.866,129.111 908.059,174.611 934.423,201.755 " fill="none" id="StandardError-backto-ItemNotFoundError" style="stroke: #A80036; stroke-width: 1.0;"/><polygon fill="none" points="825.582,99.741,816.669,80.517,835.624,89.986,825.582,99.741" style="stroke: #A80036; stroke-width: 1.0;"/><!--MD5=[285b84cd17eb2b6fb4ff0c36ad6d5dc1]
reverse link StandardError to OutOfBoundsError--><path codeLine="59" d="M745.493,95.025 C715.178,126.423 675.234,167.793 648.639,195.338 " fill="none" id="StandardError-backto-OutOfBoundsError" style="stroke: #A80036; stroke-width: 1.0;"/><polygon fill="none" points="740.573,90.043,759.501,80.517,750.645,99.767,740.573,90.043" style="stroke: #A80036; stroke-width: 1.0;"/><!--MD5=[4fbd77cec8d4c5287a534012e2cc45ad]
link Grid to Point--><path codeLine="60" d="M217.874,282.236 C215.269,322.468 215.582,377.779 230,424 C232.694,432.636 236.528,441.235 240.934,449.464 " fill="none" id="Grid-to-Point" style="stroke: #A80036; stroke-width: 1.0;"/><polygon fill="#A80036" points="243.438,453.995,242.5851,444.1831,241.0193,449.619,235.5834,448.0531,243.438,453.995" style="stroke: #A80036; stroke-width: 1.0;"/><text fill="#000000" font-family="sans-serif" font-size="13" lengthAdjust="spacingAndGlyphs" textLength="36" x="231" y="372.5669">items</text><!--MD5=[26460278a18ad98bf880c1566f91ea35]
link Kangaroo to Die--><path codeLine="61" d="M285.855,93.043 C311.126,113.379 338.289,139.917 355,170 C378.187,211.74 386.856,265.391 389.912,306.161 " fill="none" id="Kangaroo-to-Die" style="stroke: #A80036; stroke-width: 1.0;"/><polygon fill="#A80036" points="390.29,311.572,393.6503,302.3141,389.9401,306.5843,385.6699,302.874,390.29,311.572" style="stroke: #A80036; stroke-width: 1.0;"/><text fill="#000000" font-family="sans-serif" font-size="13" lengthAdjust="spacingAndGlyphs" textLength="19" x="335" y="136.0669">die</text><!--MD5=[034162ca823c773e3da018882996f896]
link Kangaroo to Grid--><path codeLine="62" d="M224,93.121 C224,114.533 224,140.941 224,164.487 " fill="none" id="Kangaroo-to-Grid" style="stroke: #A80036; stroke-width: 1.0;"/><polygon fill="#A80036" points="224,169.777,228,160.777,224,164.777,220,160.777,224,169.777" style="stroke: #A80036; stroke-width: 1.0;"/><text fill="#000000" font-family="sans-serif" font-size="13" lengthAdjust="spacingAndGlyphs" textLength="23" x="225" y="136.0669">use</text><!--MD5=[9eadd271f8555489de7f5d2bbe10e026]
link Kangaroo to Home--><path codeLine="63" d="M175.901,93.112 C150.775,115.503 119.769,143.759 93,170 C83.8858,178.934 74.2025,189.006 65.6937,198.066 " fill="none" id="Kangaroo-to-Home" style="stroke: #A80036; stroke-width: 1.0;"/><polygon fill="#A80036" points="62.1242,201.881,71.1947,198.0436,65.541,198.2306,65.354,192.5768,62.1242,201.881" style="stroke: #A80036; stroke-width: 1.0;"/><text fill="#000000" font-family="sans-serif" font-size="13" lengthAdjust="spacingAndGlyphs" textLength="23" x="144" y="136.0669">use</text><!--MD5=[53c3edd57408e0011a6ea7b9b0a8a0ad]
link OutOfBoundsError to Point--><path codeLine="64" d="M623.55,256.801 C626.894,300.077 625.937,379.942 581,424 C526.528,477.406 485.052,432.026 412,454 C404.802,456.165 397.468,458.622 390.137,461.268 " fill="none" id="OutOfBoundsError-to-Point" style="stroke: #A80036; stroke-width: 1.0;"/><polygon fill="#A80036" points="385.064,463.128,394.8909,463.7849,389.7583,461.4066,392.1366,456.2739,385.064,463.128" style="stroke: #A80036; stroke-width: 1.0;"/><text fill="#000000" font-family="sans-serif" font-size="13" lengthAdjust="spacingAndGlyphs" textLength="50" x="624" y="372.5669">location</text><!--MD5=[df91dbdaee43870a372b060a39559f7e]
link Point to Direction--><path codeLine="65" d="M285,566.137 C285,588.884 285,615.157 285,637.756 " fill="none" id="Point-to-Direction" style="stroke: #A80036; stroke-width: 1.0;"/><polygon fill="#A80036" points="285,642.8176,289,633.8176,285,637.8176,281,633.8176,285,642.8176" style="stroke: #A80036; stroke-width: 1.0;"/><text fill="#000000" font-family="sans-serif" font-size="13" lengthAdjust="spacingAndGlyphs" textLength="23" x="286" y="609.0669">use</text><!--MD5=[85f47d3d9e15469c4685988d106f755e]
@startuml
skinparam classAttributeIconSize 0
 
class "Die" {
  {field} {static} -instance: Die
  {field} -history : Hash<Direction, Integer>
  {field} -random : Random
  {method} +roll : Direction
  {method} +print_stats  
}

enum "Direction" {
  {field} +NORTH
  {field} +EAST
  {field} +SOUTH
  {field} +WEST
}

class "Grid" {
  {field} -dimension : Integer
  {field} -items : Hash<Object, Point>
  {method} +place_item(Object, Point)
  {method} +get_item_location(Object) : Point
  {method} +move_item(Object, Direction) : Point
}

class "StandardError" {
  {field} +message : String
}

class "Home"

class "ItemExistsError"

class "ItemNotFoundError"

class "Kangaroo" {
  {field} -die : Die
  {method} +chortle(String)
  {method} +find_home(Grid, Home)
}

class "OutOfBoundsError" {
  {field} +location : Point
}

class "Point" {
  {field} +x_coordinate : Integer
  {field} +y_coordinate : Integer
  {method} +get_neighbour(Direction) : Point
  {method} +to_s : String
  {method} +==(Point) : Boolean
}

"Die" - -> "Die" : instance
"Die" - -> "Direction" : history
"Grid" - -> "Direction" : use
"StandardError" <|- - "ItemExistsError"
"StandardError" <|- - "ItemNotFoundError"
"StandardError" <|- - "OutOfBoundsError"
"Grid" - -> "Point" : items
"Kangaroo" - -> "Die" : die
"Kangaroo" - -> "Grid" : use
"Kangaroo" - -> "Home" : use
"OutOfBoundsError" - -> "Point" : location
"Point" - -> "Direction" : use
@enduml

PlantUML version 1.2020.17beta5(Unknown compile time)
(GPL source distribution)
Java Runtime: Java(TM) SE Runtime Environment
JVM: Java HotSpot(TM) 64-Bit Server VM
Default Encoding: UTF-8
Language: en
Country: US
--></g></svg>